<svg xmlns="http://www.w3.org/2000/svg" viewBox="0 0 288 288"><defs><style>.cls-1{isolation:isolate;}.cls-2{fill:#f4bf56;}.cls-3{fill:#fff;mix-blend-mode:soft-light;}.cls-4{fill:#ce9e3e;}</style></defs><title>hair_04_blondeМонтажная область 36 копия</title><g class="cls-1"><g id="hair"><g id="hair04"><g id="hair04_blonde" data-name="hair04 blonde"><path class="cls-2" d="M91.33,157.55a1.29,1.29,0,0,0,1.14-.67c1.18-1.92.93-5.49,1-7.67.09-2.77,0-5.55-.06-8.32-.23-13.48-.67-27.23-.4-40.8.07-3.61-.68-9,1.85-12,1.8-2.12,4.87-2.29,7.43-2.6,24.32-3,48.43-4.4,72.86-1.67l1.11.13c4.19.49,8.42.88,12.4,2.36a5,5,0,0,1,1.52.79,5.35,5.35,0,0,1,1,1.34,8.18,8.18,0,0,1,1.36,3.14,253.8,253.8,0,0,1,1.62,43.2c-.11,2.64-.24,5.27-.36,7.91a62.66,62.66,0,0,1-.56,6.58,32,32,0,0,0-.28,7.07c0,.55.23,1.25.78,1.3s.86-.57,1-1.08q.81-2.55,1.37-5.18a24.66,24.66,0,0,0,.88-4.85c.64-3.85,1.07-7.74,1.77-11.58,2.85-15.75,1.77-31.25,2-47.13.1-8.32-.41-8.08-1.6-16.32-.66-4.59-1.58-11.56-4.12-15.44-3.52-5.38-8.07-10.56-14-11.69a191.7,191.7,0,0,0-32.51-3.62,274.54,274.54,0,0,0-35.3,1.9,63.86,63.86,0,0,0-12.91,2.81,44,44,0,0,0-8.56,4.63c-5.8,4.05-6.4,14.5-6.91,26.49-.3,7,.24,5.47,0,12.48a310,310,0,0,0,.57,33.29c.85,11.21,3,22.15,4.61,33.25a3.8,3.8,0,0,0,.32,1.23A1.29,1.29,0,0,0,91.33,157.55Z"/><path class="cls-3" d="M103.56,81.37a35.62,35.62,0,0,0-7.17.93c-4.18,1.07-5.3,4.6-5.51,8.51l-.36,6.65c-.39,7.09,0,14.22-.34,21.37-.24,5.31.73,10.63.21,16,0,.4-.15.89-.54,1a.75.75,0,0,1-.48,0c-.82-.33-1.08-1.34-1.22-2.22-1.59-9.73-1.62-19.81-1.72-29.68-.11-10.54.18-21.08.6-31.61.21-5.23.8-10.82,3.45-15.45a14.74,14.74,0,0,1,5.29-5.44c1.05-.62,7.29-3.41,6,.06a10.74,10.74,0,0,1-1.8,2.66c-2.66,3.44-3.41,8-3.42,12.21,0,5,2.6,7.45,6.65,9.78a16.45,16.45,0,0,0,3.39,1.62c2.09.63,4.39.42,6.4,1.28.4.17.85.52.74.94s-.45.46-.76.55C109.93,81.29,106.68,81.22,103.56,81.37Z"/><path class="cls-3" d="M125.88,79.24a24.81,24.81,0,0,1-7.47-3.14,19.51,19.51,0,0,1-5.95-5.84,18.54,18.54,0,0,1-2.84-7.87,20.59,20.59,0,0,1,.75-8.11,72.8,72.8,0,0,0,1.56,7.64,25.71,25.71,0,0,0,3,6.7,27.93,27.93,0,0,0,4.86,5.6C121.7,76,123.81,77.5,125.88,79.24Z"/><path class="cls-3" d="M139.23,78.5a11.75,11.75,0,0,1-4.76-4.4,19.31,19.31,0,0,1-2.52-6,19.79,19.79,0,0,1-.43-6.51,12.71,12.71,0,0,1,2.13-6.11,40.15,40.15,0,0,0,.23,6.12,50.55,50.55,0,0,0,1,5.82A45.47,45.47,0,0,0,136.56,73,30.13,30.13,0,0,0,139.23,78.5Z"/><path class="cls-3" d="M148.5,78.5c.63-1.59,1.34-3,2-4.4s1.29-2.75,1.86-4.12,1.07-2.75,1.51-4.2.82-2.94,1.27-4.59a10.31,10.31,0,0,1,1.06,4.95,13.81,13.81,0,0,1-1.07,5,15.45,15.45,0,0,1-2.68,4.28A12.91,12.91,0,0,1,148.5,78.5Z"/><path class="cls-3" d="M157.94,80a60.57,60.57,0,0,0,5.48-4.05,23.46,23.46,0,0,0,4.27-4.74,21,21,0,0,0,2.68-5.75,44.81,44.81,0,0,0,1.34-6.66,15.28,15.28,0,0,1-1.52,14.07,16.11,16.11,0,0,1-5.42,5A16.5,16.5,0,0,1,157.94,80Z"/><path class="cls-4" d="M200.78,87.83c.1-8.32-.41-8.08-1.6-16.32-.66-4.59-1.58-11.56-4.12-15.44-3.52-5.38-8.07-10.56-14-11.69a191.7,191.7,0,0,0-32.51-3.62,274.56,274.56,0,0,0-35.3,1.9,69.07,69.07,0,0,0-7.39,1.28c1.62,1.54,4.14,1.33,6.3,1.11,8.68-.88,18.23-.55,27.1-.56,8.5,0,19.11-.25,27.28,2.33,12.91,4.08,18.46,19.37,19.88,31.62.29,2.45.46,4.91.58,7.38.56.17,1.13.31,1.69.51a5,5,0,0,1,1.52.79,5.36,5.36,0,0,1,1,1.34,8.18,8.18,0,0,1,1.36,3.14,253.8,253.8,0,0,1,1.62,43.2c-.11,2.64-.24,5.27-.36,7.91a62.68,62.68,0,0,1-.56,6.58,32,32,0,0,0-.28,7.07c0,.55.23,1.25.78,1.3s.86-.57,1-1.08q.81-2.55,1.37-5.18a24.67,24.67,0,0,0,.88-4.85c.64-3.85,1.07-7.74,1.77-11.58C201.67,119.2,200.59,103.7,200.78,87.83Z"/></g></g></g></g></svg>