<svg xmlns="http://www.w3.org/2000/svg" viewBox="0 0 288 288"><defs><style>.cls-1{isolation:isolate;}.cls-2{fill:#ce9e3e;}.cls-3{fill:#f4bf56;}.cls-4{fill:#fff;mix-blend-mode:soft-light;}</style></defs><title>hair_02_blondeМонтажная область 36 копия</title><g class="cls-1"><g id="hair"><g id="hair02"><g id="hair02_blonde" data-name="hair02 blonde"><path class="cls-2" d="M198.55,101.74a10,10,0,0,0-.7-1c-3.63-4.42-7.55-.16-7.55-.16a1.46,1.46,0,0,1,2.14,0,1.42,1.42,0,0,1,.34.51c4.19,12.47,2.55,32.93,2,45.31a1.11,1.11,0,0,0,2.1.52c5.42-11.37,7.71-31.62,7.93-46.08,0-1.77,0-3.46,0-5a1.56,1.56,0,0,1,.06-.45c-.47,1.1-1,3.52-1.84,5.44C202,103.36,200.62,105,198.55,101.74Z"/><path class="cls-2" d="M87.69,90.48A17.65,17.65,0,0,0,84,94.35c.26,0,.23,1.69.26,2.28,0,.84.11,1.69.11,2.53q.13,2.71.3,5.42.19,3,.41,6,.24,3.18.51,6.36t.58,6.5q.3,3.2.64,6.4.32,3,.69,6.07.34,2.76.72,5.52c.22,1.58.46,3.17.74,4.74q.1.59.21,1.18a1.1,1.1,0,0,0,2.18-.14c.37-9.93-1.59-36.75,1.52-42.34a.46.46,0,0,1,.86.26,4.64,4.64,0,0,0,.15,1.23C93.58,103.07,92,87,87.69,90.48Z"/><path class="cls-3" d="M203.88,72.59c-.77-.73-1.64-1.73,0-1,1.26.58,2.68.9,3.65-.19a5,5,0,0,0,.37-5.47A13.93,13.93,0,0,0,204,61.69c-4.76-3.9-10.11-7.64-16.19-8.37-.35,0-1-.26,0-.63,2.39-.88,5.66.81,7.82-.47s1.94-3.74-.47-4.86l-.06,0q-4.62-2.14-9.42-3.89t-9.76-3.11a123.44,123.44,0,0,0-12.38-2.71c-.93-.15-1.86-.25-2.8-.37s-1.88-.26-2.83-.34a3.18,3.18,0,0,1-1.91-.5c-.88-.84,1.56-1.42,2-1.58a31.2,31.2,0,0,1,4.45-.93,5.28,5.28,0,0,0,3.22-1.49,2.15,2.15,0,0,0-.21-2.73c-.71-.93-2.06-1-3.24-1A62.09,62.09,0,0,0,138.71,34c-5.5,2.43-10.69,5.69-16.54,7.11-6.16,1.49-12.6.85-18.94,1-5.22.1-10.72.86-15.13,3.48a1.78,1.78,0,0,0,.23,3.2,31.9,31.9,0,0,0,8.91,2,.49.49,0,0,1,.1,1,27.57,27.57,0,0,0-11.77,7.12,10.35,10.35,0,0,0-3,4.95,4.71,4.71,0,0,0,2,5.08A2.42,2.42,0,0,0,87,68.52a.86.86,0,0,1,.24-.13c.61-.15,0,.88-.05,1-.46.74-1.1,1.36-1.59,2.09a21.39,21.39,0,0,0-1.88,3.65,31.41,31.41,0,0,0-2.4,9.76,29.7,29.7,0,0,0,.86,10c.36,1.35.88.7,1.13.38a6,6,0,0,0,.53-.78c.08-.14.13-.17.19-.17a17.65,17.65,0,0,1,3.66-3.87C92,87,93.58,103.07,93.92,106.37a4.77,4.77,0,0,0,.35,1c.72,1.42,1.93,1.27,3.33-.25,4.65-5.07,2.74-23.53,5.47-22.92S103.7,88,104.2,90a3.27,3.27,0,0,0,3.63,2.64c2-.42,2.84-3,3.53-5a19.76,19.76,0,0,1,9-10.71,1,1,0,0,1,1.46,1.14,11.91,11.91,0,0,0-.29,2.81.78.78,0,0,0,1.36.54,24.79,24.79,0,0,1,6.49-4.66c2.83-1.29,6.68-2.16,9.78-1.45,2.65.61,4.43,2.65,6.3,4.48q5.1,5,10.21,10c.52.5,1.16,1,1.87.89.89-.2,1.16-1.37.94-2.26a9,9,0,0,1-.65-2.63c.14-2,2.92-2.76,4.63-1.77s2.52,3,3.18,4.83a15.24,15.24,0,0,0,1.59,3.5,2,2,0,0,0,3.18.08c2.22-2.93,1.94-8.72,6-9.13a4.56,4.56,0,0,1,4.23,2.33,28.37,28.37,0,0,1,4,15.53,1.9,1.9,0,0,0,2.83,1.74,12.82,12.82,0,0,0,2.82-2.3s3.92-4.26,7.55.16a10,10,0,0,1,.7,1c2.06,3.23,3.47,1.62,4.5-.85.8-1.92,1.37-4.34,1.84-5.44a1.57,1.57,0,0,1,2.5-.77,7.81,7.81,0,0,1,1.44,1.47.87.87,0,0,0,1.55-.38C211.73,87.5,209.91,78.28,203.88,72.59Z"/><path class="cls-3" d="M89.19,147.35a1.1,1.1,0,0,0,2.18-.14c.31-8.15-1-27.64.3-37.48a30.78,30.78,0,0,0-7-5.73c0,.19,0,.38,0,.57q.19,3,.41,6,.24,3.18.5,6.36t.58,6.5q.3,3.2.64,6.4.32,3,.69,6.07.33,2.76.72,5.52c.22,1.58.46,3.17.74,4.74Q89.09,146.77,89.19,147.35Z"/><path class="cls-3" d="M199.67,117.62a6.08,6.08,0,0,1-4.39-2c.73,10.7-.11,22.58-.46,30.85a1.11,1.11,0,0,0,2.1.52c3.8-8,6.06-20.33,7.15-32C202.71,116.09,201.35,117.52,199.67,117.62Z"/><path class="cls-4" d="M139.53,52.6a36.27,36.27,0,0,1,13-4.94,43.63,43.63,0,0,1,14.13-.29,34.84,34.84,0,0,1,13.44,5,26.29,26.29,0,0,1,9.4,10.4c-4.1-2.34-7.68-4.6-11.7-6a61.16,61.16,0,0,0-12.11-3.14,106.47,106.47,0,0,0-12.74-1C148.61,52.47,144.19,52.55,139.53,52.6Z"/><path class="cls-4" d="M122.09,52.91c-2.72.84-5.13,1.47-7.41,2.14a49.92,49.92,0,0,0-6.28,2.24,23.06,23.06,0,0,0-5.35,3.29c-1.82,1.31-3.25,3.16-5.32,5.21a11.93,11.93,0,0,1,1.42-8.31,14.14,14.14,0,0,1,6.62-5.93,17.55,17.55,0,0,1,8.49-1.42A15.06,15.06,0,0,1,122.09,52.91Z"/><path class="cls-4" d="M132.32,49.88A9,9,0,0,1,133.44,45a12.28,12.28,0,0,1,3.15-3.82A10.76,10.76,0,0,1,146,38.82c-1.25,1.26-2.43,2.1-3.52,3l-3.21,2.6L136,47.08C134.9,48,133.76,48.89,132.32,49.88Z"/><path class="cls-4" d="M130.37,60.44a27.11,27.11,0,0,1,11.22-2.51,31.41,31.41,0,0,1,11.59,1.9A24.33,24.33,0,0,1,163,66.76a17.94,17.94,0,0,1,4.08,10.93c-2.63-2.92-4.83-5.48-7.58-7.38a41.11,41.11,0,0,0-8.65-4.58,82.2,82.2,0,0,0-9.81-2.88Z"/></g></g></g></g></svg>