<svg xmlns="http://www.w3.org/2000/svg" viewBox="0 0 288 288"><defs><style>.cls-1{isolation:isolate;}.cls-2{fill:#ce9e3e;}.cls-3{fill:#f4bf56;}.cls-4,.cls-5{mix-blend-mode:soft-light;}.cls-5,.cls-6{fill:#fff;}</style></defs><title>hair_04_blondeМонтажная область 36 копия</title><g class="cls-1"><g id="hair"><g id="hair03"><g id="hair03_blonde" data-name="hair03 blonde"><path class="cls-2" d="M207.07,77.42c.33,2.13,0,3.79-2,3.69a3.91,3.91,0,0,0-1.19,0c-.92.25-1,1.51-.83,2.43a10,10,0,0,0,3.17,5.27,26.36,26.36,0,0,1,2.41,2,3.22,3.22,0,0,1,.92,2.87,3,3,0,0,1-2.72,2,9,9,0,0,1-3.51-.61,21.75,21.75,0,0,1,2.53,5.35c1.76,6.64-1.86,15.22-3.39,21.61l-4.89,20.37a7.36,7.36,0,0,1-1.46,3.4,2.57,2.57,0,0,1-3.37.51,3.72,3.72,0,0,1-.89-2.91l-.15-15.58c.62,1.29-.93,2.84-2.35,2.59a3.45,3.45,0,0,1-2.52-3.13,11.32,11.32,0,0,1,.66-4.22,58,58,0,0,0,2.08-14.59c0-1.5.23-11.57-1.35-11.7-1.15-.1-1.32,1.93-2.44,2.21-.78.2-1.48-.65-1.51-1.44a6.51,6.51,0,0,1,.62-2.29c1.77-5.13-.08-14.19-1.81-19.18-1.82-5.21-4.57-11-1.39-16.35s9.25-4.6,13.89-1.66c4.11,2.61,6.76,6.76,8.66,11.12A37.79,37.79,0,0,1,207.07,77.42Z"/><path class="cls-2" d="M92,127.25a1.59,1.59,0,0,0-.25.6,4.13,4.13,0,0,0,.23,1.8A36.75,36.75,0,0,1,93.3,139a8.76,8.76,0,0,1-.51,3.5,3.56,3.56,0,0,1-2.59,2.23,3.7,3.7,0,0,1-3.68-2.48,10.73,10.73,0,0,1-.4-4.71c.18-2.87.24-7-1-9.63s-2.78-1.86-5-2.79a3,3,0,0,1-1.44-3.31,16.43,16.43,0,0,1,1.42-3.61c1.51-3.56.52-7.29,1.57-10.93,1-3.42,2.23-6.71,5.43-8.69s8.72-2.33,10.45,1.57c1.27,2.87-1.24,7.42-1.91,10.18a29.7,29.7,0,0,0-.78,7.35c0,1.57-.46,4,.18,5.4a8,8,0,0,1,1,2.41c.08.87-.54,1.89-1.42,1.79-.56-.06-1-.56-1.57-.58A1.16,1.16,0,0,0,92,127.25Z"/><path class="cls-3" d="M184.56,61.84A34.41,34.41,0,0,0,180,42.75a33.38,33.38,0,0,0-6.07-7.9c-2.23-2.07-4.25-4.5-6.65-6.4a5.29,5.29,0,0,0-2.84-1.34A2.19,2.19,0,0,0,162,28.78c-.3,2.47,6.25,4,4.43,6.61-.61.87-2,.59-2.94.15-2.47-1.11-4.54-2.82-7-4-2.72-1.26-5.53-2.38-8.36-3.38a103.07,103.07,0,0,0-19.35-4.81c-2.24-.33-5.1-.26-6,1.79a3.66,3.66,0,0,0,1.46,4.21A10.85,10.85,0,0,0,128.77,31c-10-1.91-21.31,2.59-29.05,8.58a3.21,3.21,0,0,0-1.3,1.63c-.56,2.29,6.39,3.27,8,4.31-1.34-.87-10.59,2.6-12.21,3.44a47.52,47.52,0,0,0-10,7.54c-6.07,5.56-12,12.27-20.37,14.26-1,.25-2.26.54-2.68,1.51-.56,1.29.71,2.6,1.91,3.34,4.24,2.59,8.71,3,13.55,3,1.26,3.67-3.39,10.94-4.79,14.31a7.19,7.19,0,0,0-.78,3.2c.18,2.56,3.14,4.18,5.71,3.91s4.78-1.86,6.85-3.39c2,2.29.58,5.76-.57,8.56s-1.42,6.9,1.42,8a5.94,5.94,0,0,0,3.52-.1,47.21,47.21,0,0,0,31.24-26.15c.57-1.29,1.21-2.73,2.51-3.27,1.79-.75,3.79.81,4.32,2.48.62,2-1.62,3.63-.24,5.42,2.14,2.78,8.06-.81,10.08-2.15a22,22,0,0,0,8-9.43c1.05-2.44,2.95-5.71,5.39-4.64,1.76.77,1.82,3.15,2.49,4.94,1.68,4.45,7.72,5.4,12.38,4.32,12.8-3,22-16.73,19.81-29.6"/><g class="cls-4"><path class="cls-5" d="M169.28,55.78a44.2,44.2,0,0,0-11.12-7.24A36.47,36.47,0,0,0,133,46.71,44.51,44.51,0,0,0,121,52.24a26.4,26.4,0,0,1,11-8.46,30.05,30.05,0,0,1,27.63,2A26.38,26.38,0,0,1,169.28,55.78Z"/></g><g class="cls-4"><path class="cls-6" d="M154,60.82a40.1,40.1,0,0,0-14.91,1.57,33.83,33.83,0,0,0-12.58,7c-3.68,3.17-6.79,7.13-10.1,11A148.86,148.86,0,0,1,106,91.86a148.07,148.07,0,0,1,7.93-13.24,59.4,59.4,0,0,1,10-12.17,30.45,30.45,0,0,1,14.48-7.06A27.58,27.58,0,0,1,154,60.82Z"/></g><g class="cls-4"><path class="cls-6" d="M107.43,68a15.56,15.56,0,0,1-3.42,6.4,21,21,0,0,1-12.7,7A15.72,15.72,0,0,1,84,80.82c2.3-.86,4.41-1.6,6.45-2.48a63.31,63.31,0,0,0,5.87-2.82,61.74,61.74,0,0,0,5.53-3.42C103.72,70.86,105.48,69.47,107.43,68Z"/></g><path class="cls-3" d="M202.42,122c1-4,2.73-8.84,3.49-13.53-1.22.72-2.3,1-3-2.45-.51-2.44-1.62-9.45-5.46-9,0,2,0,5.33-2.91,4.45-2.41-.74-1.46-3.3-2.35-5.05-1.76-3.49-3.95-1.49-5,1,.27-.4.58-.72,1-.68,1.57.14,1.37,10.21,1.35,11.7A58.05,58.05,0,0,1,187.45,123a11.31,11.31,0,0,0-.66,4.22,3.45,3.45,0,0,0,2.52,3.13,2.27,2.27,0,0,0,2.36-1.4q.07,7.2.14,14.39a3.72,3.72,0,0,0,.89,2.91,2.57,2.57,0,0,0,3.37-.51,7.36,7.36,0,0,0,1.46-3.4Z"/></g></g></g></g></svg>