<svg xmlns="http://www.w3.org/2000/svg" viewBox="0 0 288 288"><defs><style>.cls-1{isolation:isolate;}.cls-2{fill:#e8841e;}.cls-3{fill:#a95a18;}.cls-4{mix-blend-mode:soft-light;}.cls-5{fill:#fff;}</style></defs><title>hair_01_redМонтажная область 36 копия</title><g class="cls-1"><g id="hair"><g id="hair01"><g id="hair01_red" data-name="hair01 red"><path class="cls-2" d="M105,46.79l8.89,7-8.38,9C95.53,73.62,93.76,89,92.47,103.89c-.86,10,.43,19.73,2.19,29.75,0,0,1.54,16.31-2.82,15.13-6.72-1.81-7.7-12.88-9-19.19-2.15-10.8-3.88-21.5-3.65-32.31C79.64,77.55,84.46,46.16,105,46.79Z"/><path class="cls-3" d="M112.41,55.42A8.59,8.59,0,0,0,111.26,53a36.86,36.86,0,0,0-2.81-3.54L105,46.79c-8.42-.26-14.19,4.85-18.11,12.32a9.85,9.85,0,0,0,3,5.89c2.26,2.15,6.75,4.09,10.54,4.81a37,37,0,0,1,5.06-7Z"/><path class="cls-3" d="M180.53,46.79l-8.89,7,8.38,9C190,73.62,191.8,89,193.09,103.89c.86,10-.43,19.73-2.19,29.75,0,0-1.54,16.31,2.82,15.13,6.72-1.81,7.7-12.88,9-19.19,2.15-10.8,3.88-21.5,3.65-32.31C205.92,77.55,201.1,46.16,180.53,46.79Z"/><path class="cls-2" d="M142.75,71.27s-37.6-12-46.76-20c-7.07-6.15-5-18-1.28-25.12C102.24,11.62,123.9,12.25,139,15a129,129,0,0,1,43.88,16.62c5.47,3.34,13.21,6.78,12.88,13.19-.4,7.72-5.73,13-12.42,16.25-6.38,3.06-13.27,4.86-20.16,6.39-3.36.75-6.75,1.38-10.09,2.17C150.16,70.34,145.77,72,142.75,71.27Z"/><g class="cls-4"><path class="cls-5" d="M141.16,62A49.06,49.06,0,0,1,125.36,58c-5-2.22-10-5.12-13.76-9.92a15.94,15.94,0,0,1-3.48-8.84,13.3,13.3,0,0,1,.08-2.35,11.62,11.62,0,0,1,.32-2.26,19.15,19.15,0,0,1,.63-2.25c.33-.73.61-1.47,1-2.16a12.74,12.74,0,0,1,7.16-5.72,15.13,15.13,0,0,1,8.38-.15,20.82,20.82,0,0,0-7,3,10.13,10.13,0,0,0-4,5.06,15.51,15.51,0,0,0-.54,6.37,8.72,8.72,0,0,0,.86,2.81,13.31,13.31,0,0,0,1.67,2.71c2.74,3.54,6.84,6.57,11.07,9.39S136.54,59.11,141.16,62Z"/></g><g class="cls-4"><path class="cls-5" d="M148.69,58.7a14.17,14.17,0,0,1-5.24-5.33A15,15,0,0,1,141.34,46a11,11,0,0,1,3-7.89,8.85,8.85,0,0,1,7.5-2.47c-1.6,2.14-2.91,3.68-3.43,5.36a14.76,14.76,0,0,0-.68,4.93,52,52,0,0,0,.46,5.86A69,69,0,0,1,148.69,58.7Z"/></g></g></g></g></g></svg>