<svg xmlns="http://www.w3.org/2000/svg" viewBox="0 0 288 288"><defs><style>.cls-1{fill:#b7e49a;}.cls-2{fill:#8ed473;}.cls-3{fill:#d45d50;}</style></defs><title>clothes06Монтажная область 46</title><g id="clothes"><g id="clothes06"><path class="cls-1" d="M187.48,288h22.06a7.66,7.66,0,0,0,.27-.81c.67-3-.35-6.11-1-9.13-.92-4.59-.86-9.31-1.24-14-.51-6.31-1.84-12.71-7.79-16a27.32,27.32,0,0,0-5.5-2.1,14.81,14.81,0,0,0-4.54-.86c-4,.09-4.71,3.57-5.9,6.72-6.09,16.12-23.58,26.81-40.8,26C127.31,277,112.7,267.11,105,253.5c-1.53-2.69-2.82-6.79-5.84-8.17A8.48,8.48,0,0,0,94,244.9a13.3,13.3,0,0,0-10,7.58c-1.8,4-2,8.54-2.1,12.94l-.46,15.14c-.07,2.31-.12,4.73.89,6.81a6.92,6.92,0,0,0,.39.64h21.65a34.25,34.25,0,0,1,5,0h73.08A31.64,31.64,0,0,1,187.48,288Z"/><path class="cls-2" d="M135.21,283.87a46.5,46.5,0,0,0,36-7.6A57.18,57.18,0,0,0,185,261.76a64.5,64.5,0,0,0,5.27-8.58c1.08-2.29,2.76-5.48,1.71-8.05a2.46,2.46,0,0,0-2.28-1.62c-1.32.08-2.15,1.41-2.76,2.59l-4.62,9a42.32,42.32,0,0,1-39.24,22.66c-17.21-.85-33.14-12.56-40.16-28.29A34.55,34.55,0,0,0,99.49,244a3.3,3.3,0,0,0-1.26-1.25,2.28,2.28,0,0,0-1.6,0,3.48,3.48,0,0,0-2.36,2.72c-.26,1.78,1.61,3.88,2.47,5.39q2,3.57,4.34,7a98.16,98.16,0,0,0,10.07,12.54,46.75,46.75,0,0,0,20.93,12.74Q133.63,283.54,135.21,283.87Z"/><path class="cls-3" d="M268.12,288a21.44,21.44,0,0,0-.28-2.22c-.83-4.8-1.69-9.69-4-14-3-5.62-8.29-9.75-14-12.51s-12-4.28-18.19-5.78l-19-4.59c-2.6-.63-5.41-1-7.7-2.37-1.61-1-4.3-3.07-5.9-.75-1.36,2,1.34,7,1.86,9.09a119,119,0,0,1,3.43,27.19c0,1.63-.33,3.78-.5,5.93Z"/><path class="cls-3" d="M83,246.53c-2.3,1.4-5.1,1.75-7.7,2.37l-19,4.59c-6.2,1.5-12.45,3-18.19,5.78s-11,6.9-14,12.51c-2.3,4.29-3.16,9.18-4,14a21.51,21.51,0,0,0-.28,2.22H84.15c-.16-2.15-.51-4.3-.5-5.93a119.05,119.05,0,0,1,3.43-27.19c.52-2.12,3.22-7.12,1.86-9.09C87.34,243.46,84.65,245.56,83,246.53Z"/></g></g></svg>