<svg xmlns="http://www.w3.org/2000/svg" viewBox="0 0 288 288"><defs><style>.cls-1{fill:#b75913;}</style></defs><title>eyebrows_02_redМонтажная область 36 копия</title><g id="eyebrows"><g id="eyebrows02"><g id="eyebrows02_red" data-name="eyebrows02 red"><path class="cls-1" d="M99.57,121.69c1.9-2.15,5.76-3.11,8.09-3.89,5.39-1.81,10.85-3.11,16.6-2.69,13,.94,7.57,10.53,2.59,11.38-4.09.7-29.47,4.3-28.35-2.61A4.32,4.32,0,0,1,99.57,121.69Z"/><path class="cls-1" d="M185.95,121.69c-1.9-2.15-5.76-3.11-8.09-3.89-5.39-1.81-10.85-3.11-16.6-2.69-13,.94-7.57,10.53-2.59,11.38,4.09.7,29.47,4.3,28.35-2.61A4.32,4.32,0,0,0,185.95,121.69Z"/></g></g></g></svg>