<svg xmlns="http://www.w3.org/2000/svg" viewBox="0 0 288 288"><defs><style>.cls-1{fill:#7a4211;}</style></defs><title>eyebrows_03_brownМонтажная область 36 копия</title><g id="eyebrows"><g id="eyebrows03"><g id="eyebrows03_brown" data-name="eyebrows03 brown"><path class="cls-1" d="M152.74,126.64c.65-.24-.05-.93-.62-1.81-.7-1.11-.4-3-.16-4.26.19-1,.39-2.33,1.42-2.78,1.53-.68,1.4,1,2,1.08,1.87.27,1.86-2.43,4-.73.8.64,0,1.46,1.51,1.52a9.48,9.48,0,0,0,3.75-1.38c4.53-2.93,12-3.24,16.47-.62,1.5.89,6.41,5.63,4.46,7.72-1.76,1.88-6.62-2.21-8.84-2.06-4.33.29-9.39,2.84-13.49,4.34-2.53.93-5,1.8-7.67,1.48-.93-.11-4.64-.54-3.9-2.4A3,3,0,0,0,152.74,126.64Z"/><path class="cls-1" d="M132.77,126.64c-.65-.24.05-.93.62-1.81.7-1.11.4-3,.16-4.26-.19-1-.39-2.33-1.42-2.78-1.53-.68-1.4,1-2,1.08-1.87.27-1.86-2.43-4-.73-.8.64,0,1.46-1.51,1.52a9.48,9.48,0,0,1-3.75-1.38c-4.53-2.93-12-3.24-16.47-.62-1.5.89-6.41,5.63-4.46,7.72,1.76,1.88,6.62-2.21,8.84-2.06,4.33.29,9.39,2.84,13.49,4.34,2.53.93,5,1.8,7.67,1.48.93-.11,4.64-.54,3.9-2.4A3,3,0,0,1,132.77,126.64Z"/></g></g></g></svg>