<svg xmlns="http://www.w3.org/2000/svg" viewBox="0 0 288 288"><defs><style>.cls-1{fill:#30323d;}</style></defs><title>eyebrows_01_blackМонтажная область 36 копия</title><g id="eyebrows"><g id="eyebrows01"><g id="eyebrows01_black" data-name="eyebrows01 black"><path class="cls-1" d="M184.15,125.27l.53-3.9a1.87,1.87,0,0,0-1.08-2.51c-4.84-2-15.54-7.27-26.21-3.88a1.87,1.87,0,0,0-1.3,1.91l-.71,5.84a2,2,0,0,0,2.32,1.78,60.31,60.31,0,0,1,24,1.81A2.07,2.07,0,0,0,184.15,125.27Z"/><path class="cls-1" d="M101.34,125.27l-.53-3.9a1.87,1.87,0,0,1,1.08-2.51c4.84-2,15.54-7.27,26.21-3.88a1.87,1.87,0,0,1,1.3,1.91l.71,5.84a2,2,0,0,1-2.32,1.78,60.31,60.31,0,0,0-24,1.81A2.07,2.07,0,0,1,101.34,125.27Z"/></g></g></g></svg>