<svg xmlns="http://www.w3.org/2000/svg" xmlns:xlink="http://www.w3.org/1999/xlink" width="50" height="50"><symbol id="a" viewBox="-7 -9.5 14 19"><path fill="#46BE8A" d="M7 7.5c0 .55-.45 1-1 1H-6c-.55 0-1-.45-1-1v-16c0-.55.45-1 1-1H6c.55 0 1 .45 1 1v16z"/><path fill="#3A996B" d="M7 3H-7v1H7z"/><path fill="#F09A36" d="M3.5-4.5h-2v11h2z"/><path fill="#B97029" d="M4.5-4.5H3v11h1.505z"/><path fill="#F96868" d="M4.5 9.5h-3v-3h3z"/><path fill="#F6BF81" d="M3-7.5l-1.5 3h3z"/><path fill="#4C4C4C" d="M3.5-6.5h-1l.5-1z"/></symbol><use xlink:href="#a" width="14" height="19" x="-7" y="-9.5" transform="matrix(1 0 0 -1 25 25)" overflow="visible"/></svg>