<svg xmlns="http://www.w3.org/2000/svg" viewBox="0 0 288 288"><defs><style>.cls-1{fill:#fff;}.cls-2{fill:#303030;}.cls-3{fill:#e6ad92;}</style></defs><title>eyes_03Монтажная область 36 копия</title><g id="eyes"><g id="eyes03"><path class="cls-1" d="M127.83,135.19a9.8,9.8,0,1,1-12-6.9A9.73,9.73,0,0,1,127.83,135.19Z"/><ellipse class="cls-2" cx="118.4" cy="137.79" rx="3.67" ry="3.65" transform="translate(-9.54 8.81) rotate(-4.1)"/><ellipse class="cls-1" cx="116.57" cy="137.22" rx="1.11" ry="1.1" transform="matrix(1, -0.07, 0.07, 1, -9.5, 8.68)"/><path class="cls-3" d="M115.79,128.09a9.9,9.9,0,0,0-7.32,10.76l19-5A10,10,0,0,0,115.79,128.09Z"/><path class="cls-1" d="M157.68,135.19a9.8,9.8,0,1,0,12-6.9A9.73,9.73,0,0,0,157.68,135.19Z"/><ellipse class="cls-2" cx="167.11" cy="137.79" rx="3.65" ry="3.67" transform="translate(17.74 294.63) rotate(-85.9)"/><ellipse class="cls-1" cx="165.3" cy="137.22" rx="1.1" ry="1.11" transform="matrix(0.07, -1, 1, 0.07, 16.63, 292.3)"/><path class="cls-3" d="M169.72,128.09A9.9,9.9,0,0,1,177,138.85l-19-5A10,10,0,0,1,169.72,128.09Z"/></g></g></svg>