<svg xmlns="http://www.w3.org/2000/svg" viewBox="0 0 288 288"><defs><style>.cls-1{fill:#b75913;opacity:0.25;}</style></defs><title>beard_03_redМонтажная область 36 копия</title><g id="beard"><g id="beard03"><path id="beard03_red" data-name="beard03 red" class="cls-1" d="M142.74,219.25a28.94,28.94,0,0,0,7.95-1.06c4.93-1.39,9-4.47,12.84-7.67,9.45-7.79,17.89-15.76,22.95-27.22,3.65-8.29,5.78-18.17,7.3-27.6a1.16,1.16,0,0,0-2.18-.7c-8.2,15.41-13.67,23.1-48.84,23.1-34.62,0-40-7.84-49-23.79a1.16,1.16,0,0,0-2.17.72c1.53,9.63,3.67,19.78,7.41,28.27,4.87,11,13.73,19.62,22.95,27.22,3.7,3.05,7.56,6.08,12.24,7.47A30.46,30.46,0,0,0,142.74,219.25ZM120.2,187.07c0-11.28,9.91-5.74,22.54-5.74S166,175.68,166,187.07c0,6.12-10.24,11.08-22.88,11.08S120.2,193.19,120.2,187.07Z"/></g></g></svg>