<svg xmlns="http://www.w3.org/2000/svg" viewBox="0 0 288 288"><defs><style>.cls-1{fill:#753f11;opacity:0.25;}</style></defs><title>beard_03_brownМонтажная область 36 копия</title><g id="beard"><g id="beard03"><path id="beard03_brown" data-name="beard03 brown" class="cls-1" d="M142.74,219.24a29.32,29.32,0,0,0,8.5-1.25c4.69-1.43,8.56-4.39,12.29-7.47,9.45-7.79,17.89-15.76,22.95-27.22,3.65-8.29,5.78-18.17,7.3-27.6a1.16,1.16,0,0,0-2.18-.7c-8.2,15.41-13.67,23.1-48.84,23.1-34.62,0-40-7.84-49-23.79a1.16,1.16,0,0,0-2.17.72c1.53,9.63,3.67,19.78,7.41,28.27,5.05,11.46,13.5,19.42,22.95,27.22,4.51,3.72,9.08,6.95,14.92,8.13A29.52,29.52,0,0,0,142.74,219.24ZM120.2,187.07c0-11.28,9.91-5.74,22.54-5.74S166,175.68,166,187.07c0,6.12-10.24,11.08-22.88,11.08S120.2,193.19,120.2,187.07Z"/></g></g></svg>