<svg xmlns="http://www.w3.org/2000/svg" viewBox="0 0 288 288"><defs><style>.cls-1{isolation:isolate;}.cls-2{fill:#f4bf56;}.cls-3{fill:#fff;opacity:0.7;mix-blend-mode:soft-light;}</style></defs><title>beard_01_blondeМонтажная область 36 копия</title><g class="cls-1"><g id="beard"><g id="beard01"><g id="beard01_blonde" data-name="beard01 blonde"><path id="beard_black" data-name="beard black" class="cls-2" d="M197.16,141.38c-.31-1.48-1.81-5.57-3.7-3-1.27,1.71-1,4-1.56,5.9a42.44,42.44,0,0,0-1.53,6.51c-.67,4.82-1.65,9.62-2.45,14.41-1.05,6.27-4.21,14.27-9.1,18.63a9.78,9.78,0,0,1-6.21,2.86c-2.43,0-8-2.28-6.07-5.59.6-1,2.15-1.05,2.82-2.06a4,4,0,0,0,.7-2.64c0-.47-.39-2.3-1.19-1.7-.25.18-.19.5-.29.76a1.83,1.83,0,0,1-.41.59,5.21,5.21,0,0,1-4.48,1.19c-1.5-.28-2.46-1.51-3.78-2.17a10.09,10.09,0,0,0-6.25-1.08,25.59,25.59,0,0,0-6.63,2.34c-1.2.59-2.45,1.63-3.76,1.92a2.36,2.36,0,0,1-.4.05,3,3,0,0,1-1.2-.23c-1.28-.5-2.42-1.42-3.65-2a21.21,21.21,0,0,0-4-1.58,11.27,11.27,0,0,0-8.28.63c-1,.53-1.79,1.36-2.81,1.85a4.82,4.82,0,0,1-5.29-.81,1.89,1.89,0,0,1-.56-.77c-.1-.26-.14-.61-.44-.71-.78-.27-1,1.43-1.07,1.91a4,4,0,0,0,.71,2.5c.67,1,2.21,1,2.82,2.06,1.91,3.31-3.64,5.63-6.07,5.59a9.78,9.78,0,0,1-6.21-2.86c-4.89-4.36-8-12.36-9.1-18.63-.8-4.79-1.78-9.6-2.45-14.41a42.45,42.45,0,0,0-1.53-6.51c-.58-1.93-.29-4.18-1.56-5.9-1.9-2.55-3.4,1.54-3.7,3-.53,2.54-.07,5.12-.07,7.69,0,11.23-.12,22.38,3.5,33.15a62.22,62.22,0,0,0,9.93,19c18.4,23.09,38.87,26.76,40.95,26.87h.11c2.08-.11,22.55-3.78,40.95-26.87a62.23,62.23,0,0,0,9.93-19c3.62-10.77,3.5-21.92,3.5-33.15C197.22,146.51,197.68,143.93,197.16,141.38Zm-42.53,52c-4.22,2.22-9.14,2.72-13.85,2.62-7.92-.17-18.76-4.71-18.3-14.16.15-3.15,3.57-4.38,6.37-3.94,3.06.48,5.88,1.62,9,1.84a58.06,58.06,0,0,0,9.34,0c3.8-.33,7.55-1.26,11.38-1.27,2,0,3.11.6,3.58,2.35C163.54,186.08,158.87,191.19,154.63,193.43Z"/><path class="cls-3" d="M143,219.38c-.55,0-1.09-.07-1.61-.11a28.88,28.88,0,0,1-8.2-1.95c-2.54-1-4.62-2.63-7-3.8-5.09-2.47-9.81-6.55-13.72-10.35a59,59,0,0,1-4.88-5.35c-1.23-1.54,1.3-1.66,2.26-1.47a14.85,14.85,0,0,0,4.48.2c1.33-.14,2.74-.88,4-.21,1.42.75,2.54,2.22,3.85,3.17a29.67,29.67,0,0,0,4.78,2.79c9.75,4.54,23.32,4.48,32.75-.81a14.52,14.52,0,0,0,3.55-2.69c1.23-1.32,2.24-2.43,4.3-2.61a29.49,29.49,0,0,1,4.12.44c1.84.1,3.56-.48,5.34-.47a1,1,0,0,1,1,1.66,68.17,68.17,0,0,1-21,17.06c-2.63,1.39-5.22,2.67-8,3.82A14.13,14.13,0,0,1,143,219.38Z"/></g></g></g></g></svg>