<svg xmlns="http://www.w3.org/2000/svg" viewBox="0 0 288 288"><defs><style>.cls-1{fill:#ce9e3e;opacity:0.55;}</style></defs><title>beard_03_blondeМонтажная область 36 копия</title><g id="beard"><g id="beard03"><path id="beard03_blonde" data-name="beard03 blonde" class="cls-1" d="M142.74,219.24a31.54,31.54,0,0,0,4.62-.34c6.86-1,11-4.13,16.17-8.38,9.45-7.79,17.89-15.76,22.95-27.22,3.65-8.29,5.78-18.17,7.3-27.6a1.16,1.16,0,0,0-2.18-.7c-8.2,15.41-13.67,23.1-48.84,23.1-34.62,0-40-7.84-49-23.79a1.16,1.16,0,0,0-2.17.72c1.53,9.63,3.67,19.78,7.41,28.27,5.05,11.46,13.5,19.42,22.95,27.22,5.15,4.25,9.31,7.36,16.17,8.38A31.54,31.54,0,0,0,142.74,219.24ZM120.2,187.07c0-11.28,9.91-5.74,22.54-5.74S166,175.68,166,187.07c0,6.12-10.24,11.08-22.88,11.08S120.2,193.19,120.2,187.07Z"/></g></g></svg>