<svg xmlns="http://www.w3.org/2000/svg" viewBox="0 0 288 288"><defs><style>.cls-1{fill:#8cf;}.cls-2{fill:#ff66a1;}</style></defs><title>clothes07Монтажная область 46</title><g id="clothes"><g id="clothes07"><path class="cls-1" d="M72.07,254.22c.36-4.6,7.45-4.64,10.87-5.79,4.68-1.57,3.42,2.94,3.26,5.83a60.24,60.24,0,0,0,.24,13.22,20.33,20.33,0,0,0,5.76,11.69,1.82,1.82,0,0,1,.69,1c.11.84-1,1.3-1.81,1.39a28.77,28.77,0,0,1-7.82-.57l-11.4-1.88a4.2,4.2,0,0,1-2.32-.88c-1.09-1.06,2.4-8.42,2.73-10.36a38.79,38.79,0,0,0,.54-7.45c0-2-.82-4.08-.76-6Q72.06,254.34,72.07,254.22Z"/><path class="cls-1" d="M216,254.22c-.36-4.6-7.45-4.64-10.87-5.79-4.68-1.57-3.42,2.94-3.26,5.83a60.24,60.24,0,0,1-.24,13.22,20.33,20.33,0,0,1-5.76,11.69,1.82,1.82,0,0,0-.69,1c-.11.84,1,1.3,1.81,1.39a28.77,28.77,0,0,0,7.82-.57l11.4-1.88a4.2,4.2,0,0,0,2.32-.88c1.09-1.06-2.4-8.42-2.73-10.36a38.79,38.79,0,0,1-.54-7.45c0-2,.82-4.08.76-6Q216.06,254.34,216,254.22Z"/><path class="cls-2" d="M244,260.09a34.14,34.14,0,0,0-8.59,3.13c-28.51,13-60.6,15.88-92,16.27-9.81.12-19.63,0-29.42-.69-16.92-1.16-33.89-3.89-49.82-9.83a106.65,106.65,0,0,1-11.78-5.1c-2.61-1.35-5.43-4-8.38-4.46-6.47-1-14.58,5.18-18.42,9.73A29.22,29.22,0,0,0,18.85,288h250.3l0-.23c-1.07-6.85-2.88-13.79-7.06-19.35S250.88,259,244,260.09Z"/></g></g></svg>