<svg xmlns="http://www.w3.org/2000/svg" viewBox="0 0 288 288"><defs><style>.cls-1{fill:#303030;}.cls-2{fill:#1f1f1f;}.cls-3{fill:#fff;}</style></defs><title>clothes05Монтажная область 46</title><g id="clothes"><g id="clothes05"><path class="cls-1" d="M235.76,256.07c-2.3-.52-4-1.48-6.46-1.82-8.12-1.09-16.06-3.33-23.95-5-3.27-.69-6.16-2.25-9.41-3s-5.11-.59-7,1.53c-4,4.42-7.72,9.52-13.52,12.16a77.85,77.85,0,0,1-17,5.22,94,94,0,0,1-22.31.64c-7.4-.56-15.21-3.09-21.78-6.09-5.8-2.64-11.23-7.52-15.25-11.94-1.92-2.12-3.83-2.25-7-1.53s-6.15,2.29-9.41,3c-7.88,1.67-15.83,3.91-23.95,5-2.5.34-4.16,1.29-6.46,1.82-5.79,1.32-2.17,4.07-.62,7.39a42.54,42.54,0,0,1,3.55,15.13c.17,3.08-.34,6.31-.31,9.41H233.13c0-3.1-.48-6.32-.31-9.41a42.54,42.54,0,0,1,3.55-15.13C237.93,260.15,241.54,257.39,235.76,256.07Z"/><path class="cls-2" d="M136.06,285.46a20.31,20.31,0,0,0,6.62-11c.45-2,1.94-6.79-.24-8.3q-3.17-.08-6.32-.32c-7.4-.56-15.21-3.09-21.78-6.09-5.8-2.64-11.23-7.52-15.25-11.94l0,0c-.52-.43-1-.86-1.57-1.27-1.46-.81-3.1-.75-5.43-.23-2.56.58-4.91,1.66-7.39,2.43a22.25,22.25,0,0,0-1.61,6.73c-1.1,8.68,4.43,16,11.54,21.47,5.33,4.11,13.2,6.81,19.91,8.82a66.15,66.15,0,0,0,9.24,2.27h6.85A11.53,11.53,0,0,0,136.06,285.46Z"/><path class="cls-2" d="M173.45,285.73c6.71-2,14.58-4.71,19.91-8.82,7.1-5.48,12.64-12.79,11.54-21.47a22.18,22.18,0,0,0-1.62-6.75c-2.46-.77-4.79-1.84-7.34-2.42-2.39-.54-4.06-.6-5.56.29-.41.32-.81.65-1.21,1-.09.09-.17.16-.26.25-4,4.42-7.72,9.52-13.52,12.16a77.85,77.85,0,0,1-17,5.22,80.82,80.82,0,0,1-13,1c-2.11,1.55-.65,6.32-.2,8.27a20.32,20.32,0,0,0,6.62,11,11.53,11.53,0,0,0,5.47,2.54h6.85A66.16,66.16,0,0,0,173.45,285.73Z"/><path class="cls-3" d="M97.42,274.4c5,3.67,12.45,6.08,18.77,7.87s14.84,4.2,20.32-.24a18,18,0,0,0,6.24-9.82c.49-2,2.25-7.35-1.34-7.79-12.2-1.51-23.43-5.16-33.26-11.53-1.87-1.21-3.75-2.44-5.55-3.73-1.64-1.18-3.12-2.63-5.11-3.4a8.42,8.42,0,0,0-4.26-.28c-5.41.89-6.19,5.93-6.7,9.77C85.51,263,90.73,269.51,97.42,274.4Z"/><path class="cls-3" d="M190.53,274.4c-5,3.67-12.45,6.08-18.77,7.87s-14.84,4.2-20.32-.24a18,18,0,0,1-6.24-9.82c-.49-2-2.25-7.35,1.34-7.79,12.2-1.51,23.43-5.16,33.26-11.53,1.87-1.21,3.75-2.44,5.55-3.73,1.64-1.18,3.12-2.63,5.11-3.4a8.42,8.42,0,0,1,4.26-.28c5.41.89,6.19,5.93,6.7,9.77C202.44,263,197.23,269.51,190.53,274.4Z"/></g></g></svg>