<svg xmlns="http://www.w3.org/2000/svg" viewBox="0 0 288 288"><defs><style>.cls-1{fill:#6ecaca;}.cls-2{fill:#e5bbff;}.cls-3{fill:#2e97d4;}.cls-4{fill:#2e7588;}.cls-5{fill:none;stroke:#2e7588;stroke-miterlimit:10;stroke-width:0.5px;}</style></defs><title>clothes04Монтажная область 46</title><g id="clothes"><g id="clothes04"><path class="cls-1" d="M195,246.3a12.2,12.2,0,0,0-3.65,2.14l-26.72,20.21c-6.22,4.7-13,9.62-20.82,9.71-5.26.06-10.28-2.13-14.93-4.6a110.14,110.14,0,0,1-30-23.49c-1.08-1.2-2.54-3.88-4-4.58-1.74-.86-4.55.28-6.21.87-5.63,2-11.59,2.77-17.38,4.16-6.08,1.45-12.16,2.94-18.16,4.7-4.2,1.23-8.84,2.33-12.78,4.27-6.21,3.05-13.1,6.1-16.9,12.23-3.06,4.94-3.55,10.47-3.62,16.1H268.12c-1.63-7.93-3.54-16.26-9.11-22.12s-14.21-8.28-22.25-10.3l-35.25-8.85C199.37,246.19,197.11,245.66,195,246.3Z"/><path class="cls-2" d="M117.65,266.85c-2.22-1.55-4.36-3.21-6.46-4.92a36.64,36.64,0,0,1-7.32-6.5c-1.71-1.67-3.38-3.38-5-5.16-1.08-1.2-2.54-3.88-4-4.58-1.74-.86-4.55.28-6.21.87-5.63,2-11.59,2.77-17.38,4.16-6.08,1.45-12.16,2.94-18.16,4.7-4.2,1.23-8.84,2.33-12.78,4.27-4.09,2-8.46,4-12.06,6.93,5.9,5.86,9.41,13.85,13.53,21.4H93.21c.74-.62,1.5-1.22,2.24-1.84C102.3,280.45,112.5,274.16,117.65,266.85Z"/><path class="cls-2" d="M259.83,266.87c-.28-.33-.53-.67-.82-1-5.72-6-14.21-8.28-22.25-10.3l-35.25-8.85c-2.14-.54-4.4-1.07-6.51-.43a12.2,12.2,0,0,0-3.65,2.14l-4.15,3.14c-4.08,7.05-10,10.44-16.71,14.84,5,7.49,15.52,13.92,22.5,19.74.74.62,1.5,1.22,2.24,1.84h51.35C250.64,280.57,254.1,272.71,259.83,266.87Z"/><path class="cls-3" d="M142.79,274a9.19,9.19,0,0,0,2.37.29,9.62,9.62,0,0,0,3.23-.91A136.52,136.52,0,0,0,171.54,261q5.53-3.69,10.69-7.91c3.42-2.8,6.45-6,10.15-8.36a4.46,4.46,0,0,1,1.21-.61,3.31,3.31,0,0,1,2.35.39,2.29,2.29,0,0,1,1.14,1.07c.66,1.61-2.13,3.91-3.21,4.86-2.23,2-4.52,3.85-6.82,5.73q-6.75,5.55-13.79,10.73a180.22,180.22,0,0,1-15.95,9.89c-2.07,1.21-4.14,2.42-6.27,3.53a13.86,13.86,0,0,1-4.36,1.6,9.1,9.1,0,0,1-4.06-.65c-3.07-.91-6.1-1.93-9.13-2.94-1.31-.44-2.62-.88-3.89-1.41a90.12,90.12,0,0,1-16.18-9.19,71.5,71.5,0,0,1-13.61-11.85c-2.66-3.11-4.65-6.64-7-10a1.2,1.2,0,0,1-.28-.66c0-.48.53-.76,1-.92l2.1-.77a3,3,0,0,1,2.65-.11,3,3,0,0,1,.69.73A88.27,88.27,0,0,0,110.84,257a77.7,77.7,0,0,0,19.39,12.87A63,63,0,0,0,142.79,274Z"/><path class="cls-4" d="M95.19,247a3.1,3.1,0,0,1,3.27-2.2A6.41,6.41,0,0,1,97,246.1,6.56,6.56,0,0,1,95.19,247Z"/><path class="cls-4" d="M97.53,250a2.89,2.89,0,0,1,.88-1.48,2.85,2.85,0,0,1,1.55-.75,2.85,2.85,0,0,1-.88,1.48A2.88,2.88,0,0,1,97.53,250Z"/><path class="cls-4" d="M100,253.05a4.86,4.86,0,0,1,1.5-1.7,4.8,4.8,0,0,1,2.08-.9,4.8,4.8,0,0,1-1.5,1.7A4.86,4.86,0,0,1,100,253.05Z"/><path class="cls-4" d="M103.11,256.71a2.74,2.74,0,0,1,2.72-2.24,4.43,4.43,0,0,1-1.14,1.39A4.51,4.51,0,0,1,103.11,256.71Z"/><path class="cls-4" d="M106.31,260.63a3,3,0,0,1,3.16-2.75,13.56,13.56,0,0,1-1.49,1.48A14.17,14.17,0,0,1,106.31,260.63Z"/><path class="cls-4" d="M110.6,263.39a4.9,4.9,0,0,1,1.22-1.87,4.83,4.83,0,0,1,1.91-1.17,4.6,4.6,0,0,1-1.22,1.87A4.66,4.66,0,0,1,110.6,263.39Z"/><path class="cls-4" d="M114.44,267a2.88,2.88,0,0,1,.69-1.54,2.84,2.84,0,0,1,1.43-.89,2.67,2.67,0,0,1-.69,1.54A2.7,2.7,0,0,1,114.44,267Z"/><path class="cls-4" d="M118.78,269.65a3.12,3.12,0,0,1,.75-1.63,3.08,3.08,0,0,1,1.5-1,3.08,3.08,0,0,1-.75,1.63A3.12,3.12,0,0,1,118.78,269.65Z"/><path class="cls-4" d="M123.45,272.4a2.83,2.83,0,0,1,2.72-3.07,16.72,16.72,0,0,1-1.28,1.61A17.69,17.69,0,0,1,123.45,272.4Z"/><path class="cls-4" d="M130.16,275.35a3.13,3.13,0,0,1,.57-1.72,3.09,3.09,0,0,1,1.39-1.16,3.19,3.19,0,0,1-.57,1.72A3.23,3.23,0,0,1,130.16,275.35Z"/><path class="cls-4" d="M137.31,278.37a4.73,4.73,0,0,1,.46-2.18,4.67,4.67,0,0,1,1.36-1.77,4.67,4.67,0,0,1-.46,2.18A4.73,4.73,0,0,1,137.31,278.37Z"/><path class="cls-4" d="M144.28,276.46a3.63,3.63,0,0,1,1,1.67,3.59,3.59,0,0,1,.1,2,3.78,3.78,0,0,1-1-1.67A3.83,3.83,0,0,1,144.28,276.46Z"/><path class="cls-4" d="M150.27,274.64a3.74,3.74,0,0,1,2.33,3.74,8.18,8.18,0,0,1-1.39-1.73A8.37,8.37,0,0,1,150.27,274.64Z"/><path class="cls-4" d="M156.78,271.57a3.34,3.34,0,0,1,2.39,3.27,6.32,6.32,0,0,1-1.44-1.46A6.46,6.46,0,0,1,156.78,271.57Z"/><path class="cls-5" d="M163,268.43l-.23-.25a7.89,7.89,0,0,1,2.21,3.55"/><path class="cls-4" d="M168.7,264.11a2.25,2.25,0,0,1,1.94,2.72,5.61,5.61,0,0,1-1.17-1.22A5.77,5.77,0,0,1,168.7,264.11Z"/><path class="cls-4" d="M175.5,259.63a3.15,3.15,0,0,1,1.6.87,3.11,3.11,0,0,1,.92,1.57,3.26,3.26,0,0,1-1.6-.87A3.3,3.3,0,0,1,175.5,259.63Z"/><path class="cls-4" d="M181.57,255.08a3.15,3.15,0,0,1,1.6.88,3.11,3.11,0,0,1,.9,1.58,3.24,3.24,0,0,1-1.6-.88A3.28,3.28,0,0,1,181.57,255.08Z"/><path class="cls-4" d="M187.16,250.4a4.3,4.3,0,0,1,1.59.72,4.23,4.23,0,0,1,1.19,1.28,2.6,2.6,0,0,1-2.78-2Z"/><path class="cls-4" d="M192,246.19a5.19,5.19,0,0,1,2.15.93,5.13,5.13,0,0,1,1.57,1.73,5.13,5.13,0,0,1-2.15-.93A5.19,5.19,0,0,1,192,246.19Z"/></g></g></svg>