<svg xmlns="http://www.w3.org/2000/svg" width="50" height="50"><radialGradient id="a" cx="11.41" cy="98.353" r="26.662" gradientTransform="matrix(.9434 0 0 .1 14.236 29.665)" gradientUnits="userSpaceOnUse"><stop offset="0" stop-color="#231f20"/><stop offset="1" stop-color="#fff"/></radialGradient><path opacity=".1" fill-rule="evenodd" clip-rule="evenodd" fill="url(#a)" d="M23.585 37C47.17 37 50 38.12 50 39.5S47.17 42 23.585 42 0 40.88 0 39.5 0 37 23.585 37z"/><linearGradient id="b" gradientUnits="userSpaceOnUse" x1="25" y1="8.313" x2="25" y2="38.063"><stop offset="0" stop-color="#ebf0f5"/><stop offset=".083" stop-color="#e9eef3"/><stop offset=".113" stop-color="#e2e7ec"/><stop offset=".135" stop-color="#d7dce1"/><stop offset=".15" stop-color="#c8cdd2"/></linearGradient><path fill-rule="evenodd" clip-rule="evenodd" fill="url(#b)" d="M46.5 12.063H26c-.275 0-.625-.188-.777-.417L23.277 8.73a1.047 1.047 0 0 0-.777-.416H6c-.275 0-.625.187-.777.416l-1.946 2.917a1.946 1.946 0 0 0-.277.916v25c0 .275.225.5.5.5h43c.275 0 .5-.225.5-.5v-25c0-.275-.225-.5-.5-.5zm-.5 25H4v-24h42v24z"/><path fill-rule="evenodd" clip-rule="evenodd" fill="#C2C8CC" d="M7.5 9.687a1 1 0 1 1 0 2 1 1 0 0 1 0-2zM21.5 10.987c0 .11-.135.2-.3.2H9.8c-.165 0-.3-.09-.3-.2v-.6c0-.11.135-.2.3-.2h11.4c.165 0 .3.09.3.2v.6z"/><linearGradient id="c" gradientUnits="userSpaceOnUse" x1="4" y1="25.063" x2="34.5" y2="25.063"><stop offset="0" stop-color="#fff" stop-opacity="0"/><stop offset="1" stop-color="#fff" stop-opacity=".3"/></linearGradient><path fill-rule="evenodd" clip-rule="evenodd" fill="url(#c)" d="M4 38.063v-26h30.5l-16.099 26H4z"/></svg>