<svg xmlns="http://www.w3.org/2000/svg" xmlns:xlink="http://www.w3.org/1999/xlink" width="50" height="50"><symbol id="a" viewBox="-9 -8 18 15.993"><path fill="#F96868" d="M-8.142 2L-7.1-7.354c.045-.4.382-.646.785-.646H6.316c.403 0 .74.246.785.646L8.14 2H-8.141zm1.995-9l-.624 6h1.377l.496-6h-1.25zm2.761 0l-.343 6h1.376l.216-6h-1.249zm4.01 0H-.624l-.063 6H.688L.625-7zm2.762 0h-1.25l.217 6H3.73l-.343-6zm2.761 0h-1.25l.497 6h1.377l-.624-6z"/><path fill="#F2A654" d="M9 2.211A.789.789 0 0 1 8.211 3H-8.211A.789.789 0 0 1-9 2.211v-.422c0-.436.353-.789.789-.789H8.211c.436 0 .789.353.789.789v.422z"/><g fill="#999"><path d="M-.865 7.942a.378.378 0 0 1-.516-.138l-3.24-5.613a.378.378 0 0 1 .653-.378l3.241 5.613a.378.378 0 0 1-.138.516zM.865 7.942c.18.104.412.043.516-.138l3.24-5.613a.378.378 0 0 0-.653-.378L.727 7.426a.378.378 0 0 0 .138.516z"/></g></symbol><use xlink:href="#a" width="18" height="15.993" x="-9" y="-8" transform="matrix(1 0 0 -1 25 25)" overflow="visible"/></svg>