<svg xmlns="http://www.w3.org/2000/svg" xmlns:xlink="http://www.w3.org/1999/xlink" width="50" height="50"><symbol id="a" viewBox="-10 -9.172 20 18.344"><path fill="#926DDE" d="M3.333-2.661C4.803-2.661 6-1.464 6 .005S4.802 2.672 3.333 2.672.667 1.474.667.005 1.865-2.66 3.333-2.66zm-6.416 3.927l1.583.24c.094.29.219.572.354.853-.292.407-.604.782-.906 1.188a.355.355 0 0 0-.073.198c0 .291 1.23 1.416 1.5 1.666a.336.336 0 0 0 .219.084c.073 0 .146-.021.208-.073l1.23-.927c.25.125.51.24.78.323l.24 1.593c.02.146.167.26.313.26h1.937c.146 0 .27-.103.313-.25.135-.51.187-1.082.24-1.603a5.42 5.42 0 0 0 .801-.334l1.198.938a.393.393 0 0 0 .219.073c.302 0 1.469-1.26 1.677-1.542a.318.318 0 0 0 .073-.208.388.388 0 0 0-.073-.209 16.904 16.904 0 0 1-.938-1.197c.136-.26.25-.521.334-.792l1.614-.25c.136-.021.24-.177.24-.313V-.943a.303.303 0 0 0-.25-.302l-1.583-.25a5.54 5.54 0 0 0-.365-.854c.302-.406.615-.792.917-1.187a.355.355 0 0 0 .073-.198c0-.302-1.23-1.417-1.5-1.667a.336.336 0 0 0-.22-.083.3.3 0 0 0-.207.073l-1.23.927c-.25-.125-.51-.24-.78-.323l-.24-1.594c-.021-.146-.167-.26-.313-.26H2.365a.332.332 0 0 0-.313.25c-.135.51-.187 1.083-.24 1.614a4.453 4.453 0 0 0-.802.323l-1.198-.937a.393.393 0 0 0-.218-.073c-.302 0-1.469 1.27-1.677 1.552a.275.275 0 0 0-.073.198.36.36 0 0 0 .073.208c.333.396.645.781.937 1.198-.135.26-.25.52-.333.792l-1.615.25c-.135.02-.24.177-.24.312V.953c0 .146.105.281.25.313z"/><path fill="#6E5BB2" d="M-6-6.661c.73 0 1.333.593 1.333 1.333 0 .729-.604 1.333-1.333 1.333s-1.333-.604-1.333-1.333S-6.74-6.661-6-6.661zm-2.448 2.385c.083.187.188.375.313.542-.094.208-.532 1.25-.532 1.437 0 .021.01.052.042.073.125.073 1.24.73 1.292.73l.062-.022c.354-.354.667-.76.958-1.166.105.01.209.02.313.02.104 0 .208-.01.312-.02.105.156.886 1.187 1.021 1.187.052 0 1.167-.666 1.292-.729a.09.09 0 0 0 .042-.073c0-.177-.438-1.229-.532-1.437.125-.167.23-.355.313-.542C-3.344-4.296-2-4.443-2-4.599v-1.458c0-.157-1.344-.302-1.552-.323a2.53 2.53 0 0 0-.313-.542c.094-.208.532-1.26.532-1.437a.09.09 0 0 0-.042-.073c-.125-.073-1.24-.74-1.292-.74-.135 0-.916 1.042-1.02 1.198-.105-.01-.209-.02-.313-.02-.104 0-.208.01-.313.02-.104-.156-.885-1.198-1.02-1.198-.052 0-1.167.667-1.292.74-.031.02-.042.041-.042.073 0 .187.438 1.229.532 1.437a2.53 2.53 0 0 0-.313.542c-.208.02-1.552.166-1.552.323V-4.6c0 .156 1.344.302 1.552.323zM-6 4.005c.73 0 1.333.594 1.333 1.334 0 .729-.604 1.333-1.333 1.333s-1.333-.604-1.333-1.333S-6.74 4.005-6 4.005zm-2.448 2.386c.083.187.188.375.313.541-.094.209-.532 1.25-.532 1.438 0 .02.01.052.042.073.125.073 1.24.729 1.292.729l.062-.021c.354-.354.667-.76.958-1.167.105.01.209.021.313.021.104 0 .208-.01.312-.02.105.156.886 1.187 1.021 1.187.052 0 1.167-.667 1.292-.73a.09.09 0 0 0 .042-.072c0-.177-.438-1.23-.532-1.438.125-.166.23-.354.313-.541C-3.344 6.37-2 6.224-2 6.068V4.609c0-.156-1.344-.302-1.552-.323a2.53 2.53 0 0 0-.313-.541c.094-.209.532-1.26.532-1.438a.09.09 0 0 0-.042-.073c-.125-.073-1.24-.74-1.292-.74-.135 0-.916 1.042-1.02 1.199-.105-.01-.209-.021-.313-.021-.104 0-.208.01-.313.02-.104-.156-.885-1.197-1.02-1.197-.052 0-1.167.666-1.292.74-.031.02-.042.041-.042.072 0 .188.438 1.23.532 1.438a2.53 2.53 0 0 0-.313.541c-.208.021-1.552.167-1.552.323v1.459c0 .156 1.344.302 1.552.323z"/></symbol><use xlink:href="#a" width="20" height="18.344" x="-10" y="-9.172" transform="matrix(1 0 0 -1 25 25)" overflow="visible"/></svg>