<svg xmlns="http://www.w3.org/2000/svg" xmlns:xlink="http://www.w3.org/1999/xlink" width="50" height="50"><symbol id="a" viewBox="-7 -8.756 14 17.513"><path fill-rule="evenodd" clip-rule="evenodd" fill="#48B0F7" d="M7-7.756c0-.55-.45-1-1-1H-6c-.55 0-1 .45-1 1v1.9c0 .55.45 1 1 1H6c.55 0 1-.45 1-1v-1.9z"/><path fill-rule="evenodd" clip-rule="evenodd" fill="#FFF" d="M3-7.356h-6v1h6z"/><g fill-rule="evenodd" clip-rule="evenodd"><path fill="#46BE8A" d="M0 2.683L-5.275-.273C-5.775.597-6 1.742-6 2.818c0 3.28 2.289 5.938 6 5.938V2.683z"/><path fill="#F2A654" d="M0 2.683L5.275-.273c.5.87.725 2.015.725 3.091 0 3.28-2.289 5.938-6 5.938V2.683z"/><path fill="#F96868" d="M0 2.683L5.275-.273c-.503-.869-1.43-1.66-2.361-2.198-2.84-1.64-6.333-1.016-8.19 2.198L0 2.683z"/><path fill="#FFF" d="M-2 2.644a2 2 0 1 1 4 0 2 2 0 0 1-4 0z"/></g></symbol><use xlink:href="#a" width="14" height="17.513" x="-7" y="-8.756" transform="matrix(1 0 0 -1 25 25)" overflow="visible"/></svg>