<svg xmlns="http://www.w3.org/2000/svg" viewBox="0 0 288 288"><defs><style>.cls-1{fill:#663612;}.cls-2{fill:#61c9f7;opacity:0.2;}.cls-3{opacity:0.35;}.cls-4{fill:#fff;}</style></defs><title>access_01Монтажная область 36 копия</title><g id="accessories"><g id="access01"><path class="cls-1" d="M148.87,139.11c0,.5,0,1,0,1.53a38.76,38.76,0,0,0-13.4,0c0-.52,0-1,0-1.53,0-1.62-1.13-3.2-3.15-4.62a34.71,34.71,0,0,0,9.81,1.32,35.71,35.71,0,0,0,9.54-1.23C149.88,136,148.87,137.51,148.87,139.11Z"/><path class="cls-2" d="M95.94,139.19c.27,7.47,2,15.42,19,15.42,17.18,0,18.68-8,19-15.42.23-6.38-8.25-11.8-19-11.8S95.55,128.3,95.94,139.19Z"/><path class="cls-1" d="M128.92,128.75c-6.52-3.65-14.21-3.78-21.51-4-3.66-.13-8.35-.39-11.07,2.56s-2.67,8.1-2.51,11.93c.36,8.78,3.13,17.45,21.07,17.45S135.62,148,136,139.19C136.17,134.45,132.71,130.88,128.92,128.75Zm-14,25.86c-16.94,0-18.68-8-19-15.42-.4-10.89,8.25-11.8,19-11.8s19.19,5.42,19,11.8C133.59,146.66,132.08,154.61,114.9,154.61Z"/><g class="cls-3"><path class="cls-4" d="M128.73,151.44,105.17,128a17.08,17.08,0,0,0-3.71,1.09l24.1,23.93A14.12,14.12,0,0,0,128.73,151.44Z"/><path class="cls-4" d="M96.5,134.53l20.17,20c.74,0,1.45-.06,2.12-.12L97.15,132.94A9.07,9.07,0,0,0,96.5,134.53Z"/></g><path class="cls-2" d="M188.66,139.61c-.27,7.47-2,15.42-19,15.42-17.18,0-18.68-8-19-15.42-.23-6.38,8.25-11.8,19-11.8S189.06,128.72,188.66,139.61Z"/><path class="cls-1" d="M188.26,127.67c-2.72-3-7.41-2.69-11.07-2.56-7.3.27-15,.39-21.51,4-3.8,2.13-7.25,5.7-7.05,10.44.36,8.78,3.13,17.45,21.07,17.45s20.72-8.67,21.07-17.45C190.93,135.77,191,130.68,188.26,127.67ZM169.7,155c-17.18,0-18.68-8-19-15.42-.23-6.38,8.25-11.8,19-11.8s19.36.92,19,11.8C188.39,147.07,186.65,155,169.7,155Z"/><g class="cls-3"><path class="cls-4" d="M183.32,151.94l-22.83-22.67a21.73,21.73,0,0,0-3.34,1.46l23,22.8A14.5,14.5,0,0,0,183.32,151.94Z"/><path class="cls-4" d="M151.75,135.69,171.17,155c.74,0,1.46-.05,2.14-.11l-20.66-20.52A9.71,9.71,0,0,0,151.75,135.69Z"/></g><path class="cls-1" d="M95.89,134.26h0c-1.06,1-3.12.22-4.41-1.42L85.31,125a1.55,1.55,0,0,1,.14-2.1h0a1.58,1.58,0,0,1,2.12.05l7.3,6.84C96.39,131.2,96.94,133.3,95.89,134.26Z"/><path class="cls-1" d="M188.69,134.26h0c1.06,1,3.12.22,4.41-1.42l6.17-7.86a1.55,1.55,0,0,0-.14-2.1h0a1.58,1.58,0,0,0-2.12.05l-7.3,6.84C188.19,131.2,187.64,133.3,188.69,134.26Z"/></g></g></svg>