<svg xmlns="http://www.w3.org/2000/svg" width="50" height="50"><radialGradient id="a" cx="7.21" cy="101.134" r="26.662" gradientTransform="matrix(.75472 0 0 .16 19.558 29.819)" gradientUnits="userSpaceOnUse"><stop offset="0" stop-color="#231f20"/><stop offset="1" stop-color="#fff"/></radialGradient><path opacity=".2" fill-rule="evenodd" clip-rule="evenodd" fill="url(#a)" d="M23.868 42C42.736 42 45 43.79 45 46s-2.264 4-21.132 4S5 48.21 5 46s0-4 18.868-4z"/><path fill-rule="evenodd" clip-rule="evenodd" fill="#3D3D3D" d="M38.727 5H11.273a2.272 2.272 0 0 0-2.272 2.272v35.455A2.273 2.273 0 0 0 11.273 45h27.454a2.273 2.273 0 0 0 2.272-2.273V7.272A2.273 2.273 0 0 0 38.727 5zm0 35.909H11.273V9.09h27.454v31.818z"/><g fill-rule="evenodd" clip-rule="evenodd" fill="#191919"><path d="M23.177 6.967a.243.243 0 1 1 0 .486.243.243 0 0 1 0-.486zM24.392 6.967h2.431a.243.243 0 1 1 0 .486h-2.43a.243.243 0 0 1 0-.486z"/></g><path fill-rule="evenodd" clip-rule="evenodd" fill="#666" d="M25 42a1 1 0 1 1 0 2 1 1 0 0 1 0-2z"/><linearGradient id="b" gradientUnits="userSpaceOnUse" x1="12" y1="25" x2="38.501" y2="25"><stop offset="0" stop-color="#fff" stop-opacity="0"/><stop offset="1" stop-color="#fff" stop-opacity=".2"/></linearGradient><path fill-rule="evenodd" clip-rule="evenodd" fill="url(#b)" d="M12 45V5h26.501L16.105 45H12z"/></svg>