<svg xmlns="http://www.w3.org/2000/svg" width="50" height="50"><radialGradient id="a" cx="25" cy="41.365" r="25.156" gradientTransform="matrix(1 0 0 .04 0 39.345)" gradientUnits="userSpaceOnUse"><stop offset="0" stop-color="#231f20"/><stop offset="1" stop-color="#fff"/></radialGradient><path opacity=".5" fill-rule="evenodd" clip-rule="evenodd" fill="url(#a)" d="M25 40c25 0 25 .448 25 1s0 1-25 1-25-.448-25-1 0-1 25-1z"/><path fill-rule="evenodd" clip-rule="evenodd" fill="#4C4C4C" d="M41.644 12H7.43C6.318 12 6 12.791 6 13.903V38h37V13.903C43 12.791 42.756 12 41.644 12zM41 36H8V14h33v22z"/><linearGradient id="b" gradientUnits="userSpaceOnUse" x1="25" y1="38" x2="25" y2="41"><stop offset="0" stop-color="#f0f5fa"/><stop offset=".27" stop-color="#eef3f8"/><stop offset=".368" stop-color="#e7ecf1"/><stop offset=".437" stop-color="#dce1e6"/><stop offset=".493" stop-color="#cbd0d5"/><stop offset=".5" stop-color="#c8cdd2"/></linearGradient><path fill-rule="evenodd" clip-rule="evenodd" fill="url(#b)" d="M49 38c0 1-1.326 3-2.962 3H3.962C2.326 41 1 39 1 38h48z"/><path fill-rule="evenodd" clip-rule="evenodd" fill="#AFB4B9" d="M25 12.5a.5.5 0 1 1 0 1 .5.5 0 0 1 0-1zM30 38c0 .552-.458 1-1.022 1h-7.956A1.011 1.011 0 0 1 20 38h10z"/><linearGradient id="c" gradientUnits="userSpaceOnUse" x1="8" y1="25" x2="32.001" y2="25"><stop offset="0" stop-color="#fff" stop-opacity="0"/><stop offset="1" stop-color="#fff" stop-opacity=".2"/></linearGradient><path fill-rule="evenodd" clip-rule="evenodd" fill="url(#c)" d="M8 38V12h24L17.995 38H8z"/></svg>