<svg xmlns="http://www.w3.org/2000/svg" viewBox="0 0 288 288"><defs><style>.cls-1{fill:#30323d;}</style></defs><title>eyebrows06_blackМонтажная область 46</title><g id="eyebrows"><g id="eyebrows06"><g id="eyebrows06_black" data-name="eyebrows06 black"><path class="cls-1" d="M155.29,129.9c4.18.22,7.27-3.34,11.1-4.8,2.6-1,5.33-2.3,8.11-2.69,4.69-.65,7.36,1.66,11,3.94.92.58,1.57,0,.93-.78-5.18-6.45-7.25-9-14.84-7.76-5.4.88-14.72,2.93-18.25,7.67-1.07,1.44.25,4.32,2,4.41Z"/><path class="cls-1" d="M130.07,129.9c-4.18.22-7.27-3.34-11.1-4.8-2.6-1-5.33-2.3-8.11-2.69-4.69-.65-7.36,1.66-11,3.94-.92.58-1.57,0-.93-.78,5.18-6.45,7.25-9,14.84-7.76,5.4.88,14.72,2.93,18.25,7.67,1.07,1.44-.25,4.32-2,4.41Z"/></g></g></g></svg>