<svg xmlns="http://www.w3.org/2000/svg" viewBox="0 0 288 288"><defs><style>.cls-1{fill:#30323d;}</style></defs><title>eyebrows05_blackМонтажная область 46</title><g id="eyebrows"><g id="eyebrows05"><g id="eyebrows05_black" data-name="eyebrows05 black"><path class="cls-1" d="M189.23,122.78c-7.19-7-21.18-5.85-31-3.6.43-.25.86-.5,1.27-.78a.21.21,0,0,0-.16-.39,3.69,3.69,0,0,0-1.34.65c.06-.07.13-.12.18-.19s0-.45-.21-.37a3.9,3.9,0,0,0-1.83,1.42l0-.11c.08-.21-.22-.35-.37-.21s-.33.33-.51.53a.27.27,0,0,0-.09-.3,4.1,4.1,0,0,0,.32-.67c.08-.24-.24-.39-.4-.24a7.32,7.32,0,0,0-1.06,1.26s0,0-.06,0a1.38,1.38,0,0,0-.86.71c-.07-.46-.15-.91-.26-1.35a.3.3,0,0,0-.57,0,5.72,5.72,0,0,0,.08,3.55c-.11-.13-.19-.28-.31-.4a.25.25,0,0,0-.42.24,4.15,4.15,0,0,0,1.62,2.36,4.4,4.4,0,0,0,4.49,1.36c5.24-.83,8.35-1.92,13.5-3.12,6.27-1.46,11.67.21,17.61,1.11C190,124.41,190.12,123.64,189.23,122.78Z"/><path class="cls-1" d="M96.13,122.78c7.19-7,21.18-5.85,31-3.6-.43-.25-.86-.5-1.27-.78a.21.21,0,0,1,.16-.39,3.69,3.69,0,0,1,1.34.65c-.06-.07-.13-.12-.18-.19s0-.45.21-.37a3.9,3.9,0,0,1,1.83,1.42l0-.11c-.08-.21.22-.35.37-.21s.33.33.51.53a.27.27,0,0,1,.09-.3,4.1,4.1,0,0,1-.32-.67c-.08-.24.24-.39.4-.24a7.32,7.32,0,0,1,1.06,1.26s0,0,.06,0a1.38,1.38,0,0,1,.86.71c.07-.46.15-.91.26-1.35a.3.3,0,0,1,.57,0,5.72,5.72,0,0,1-.08,3.55c.11-.13.19-.28.31-.4a.25.25,0,0,1,.42.24,4.15,4.15,0,0,1-1.62,2.36,4.4,4.4,0,0,1-4.49,1.36c-5.24-.83-8.35-1.92-13.5-3.12-6.27-1.46-11.67.21-17.61,1.11C95.39,124.41,95.24,123.64,96.13,122.78Z"/></g></g></g></svg>