<svg xmlns="http://www.w3.org/2000/svg" viewBox="0 0 288 288"><defs><style>.cls-1{fill:#8cf;}</style></defs><title>accessories04Монтажная область 46</title><g id="accessories"><g id="access04"><path class="cls-1" d="M92.2,158.53a3.63,3.63,0,0,1-2.88.24c-3-.71-3.12-3.62-2.46-6.23a14.26,14.26,0,0,1,1-2.64c.1-.21-.11-.48-.34-.34a5.5,5.5,0,0,0-1.9,2.16c-1.59,3.12-.61,7.67,3,8.78a7,7,0,0,0,4,.08Q92.38,159.56,92.2,158.53Z"/><path class="cls-1" d="M199.77,151.73a5.5,5.5,0,0,0-1.9-2.16c-.22-.14-.44.13-.34.34a14.26,14.26,0,0,1,1,2.64c.66,2.6.52,5.51-2.46,6.23a3.78,3.78,0,0,1-2.71-.15q-.18,1-.36,2a7.07,7.07,0,0,0,3.83-.13C200.38,159.4,201.36,154.85,199.77,151.73Z"/></g></g></svg>