<svg xmlns="http://www.w3.org/2000/svg" viewBox="0 0 288 288"><defs><style>.cls-1{fill:#7a6f78;}.cls-2{fill:#ff9266;}.cls-3{fill:#ffecd4;}.cls-4{fill:#b3a2af;}</style></defs><title>accessories03Монтажная область 46</title><g id="accessories"><g id="access03"><path class="cls-1" d="M140.46,262.17a4.51,4.51,0,0,0,.1,6,3.58,3.58,0,0,0,.69.57,5.65,5.65,0,0,0,6.72-.53,5.05,5.05,0,0,0,1-5.25C147.48,259.56,142.68,259.79,140.46,262.17Z"/><path class="cls-2" d="M144.36,268.65a4.87,4.87,0,0,1-2.57-.71,2.59,2.59,0,0,1-.5-.41,3.52,3.52,0,0,1-.1-4.69,5,5,0,0,1,3.55-1.46,3.49,3.49,0,0,1,3.33,2,3.76,3.76,0,0,1-3.7,5.25Z"/><path class="cls-3" d="M141.37,264.22a2.7,2.7,0,0,0,.18,2.14,1.77,1.77,0,0,0,1.54,1,.83.83,0,0,0,.45-.14.92.92,0,0,0,.13-1.14c-.19-.37-.51-.66-.72-1a2,2,0,0,1,.11-2.07c.07-.09.14-.21.09-.31C142.79,261.88,141.46,263.95,141.37,264.22Z"/><path class="cls-4" d="M144.93,258a11.79,11.79,0,0,1-.1,1.58,1.76,1.76,0,0,1-.21.75c-.08.12-.24.18-.29.15s-.1-.07-.2-.27a3.92,3.92,0,0,1-.37-2.16,5.21,5.21,0,0,1,.16-.88,1.65,1.65,0,0,1,.54-.92v-.07a8.27,8.27,0,0,0,1.1-.15c-.43-.72-.93-.82-1.23-.77a1.54,1.54,0,0,0-1,.86,3.49,3.49,0,0,0-.34.79,6.18,6.18,0,0,0-.19,1,4.91,4.91,0,0,0,.48,2.71,1.46,1.46,0,0,0,.69.72,1.06,1.06,0,0,0,.43.09,1.34,1.34,0,0,0,1.06-.58,2.54,2.54,0,0,0,.38-1.19,12.74,12.74,0,0,0,.1-1.86C145.58,257.91,145.26,258,144.93,258Z"/><path class="cls-1" d="M180.35,238.48a11.35,11.35,0,0,0-2.84-.88,19.14,19.14,0,0,0,2.37,2.64,1.1,1.1,0,0,1,.8.63s0,.06,0,.09a2.38,2.38,0,0,1,0,1.32,2.58,2.58,0,0,1-.34.71,5.35,5.35,0,0,1-1.15,1.19l-.6.45a39.05,39.05,0,0,1-7.36,3.62q-4.32,1.84-8.77,3.38-4,1.36-8,2.44t-8.23,1.84a11,11,0,0,1-2.23.32,17.53,17.53,0,0,1-2.79-.42q-1.44-.27-2.87-.58-4.12-.89-8.17-2.1-2.34-.7-4.66-1.49-4.45-1.53-8.77-3.38a39.05,39.05,0,0,1-7.36-3.62c-1-.73-2.28-1.82-2.07-3.21a1.63,1.63,0,0,1,.16-.43,2,2,0,0,1,.22-.35,2.84,2.84,0,0,1,.76-.69,19.24,19.24,0,0,0,2.08-2.37,9.34,9.34,0,0,0-2.88.9A4.12,4.12,0,0,0,105.3,242a1.73,1.73,0,0,0,.05.3s0,.08,0,.12v0a4.61,4.61,0,0,0,1.38,2.37c2.69,2.6,6.44,3.83,9.83,5.28a93.09,93.09,0,0,0,12.21,4.26c2.63.71,5.24,1.53,7.88,2.23,1.32.35,2.64.68,4,.94a13.88,13.88,0,0,0,3.87.48,29.4,29.4,0,0,0,4.05-.74c1.37-.31,2.72-.67,4.07-1,2.19-.61,4.36-1.28,6.56-1.87a93.09,93.09,0,0,0,12.21-4.26c3.39-1.44,7.14-2.67,9.83-5.28a4.62,4.62,0,0,0,1.38-2.4l0-.13,0-.09a1.36,1.36,0,0,0,0-.2A4.12,4.12,0,0,0,180.35,238.48Z"/></g></g></svg>