<svg xmlns="http://www.w3.org/2000/svg" viewBox="0 0 288 288"><defs><style>.cls-1{fill:#303030;}</style></defs><title>tattoo01Монтажная область 46</title><g id="accessories"><g id="tattoo01"><path class="cls-1" d="M165.95,211.19a2.17,2.17,0,0,0-1.38,1.84l-.47,5.36a.9.9,0,0,1-.45.7L159,221.75a2.18,2.18,0,0,0,.22,3.9l5,2.1a.91.91,0,0,1,.53.65l1.08,5.27a2.16,2.16,0,0,0,1.58,1.67,2.22,2.22,0,0,0,.56.07,2.16,2.16,0,0,0,1.64-.75l3.53-4.06a.86.86,0,0,1,.77-.3q-.21-.63-.39-1.27a2.16,2.16,0,0,0-1.35.73l-3.53,4.06a.9.9,0,0,1-1.56-.41l-1.08-5.27a2.18,2.18,0,0,0-1.28-1.57l-5-2.1a.9.9,0,0,1-.09-1.6l4.68-2.65a2.18,2.18,0,0,0,1.09-1.71l.47-5.36a.88.88,0,0,1,.57-.76.88.88,0,0,1,.93.17l4,3.63a2,2,0,0,0,.36.25q0-.85,0-1.68l-3.44-3.14A2.16,2.16,0,0,0,165.95,211.19Z"/><path class="cls-1" d="M159.85,240.8l-1.53-1a.16.16,0,0,1-.07-.13l0-1.83a.89.89,0,0,0-1.45-.68l-1.43,1.15a.16.16,0,0,1-.14,0l-1.75-.53a.89.89,0,0,0-1.09,1.17l.65,1.71a.16.16,0,0,1,0,.15l-1,1.5a.88.88,0,0,0,0,.94.87.87,0,0,0,.82.46l1.83-.09a.14.14,0,0,1,.13.06l1.11,1.46a.88.88,0,0,0,.71.35l.17,0a.89.89,0,0,0,.69-.64l.48-1.77a.16.16,0,0,1,.1-.11l1.73-.6a.89.89,0,0,0,.2-1.58Zm-.44.89-1.73.6a.89.89,0,0,0-.57.6l-.48,1.77a.15.15,0,0,1-.12.11.15.15,0,0,1-.15-.06l-1.11-1.46a.89.89,0,0,0-.71-.35h0l-1.83.09a.19.19,0,0,1-.14-.08.15.15,0,0,1,0-.16l1-1.5a.89.89,0,0,0,.1-.82l-.65-1.71a.16.16,0,0,1,.19-.21L155,239a.88.88,0,0,0,.81-.16l1.43-1.14a.16.16,0,0,1,.25.12l0,1.83a.89.89,0,0,0,.4.73l1.53,1a.16.16,0,0,1,0,.28Z"/><path class="cls-1" d="M159.53,258.42a.61.61,0,0,0-.63-.9l-1.25.19a.11.11,0,0,1-.1,0l-.86-.92a.61.61,0,0,0-1.05.32l-.21,1.25a.11.11,0,0,1-.06.08l-1.14.54a.61.61,0,0,0,0,1.1l1.12.58a.11.11,0,0,1,.06.08l.16,1.25a.61.61,0,0,0,1,.36l.9-.89a.09.09,0,0,1,.1,0l1.24.24a.61.61,0,0,0,.53-.14l.08-.09a.61.61,0,0,0,.06-.65l-.56-1.13a.11.11,0,0,1,0-.1Zm-1.07,1.43L159,261a.1.1,0,0,1,0,.11.11.11,0,0,1-.11,0l-1.24-.24a.61.61,0,0,0-.52.14l0,0-.9.89a.13.13,0,0,1-.11,0,.1.1,0,0,1-.07-.09l-.16-1.25a.61.61,0,0,0-.33-.47l-1.12-.58a.11.11,0,0,1,0-.19l1.14-.53a.61.61,0,0,0,.35-.46l.21-1.24a.11.11,0,0,1,.08-.09.1.1,0,0,1,.11,0l.86.92a.62.62,0,0,0,.54.19L159,258a.11.11,0,0,1,.11.16l-.61,1.1A.62.62,0,0,0,158.47,259.85Z"/><path class="cls-1" d="M178.12,260.06a.61.61,0,0,0-.63-.9l-1.25.19a.11.11,0,0,1-.1,0l-.86-.92a.61.61,0,0,0-1.05.32L174,260a.11.11,0,0,1-.06.08l-1.14.54a.61.61,0,0,0,0,1.1l1.12.58a.11.11,0,0,1,.06.08l.16,1.25a.61.61,0,0,0,1,.36l.9-.89a.09.09,0,0,1,.1,0l1.24.24a.61.61,0,0,0,.52-.14L178,263a.61.61,0,0,0,.06-.65l-.56-1.13a.11.11,0,0,1,0-.1Zm-1.07,1.43.56,1.13a.1.1,0,0,1,0,.11.1.1,0,0,1-.11,0l-1.24-.24a.61.61,0,0,0-.52.14l0,0-.9.89a.13.13,0,0,1-.11,0,.1.1,0,0,1-.07-.09l-.16-1.25a.61.61,0,0,0-.33-.47l-1.12-.58a.11.11,0,0,1,0-.19l1.14-.53a.61.61,0,0,0,.35-.46l.21-1.24a.11.11,0,0,1,.08-.09.1.1,0,0,1,.11,0l.86.92a.62.62,0,0,0,.54.19l1.25-.19a.11.11,0,0,1,.11.16l-.61,1.11A.62.62,0,0,0,177.06,261.49Z"/><path class="cls-1" d="M176.12,240.58a1.92,1.92,0,0,0,.41,2l2.87,3a.46.46,0,0,1,.12.41l-.86,4.08a1.93,1.93,0,0,0,2.71,2.14l3.77-1.8a.45.45,0,0,1,.43,0l3.62,2.08a1.93,1.93,0,0,0,2.87-1.92l-.55-4.14a.47.47,0,0,1,.15-.4l.19-.17-1.51-.5a1.92,1.92,0,0,0-.28,1.27l.55,4.14a.45.45,0,0,1-.2.44.43.43,0,0,1-.49,0l-3.62-2.08a1.91,1.91,0,0,0-1.79-.07l-3.77,1.8a.44.44,0,0,1-.48-.05.45.45,0,0,1-.16-.46l.86-4.09a1.94,1.94,0,0,0-.49-1.72l-2.87-3a.44.44,0,0,1-.1-.47.45.45,0,0,1,.38-.3l2.33-.25a18.39,18.39,0,0,1-1.36-1.33l-1.13.12A1.91,1.91,0,0,0,176.12,240.58Z"/><path class="cls-1" d="M200.22,251.68a1.92,1.92,0,0,0,1.62,1.24l4.15.4a.46.46,0,0,1,.36.24l2,3.65a1.92,1.92,0,0,0,1.68,1h.09a1.92,1.92,0,0,0,1.68-1.15l1.67-3.83a.46.46,0,0,1,.33-.26l1.83-.36-2.88-.74a1.9,1.9,0,0,0-.63.78l-1.67,3.83a.46.46,0,0,1-.82,0l-2-3.65a1.94,1.94,0,0,0-1.5-1l-4.15-.4a.46.46,0,0,1-.29-.77l1.35-1.45-1.59-.44-.83.89A1.91,1.91,0,0,0,200.22,251.68Z"/><path class="cls-1" d="M174,250.6a1.36,1.36,0,0,0,.09-.2,1.28,1.28,0,0,0-.3-1.32l-1.87-1.88a.24.24,0,0,1-.07-.21l.49-2.6a1.28,1.28,0,0,0-1.84-1.38l-2.37,1.2a.24.24,0,0,1-.22,0l-2.32-1.27a1.27,1.27,0,0,0-1.35.07,1.29,1.29,0,0,0-.53,1.25l.41,2.62a.23.23,0,0,1-.07.2l-1.93,1.82a1.28,1.28,0,0,0,.68,2.2l2.62.43a.23.23,0,0,1,.17.13l1.13,2.39a1.27,1.27,0,0,0,1.14.73,1.34,1.34,0,0,0,1.16-.7l1.21-2.36c0-.06.1-.12.18-.13l2.63-.34A1.27,1.27,0,0,0,174,250.6Zm-3.72-.05a1.29,1.29,0,0,0-1,.66l0,0-1.21,2.36a.27.27,0,0,1-.21.12.22.22,0,0,1-.21-.13l-1.13-2.39a1.27,1.27,0,0,0-1-.72l-2.62-.42a.23.23,0,0,1-.12-.4l1.93-1.82a1.29,1.29,0,0,0,.39-1.13l-.41-2.62a.21.21,0,0,1,.1-.23.22.22,0,0,1,.24,0l2.33,1.27a1.28,1.28,0,0,0,1.19,0l2.36-1.2a.23.23,0,0,1,.25,0,.22.22,0,0,1,.09.23l-.49,2.6a1.29,1.29,0,0,0,.35,1.14l1.87,1.88a.23.23,0,0,1,.06.24.23.23,0,0,1-.19.15Z"/></g></g></svg>