<svg xmlns="http://www.w3.org/2000/svg" viewBox="0 0 288 288"><defs><style>.cls-1{isolation:isolate;}.cls-2{fill:#b55913;opacity:0.25;}.cls-3{fill:#a75a18;}.cls-4{fill:#e6821e;}.cls-5{mix-blend-mode:soft-light;}.cls-6{fill:#fff;}</style></defs><title>hair08_redМонтажная область 46</title><g class="cls-1"><g id="hair_fem" data-name="hair fem"><g id="hair08"><g id="hair08_red" data-name="hair08 red"><path class="cls-2" d="M85.74,97.8a41.56,41.56,0,0,0-.08,8.23c.19,2.57.51,5.14.76,7.66q.79,8,1.77,16.07l.06.45c.53,1.39,1.29,2.8,1.78,4a7.23,7.23,0,0,0,3,4,.89.89,0,0,0,1,0,1.24,1.24,0,0,0,.37-.73c.9-3.8,0-7.92-.22-11.76a104,104,0,0,1-.2-11.78,58.91,58.91,0,0,1,3.85-18.19q.42-1.08.86-2.15a29.09,29.09,0,0,1,3.72-6.37,17.32,17.32,0,0,1,11.67-6.48c3.57-.34,4.72-17.82,4.61-20.42a10.17,10.17,0,0,0-1.11-4.5l-.15-.24C100.29,62.86,88.25,77.78,85.74,97.8Z"/><path class="cls-3" d="M149.48,38.33c-2.37.11-4.72.33-7,.63-17,2.3-32.27,12-33.18,30.59-.68,13.87,5.58,28.17,16.87,36.43,5,3.63,11.07,6.19,17.15,5.35a4.16,4.16,0,0,0,3.21-1.67c1.2-2.12-1.31-4.6-1.1-7,.28-3.24,5-4,7.81-2.31s4.59,4.67,7.4,6.31,7.56.72,7.7-2.53c0-1.09-.47-2.16-.36-3.24a3.72,3.72,0,0,1,3.37-3A8.08,8.08,0,0,1,176,99.05c10.63,5.71,14.22,18.86,14.54,30.1.28,9.66-.07,19.46-2.1,28.94-1.59,7.43-4.87,20.86-13.85,22.37a9.87,9.87,0,0,0-2.18.45,2,2,0,0,0-1.36,1.62c-.18,2.74,6.64,1.87,8.16,2.95,2,1.4,1.38,4.26,1.47,6.45.23,5.59-.43,12.24,2.21,17.37a12.91,12.91,0,0,0,6.81,5.45c2.16.54,6.09-1.61,3.92-4.27-.73-.9-2.06-1-3.15-1.34a6.5,6.5,0,0,1-3.88-5,15.49,15.49,0,0,1,.49-6.55c1.56-6.43,4.75-12.37,7.49-18.38a118.29,118.29,0,0,0,7.58-23.81c.83-3.79,1.62-7.59,2.16-11.44.38-2.76-.05-7.37,3.09-8.71,1.88-.81,4,.07,5.82.55a7.14,7.14,0,0,0,2.89.27c1-.15,3.73-1.77,2.51-3a1.21,1.21,0,0,0-.54-.3c-1-.28-4.75.64-4.26-1.41s2.67-2.46,4.27-3.22c1.12-.53,4.54-3.47,1.83-4.23-1-.28-2.14,1-2.86,1.5-1.64,1.14-4,1.71-5-.49a9.12,9.12,0,0,1-.67-3.56c-.15-4.33.75-8.8.9-13.15.45-13.65,0-28-5.46-40.74C197.32,45.41,172,37.27,149.48,38.33Z"/><path class="cls-4" d="M216.09,136c1-.15,3.73-1.77,2.51-3a1.21,1.21,0,0,0-.54-.3c-1-.28-4.75.64-4.26-1.41s2.67-2.46,4.27-3.22c1.12-.53,4.54-3.47,1.83-4.23-1-.28-2.14,1-2.86,1.5-1.64,1.14-4,1.71-5-.49a9.11,9.11,0,0,1-.67-3.56c-.15-4.33.75-8.8.9-13.15.45-13.65,0-28-5.46-40.74-9.43-22-34.71-30.14-57.27-29.08-2.37.11-4.72.33-7,.63-17,2.3-32.27,12-33.18,30.59-.68,13.87,5.58,28.17,16.87,36.43,5,3.63,11.07,6.19,17.15,5.35a4.16,4.16,0,0,0,3.21-1.67c1.2-2.12-1.31-4.6-1.1-7,.28-3.24,5-4,7.81-2.31s4.59,4.67,7.4,6.31,7.56.72,7.7-2.53c0-1.09-.47-2.16-.36-3.24a3.72,3.72,0,0,1,3.37-3A8.08,8.08,0,0,1,176,99.05c5.63,3,9.26,8.14,11.5,13.94l.26.41a11.62,11.62,0,0,0,2.47,3.07,3.94,3.94,0,0,0,3.71.79c.63-.24,1.17-.69,1.8-.92,1.57-.58,3.36.39,4.34,1.75a15.93,15.93,0,0,1,1.87,4.64c1.64,5.18,4.93,10,9.71,12.61.54.15,1.07.31,1.58.44A7.14,7.14,0,0,0,216.09,136Z"/><g class="cls-5"><path class="cls-6" d="M127,53.48c2.28-3,5.78-4.82,9.31-6.06a55.51,55.51,0,0,1,11-2.21,61.52,61.52,0,0,1,22.43,1.29,45.8,45.8,0,0,1,10.57,4.29A38,38,0,0,1,189.22,58a33.44,33.44,0,0,1,6.11,9.55,27,27,0,0,1,2,11,32.55,32.55,0,0,0-9.95-18.72A41.06,41.06,0,0,0,168.93,49.7a70.86,70.86,0,0,0-21.37-1.93A69.06,69.06,0,0,0,136.78,49,20.93,20.93,0,0,0,127,53.48Z"/></g><g class="cls-5"><path class="cls-6" d="M127.91,64.1a20.37,20.37,0,0,1,10.79-6.22,38.12,38.12,0,0,1,12.66-.61,47.33,47.33,0,0,1,23.53,9.22,40.55,40.55,0,0,1,8.89,9.27,31,31,0,0,1,4.94,11.85c.88,4.05,1.57,8.08,3.18,11.73a10.63,10.63,0,0,0,3.48,4.62,8.06,8.06,0,0,0,5.76,1.06,7.88,7.88,0,0,1-6.21-.3,11.83,11.83,0,0,1-4.49-4.63c-2.09-3.77-3.15-7.91-4.24-11.86a36.93,36.93,0,0,0-2-5.61,32.7,32.7,0,0,0-3-5.07,38.57,38.57,0,0,0-8.31-8.43A49.51,49.51,0,0,0,151,59.82a41,41,0,0,0-12-.35A21.16,21.16,0,0,0,127.91,64.1Z"/></g><g class="cls-5"><path class="cls-6" d="M118.45,70.93a35,35,0,0,0,10.93,7.49c4,1.82,8.15,2.33,12.74,2.79A38.62,38.62,0,0,1,149,82.54,18.81,18.81,0,0,1,155.46,86a18.48,18.48,0,0,1,6.71,12.1A22.12,22.12,0,0,0,154,88a19.39,19.39,0,0,0-5.76-2.51,51.88,51.88,0,0,0-6.48-1,61,61,0,0,1-6.89-1,25.92,25.92,0,0,1-6.65-2.65A24.09,24.09,0,0,1,118.45,70.93Z"/></g></g></g></g></g></svg>