<svg xmlns="http://www.w3.org/2000/svg" viewBox="0 0 288 288"><defs><style>.cls-1{isolation:isolate;}.cls-2{fill:#e6821e;}.cls-3{fill:#a75a18;}.cls-4{mix-blend-mode:soft-light;}.cls-5{fill:#fff;}</style></defs><title>hair06_redМонтажная область 46</title><g class="cls-1"><g id="hair_fem" data-name="hair fem"><g id="hair06"><g id="hair06_red" data-name="hair06 red"><path class="cls-2" d="M232.76,66a32.94,32.94,0,0,0-14-15.27A25.54,25.54,0,0,0,198.35,49c-6.17,2.24-10.45,7.22-13,13.19,2.44.95,3.1,4,2,6.15,3.46,5.93,6,12.27,8.85,18.48,2.47,5.31,5.15,10.36,6.5,16a4.34,4.34,0,0,1,1.62,3.86,24.26,24.26,0,0,0,9.82,1c8.82-1,16.53-7.57,19.86-15.8S236.51,74.07,232.76,66Z"/><path class="cls-3" d="M214.7,71.45c-2.42-1.86-6.08-1.6-8.27-3.73-4.89-4.74-.45-12.32-8.3-15.64A16.65,16.65,0,0,0,194.37,51a24.35,24.35,0,0,0-9,11.19c2.42,1,3.06,4,1.93,6.14,3.46,5.93,6,12.27,8.85,18.48,2.47,5.31,5.15,10.36,6.5,16a4.34,4.34,0,0,1,1.61,3.87c.76.18,1.66.36,2.77.68a24.8,24.8,0,0,0,3.72.42,16.51,16.51,0,0,0,2.61-6.7c.7-4.26.34-8.67,1.32-12.87.68-2.91,2-5.66,2.45-8.61S217.07,73.27,214.7,71.45Z"/><g class="cls-4"><path class="cls-5" d="M209.54,62.88a14.56,14.56,0,0,0,5.73-4.44,22.11,22.11,0,0,0,3.59-6.37c.13-.34.23-.69.35-1l-.47-.28c-.73-.39-1.47-.73-2.23-1.05-.15.44-.3.89-.46,1.33A41.22,41.22,0,0,1,209.54,62.88Z"/><path class="cls-5" d="M231.57,70.87a18.87,18.87,0,0,0-5.82.17,14.34,14.34,0,0,0-5.4,2.08l5.56.25c1.79.12,3.55.26,5.29.48,1.41.17,2.83.42,4.24.67-.19-1-.41-2-.68-3A19.67,19.67,0,0,0,231.57,70.87Z"/><path class="cls-5" d="M226.16,89.85a26,26,0,0,0-4.07-5,53,53,0,0,0,2,6c.7,1.94,1.39,3.83,1.92,5.73a31.52,31.52,0,0,1,1,5.11,26.67,26.67,0,0,0,2.5-2.53,17.76,17.76,0,0,0-.61-3.39A22.34,22.34,0,0,0,226.16,89.85Z"/></g><path class="cls-2" d="M77.07,104.5c7.77-.67,14.63-5.77,18.62-12.3,2.17-3.55,2.54-7.46,3.79-11.36A39.35,39.35,0,0,0,101.58,67c-.33-6.61-3.16-13.33-8.56-17.15s-12.83-4.24-19.12-2C65,50.92,57.41,58.72,54,67.41c-3.22,8.1-3,17.68,1.37,25.22S68.39,105.25,77.07,104.5Z"/><path class="cls-3" d="M101.58,67a23.36,23.36,0,0,0-6.1-15c-1.33.27-2.66.61-3.92,1-3.94,1.12-7.93,2.26-11.44,4.35s-6.56,5.29-7.58,9.26c-.82,3.21-.28,6.72-1.54,9.78-1.65,4-6,6.34-8,10.21-1.85,3.65-1.23,8.18.72,11.77a26.29,26.29,0,0,0,2.89,4.34,21.48,21.48,0,0,0,10.42,1.82c7.77-.67,14.63-5.77,18.62-12.3,2.17-3.55,2.54-7.46,3.79-11.36A39.35,39.35,0,0,0,101.58,67Z"/><g class="cls-4"><path class="cls-5" d="M60.15,74.21a65.07,65.07,0,0,1,6.8.26,16.23,16.23,0,0,0-6.63-2.58,20.75,20.75,0,0,0-7.21,0l-.54.12A31.17,31.17,0,0,0,52,75.23c.54-.12,1.07-.26,1.62-.36A44.57,44.57,0,0,1,60.15,74.21Z"/><path class="cls-5" d="M61.71,65.95a45.57,45.57,0,0,0,4.5,1.58,13.18,13.18,0,0,0-3.34-3.6,18,18,0,0,0-4.23-2.43c-.42-.17-.86-.29-1.29-.44-.55.82-1,1.66-1.51,2.51l1.67.7C58.89,64.83,60.28,65.4,61.71,65.95Z"/><path class="cls-5" d="M68.62,61.45a43.34,43.34,0,0,1,1.77-5.88,28.6,28.6,0,0,1,2.67-5.14,27.31,27.31,0,0,1,2.45-3.1c-.54.15-1.08.29-1.61.47a29,29,0,0,0-3.74,1.65,15.59,15.59,0,0,0-2,5.52A12.87,12.87,0,0,0,68.62,61.45Z"/></g><path class="cls-3" d="M93.79,155c.32,2,.66,3.92,1,5.89.44,2.48.47,5.18-.82,7.33-1.39,2.32-5.6,4.22-8.22,3.23-2.81-1.05-5-5.23-2.42-7.56a8.75,8.75,0,0,1,1.94-1c2.92-1.51,3.46-7.21-.6-7.27-.94,0-1.88.15-2.82.12a4.42,4.42,0,0,1-3.81-2c-.72-1.32-.15-3.31,1.31-3.7.71-.19,1.49,0,2.19-.23,1.22-.42,1.62-1.93,1.79-3.21,1.11-8.13.21-16.53,1.64-24.59a16.55,16.55,0,0,1,4.06-8.58c1.25-1.29,6.13-5.42,5.33-.82a151.86,151.86,0,0,0-2.3,23.51A110.54,110.54,0,0,0,93.79,155Z"/><path class="cls-3" d="M94.38,112.6c.8-4.61-4.08-.48-5.33.82A16.55,16.55,0,0,0,85,122a75.2,75.2,0,0,0-.92,11.35,18.3,18.3,0,0,0,8.2-2.56A166.7,166.7,0,0,1,94.38,112.6Z"/><path class="cls-2" d="M84.07,133.35a120.49,120.49,0,0,1-.72,13.24c-.17,1.28-.57,2.78-1.79,3.21-.7.24-1.48,0-2.19.23-1.45.39-2,2.38-1.31,3.7a4.42,4.42,0,0,0,3.81,2c.94,0,1.88-.14,2.82-.12,4.06.06,3.52,5.75.6,7.27a8.75,8.75,0,0,0-1.94,1c-2.6,2.33-.39,6.5,2.42,7.56,2.62,1,6.83-.92,8.22-3.23,1.29-2.16,1.27-4.86.82-7.33-.35-2-.69-3.93-1-5.89a110.55,110.55,0,0,1-1.71-18.9c0-1.78.09-3.55.19-5.32A18.3,18.3,0,0,1,84.07,133.35Z"/><path class="cls-2" d="M205.8,108.35c-2,19.56-7.75,38.9-6.43,58.52.66,9.77,3.07,19.36,3.64,29.14.35,6.05.35,12.37-1.42,18.22-1.52,5-5.41,11.37-11.65,9.66a3.79,3.79,0,0,1-1.73-.91c-1.21-1.23-.28-4,1.65-3.69a6.76,6.76,0,0,1,1.72.94c4.67,2.43,7.37-9.7,7.79-12.49a50.59,50.59,0,0,0,.1-12.22c-2.06-22.21-8-44.11-7.14-66.52.49-12.14,5.07-25.88-.62-37.38A6.1,6.1,0,0,0,189.58,89a2.45,2.45,0,0,0-3.14.36c-.26.34-.39.77-.64,1.12-.95,1.33-3,1-4.47.31-4.05-2-5.63-5.61-7.83-9.27a116.72,116.72,0,0,1-6.59-12.62c-2.29-5.12-4.26-10.89-1-16.16,5.41-8.7,17.64-4.42,23.82.74C205.33,66.45,207.7,89.45,205.8,108.35Z"/><path class="cls-3" d="M172.8,47.94a10.06,10.06,0,0,0-6.89,4.75c-3.27,5.27-1.3,11,1,16.16,1.37,3.08,2.93,6.07,4.56,9,.21-.25.41-.5.6-.75a26.39,26.39,0,0,0,5.55-15.89A25.84,25.84,0,0,0,172.8,47.94Z"/><path class="cls-3" d="M196.57,115a8.77,8.77,0,0,0,2.29.19c1.35.21,2.26,1.48,2.91,2.69a29.39,29.39,0,0,1,2.05,4.78c.63-3.84,1.21-7.68,1.66-11.53a25.07,25.07,0,0,1-1.54-6.87,9.28,9.28,0,0,0-.52-3.06A2.55,2.55,0,0,0,201,99.51a11,11,0,0,0-2,.73c-2.15.65-4.13-1.46-5.09-3.49-.41-.87-.8-1.8-1.26-2.67,1.91,5.2,2,10.79,1.54,16.43l.9,2.48A3.15,3.15,0,0,0,196.57,115Z"/><path class="cls-2" d="M167.33,80.81a54.31,54.31,0,0,1-5.59,8.95,52,52,0,0,1-28.66,18.63c-1.53.37-3.43.55-4.39-.69-.38-.5-.54-1.15-1-1.61-1.48-1.65-4,.37-5.35,2.14A50.64,50.64,0,0,1,102.89,124c-2.77,1.26-6.6,2-8.38-.45a7.21,7.21,0,0,0-1.3-1.81c-1.19-.87-2.82,0-4.09.72a29.66,29.66,0,0,1-15.52,4.07c-4.25-.08-9.39-2-9.78-6.28-.25-2.67,1.61-5.11,3.78-6.68s4.72-2.55,6.89-4.14a15.36,15.36,0,0,0,5.93-10.45c.32-2.58-.83-12.81-5.06-7.14-.32.42-.59,1-1.1,1.1-.74.22-1.42-.52-1.75-1.22a9.13,9.13,0,0,1,.42-8.06,18,18,0,0,1,6-6.15c1.92-1.31,5-2.76,6.42-4.56.88-1.09,1-3-.21-3.73-2.33-1.55-9.18-1.76-6.53-6.9C79.37,60.75,81.3,60.32,83,60c19.57-4.05,33.71-19.23,54.36-21,10.47-.89,21.77,1.7,29.85,8.68C176.13,55.41,171.87,71.66,167.33,80.81Z"/><g class="cls-4"><path class="cls-5" d="M142.44,48.6A35,35,0,0,0,127.92,50a43,43,0,0,0-12.79,6.57,64.23,64.23,0,0,0-10.55,10c-3.19,3.73-6.1,7.76-9.07,11.81a63.74,63.74,0,0,1,7.22-13.26,49.15,49.15,0,0,1,10.61-11,37,37,0,0,1,14-6.42A26.58,26.58,0,0,1,142.44,48.6Z"/></g><g class="cls-4"><path class="cls-5" d="M152.94,52.18a28.09,28.09,0,0,1,1.46,12.2A31.61,31.61,0,0,1,142.95,86,28,28,0,0,1,132,91.67a48.86,48.86,0,0,0,9.33-7.38A40.15,40.15,0,0,0,152.09,64,48.64,48.64,0,0,0,152.94,52.18Z"/></g><g class="cls-4"><path class="cls-5" d="M142.07,55.78c-5.64,1.85-10.17,5.64-13.85,10a73.48,73.48,0,0,0-9,14.65C116.51,85.57,114,91,110.65,95.93s-7.54,9.52-12.81,12.26c4.6-3.72,7.95-8.51,10.82-13.5s5.17-10.37,7.82-15.66,5.72-10.54,10-14.86S136.15,56.47,142.07,55.78Z"/></g><g class="cls-4"><path class="cls-5" d="M100.28,86.21a31.27,31.27,0,0,1-3.12,10.6,38.64,38.64,0,0,1-15,16.24,31.16,31.16,0,0,1-10.31,4,79.08,79.08,0,0,0,9-5.91A62.62,62.62,0,0,0,95.12,95.67,78.31,78.31,0,0,0,100.28,86.21Z"/></g></g></g></g></g></svg>