<svg xmlns="http://www.w3.org/2000/svg" viewBox="0 0 288 288"><defs><style>.cls-1{fill:#bd6f39;}</style></defs><title>nose07Монтажная область 46</title><g id="nose"><path id="nose07" class="cls-1" d="M141.24,139.84a29.8,29.8,0,0,1,0,6.21,35.47,35.47,0,0,1-1.28,6.13,32.55,32.55,0,0,1-6,11c-.67.82-1.4,1.58-2.13,2.34a3.55,3.55,0,0,0-1.32,2,3.63,3.63,0,0,0,.66,2.32A11.65,11.65,0,0,0,133.1,172a14.18,14.18,0,0,0,11.1,3.33,12.93,12.93,0,0,1-6.21.42,14.41,14.41,0,0,1-5.84-2.59,10.55,10.55,0,0,1-2.33-2.35,5.36,5.36,0,0,1-1.07-3.46,5.19,5.19,0,0,1,1.8-3.15c.69-.73,1.36-1.46,2-2.24a38.3,38.3,0,0,0,6-10.3A41.6,41.6,0,0,0,141.24,139.84Z"/></g></svg>