<svg xmlns="http://www.w3.org/2000/svg" viewBox="0 0 288 288"><defs><style>.cls-1{isolation:isolate;}.cls-2{fill:#f2bd56;}.cls-3{fill:#cc9c3e;}.cls-4{fill:#ff80ae;}.cls-5{fill:#bb5280;}.cls-6,.cls-8{fill:#fff;}.cls-6,.cls-7{mix-blend-mode:soft-light;}</style></defs><title>hair05_blondeМонтажная область 46</title><g class="cls-1"><g id="hair_fem" data-name="hair fem"><g id="hair05_fem" data-name="hair05 fem"><g id="hair05_fem_blonde" data-name="hair05 fem blonde"><path class="cls-2" d="M128.91,47.54a15.9,15.9,0,0,1,1,4.3,69.07,69.07,0,0,1,12.8-1.18,71,71,0,0,1,7.83.43,61.54,61.54,0,0,1,20.69,6,52.42,52.42,0,0,1,16.1,12.36,51.31,51.31,0,0,1,10.09,17.92,46.46,46.46,0,0,1,2.41,13.17,109.27,109.27,0,0,1-.77,13.65c-1.06,10.7-2.39,21.38-3.85,32-1.64,11.93-3.8,26-8.71,37.11-3.41,7.74-8.38,13.87-14.15,19.45a9.89,9.89,0,0,0-.14,1.59c-1,9.58-2.59,33.85,13.95,39.68,6.62,2.33,13.45,4.33,20.35,6.19a36.62,36.62,0,0,0,3-5.56c3.43-7.87,4.53-16.51,6.47-24.87a126,126,0,0,1,5.08-16.62c2.29-6,3.48-6.11,8.85-8.92,1.66-.87,3.11-2.79,2.37-4.51a6.36,6.36,0,0,1-3.59.93c-1.24-.18-2.39-1.47-1.94-2.64.65-1.69,3.14-1.09,4.91-1.48,2-.42,4.89-5,1.34-4.95a17.28,17.28,0,0,0-2.65.61c-2.43.43-4.83-1.34-5.9-3.56a14.81,14.81,0,0,1-.93-7.26c.58-10.08,1.67-20,2.1-30.11a283.44,283.44,0,0,0-.69-30,190.14,190.14,0,0,0-7-41.92,115.19,115.19,0,0,0-7.89-20,88,88,0,0,0-5.37-9.09c-1.45-2.13-4.35-4.66-3.67-7.51a10.6,10.6,0,0,1,1.77-3.24,5.12,5.12,0,0,0,1.11-3.45c-.18-1.22-1.5-2.32-2.64-1.84a4.48,4.48,0,0,0-1.2,1,7.26,7.26,0,0,1-6.88,1.19,21.42,21.42,0,0,1-6.33-3.56c-2.87-2.07-5.14-4.15-8.52-5.78a40.68,40.68,0,0,0-12.53-3.9c-9.15-1.13-18.4,1.83-26.41,6.4a31.74,31.74,0,0,0-11.15,10.34c-2.36,3.86-3.37,8.3-1.66,12.92C127.24,44.45,128.26,45.91,128.91,47.54Z"/><path class="cls-3" d="M171.26,57.06a52.42,52.42,0,0,1,16.1,12.36,51.31,51.31,0,0,1,10.09,17.92,46.46,46.46,0,0,1,2.41,13.17,109.27,109.27,0,0,1-.77,13.65c-1.06,10.7-2.39,21.38-3.85,32-1.64,11.93-3.8,26-8.71,37.11-3.41,7.74-8.38,13.87-14.15,19.45a9.89,9.89,0,0,0-.14,1.59c-.88,8.27-2.16,27.5,8.16,36.34,4.5-5.09,7.16-11.7,8.67-18.38,1.75-7.73,2.2-15.69,3.57-23.49,1.09-6.18,2.31-14,5.69-19.41,3.17-5,7.06-9.69,10-15a55,55,0,0,0,4.6-11.27,25.64,25.64,0,0,0,1-11.75c-1-5-4.2-9.36-5.91-14.2-4.33-12.26,1.52-25.75.45-38.72a36.51,36.51,0,0,0-8.63-20.62c-3.1-3.61-6.9-6.59-9.89-10.29-3.79-4.7-6.29-10.54-11-14.28a18,18,0,0,0-14.8-3.38,17.52,17.52,0,0,0-5,2c-3.61,2.11-5.93,5.49-7.57,9.34A61.27,61.27,0,0,1,171.26,57.06Z"/><path class="cls-4" d="M127.07,42.67a9.87,9.87,0,0,1,4.33-2.88c6.18-2.38,13-1.9,19.65-1.33,2.23.19,4.77.56,6,2.43s.6,4.32-.87,5.87a10,10,0,0,1-5.74,2.59c-2.11.34-4.27.37-6.35.82-2.78.61-5.35,2-8.12,2.56C130.31,54,122,49.19,127.07,42.67Z"/><path class="cls-5" d="M157.64,43.87a7.4,7.4,0,0,0-1.28-.82,25.34,25.34,0,0,0-12.61-3c-4.59.17-10.4.92-14.42,3.23-.64.37-3.8,2.4-3.82,3.27-.12,4.42,6,7.19,10.48,6.21,2.78-.61,5.35-2,8.12-2.56,2.09-.46,4.24-.48,6.35-.82a10,10,0,0,0,5.74-2.59A5.55,5.55,0,0,0,157.64,43.87Z"/><path class="cls-4" d="M133.4,44.92c7-1.22,16.61-3.11,23.22.11,2.39,1.17,4.43,3.88,3.5,6.37A5,5,0,0,1,157,54.18a14.74,14.74,0,0,1-4.29.58l-13.93.49c-3.67.13-9.59.45-12.48-2.41-4.2-4.17,3.09-7.22,6.52-7.81Z"/><path class="cls-2" d="M142.68,75.2c16.47-.17,37.23,0,44.06,18.28,4.93,13.2,7.73,26.06,6.85,40.12-.11,1.71.83,17.63,0,18a6.24,6.24,0,0,0,2.24-2,12.51,12.51,0,0,0,1.57-5.72c2.63-24.4,10.32-51.21-5.29-72.79a49.26,49.26,0,0,0-22.4-17.19c-10.83-4.13-22.7-4.92-34.17-4-11,.87-21.81,3.37-30.94,9.82A49.24,49.24,0,0,0,93.21,71.12c-15.61,21.58-7.92,48.39-5.29,72.79a12.51,12.51,0,0,0,1.57,5.72,6.24,6.24,0,0,0,2.24,2c1.24-4.44.43-10.08.5-14.67.17-11.55-.68-22.62,2.54-33.93a39.51,39.51,0,0,1,6.34-13.49C107,81.95,115.68,78.26,125,76.72A117.5,117.5,0,0,1,142.68,75.2Z"/><path class="cls-6" d="M162.52,70.35c-9.54-1.49-19.43-2.72-28.9-1.61C123,70,112.92,73.94,103.58,79c-1.6.87-3.81,1.69-5,.34s-.21-3.49.91-4.94C106,65.9,114.27,59.78,124.67,57c16.63-4.45,35.84-2.32,51.34,4.93,4.5,2.1,13.57,7.32,12.34,13.63a1.67,1.67,0,0,1-1.85,1.13,5.68,5.68,0,0,1-2.18-.91c-4.54-2.6-9.83-3.51-15-4.34Z"/><g class="cls-7"><path class="cls-8" d="M136.83,35a17,17,0,0,1,4.72-10.76,24.64,24.64,0,0,1,10.09-6.56A34.12,34.12,0,0,1,163.42,16,47.47,47.47,0,0,1,175,17.74c-3.89.19-7.72.24-11.48.59a46.07,46.07,0,0,0-10.9,2.18,28.33,28.33,0,0,0-9.44,5.4A22,22,0,0,0,136.83,35Z"/></g><g class="cls-7"><path class="cls-8" d="M153.56,31.23a26.72,26.72,0,0,1,16.93-6,27.58,27.58,0,0,1,9.2,1.47,42.55,42.55,0,0,1,8.25,4.12C193,34,198.19,37.6,201.55,43s4.45,11.41,5.31,17.29c-2-5.63-3.84-11.38-7.22-16s-8.29-7.86-13.28-11a42.44,42.44,0,0,0-7.64-4,28.28,28.28,0,0,0-8.3-1.8A31.14,31.14,0,0,0,153.56,31.23Z"/></g><g class="cls-7"><path class="cls-8" d="M213.07,73.76A101.22,101.22,0,0,1,220,90.37a48.51,48.51,0,0,1,2.19,18.12c-.56,6.14-2.25,11.92-3.42,17.67a59.24,59.24,0,0,0-1,17.6,42.72,42.72,0,0,1-1.25-18c.75-6,2.29-11.79,2.75-17.55A56.29,56.29,0,0,0,217.77,91C216.47,85.22,214.69,79.52,213.07,73.76Z"/></g><g class="cls-7"><path class="cls-8" d="M216.86,174.28a15,15,0,0,1-.62,6.76,45.5,45.5,0,0,1-2.6,6.27,109,109,0,0,0-5.07,12.1A106.72,106.72,0,0,0,205,212c-1,4.28-1.62,8.64-2.23,13.08a58.28,58.28,0,0,1,3-26.66q1.16-3.19,2.59-6.28c1-2,2.06-4,3.25-5.93C213.89,182.42,216.33,178.78,216.86,174.28Z"/></g></g></g></g></g></svg>