<svg xmlns="http://www.w3.org/2000/svg" viewBox="0 0 288 288"><defs><style>.cls-1{isolation:isolate;}.cls-2{fill:#753f11;}.cls-3{fill:#8b4c14;}.cls-4{mix-blend-mode:soft-light;}.cls-5{fill:#fff;}</style></defs><title>hair07_brownМонтажная область 46</title><g class="cls-1"><g id="hair_fem" data-name="hair fem"><g id="hair07"><g id="hair07_brown" data-name="hair07 brown"><path class="cls-2" d="M198.19,175a8.74,8.74,0,0,1-1.35-.55c-1.46-.54-5.86,1.75-8.28,3.54-.63,1.81-1.31,3.58-2.06,5.28-3.41,7.74-8.38,13.87-14.15,19.45a9.89,9.89,0,0,0-.14,1.59c-.13,1.21-.27,2.66-.37,4.27h0q0,.61-.08,1.26V210q0,.61-.06,1.24v.06a73.33,73.33,0,0,0,.16,8.77v0A8.27,8.27,0,0,0,175.5,219c1.25-.85,1.48-2.53,2.06-3.92a1.77,1.77,0,0,1,.51-.77.72.72,0,0,1,.87-.08c.81.55-.14,2.65-.26,3.39-.08.49-.16.93.26,1.25.83.67,2.61.55,3.56.3,4.81-1.21,6.91-8.21,8.61-12.23.06-.14.16-.32.32-.34s.34.28.36.49c.28,3.21-2,7.21-3.88,9.66a3.13,3.13,0,0,0-.48.77,1,1,0,0,0,.08.87,1.34,1.34,0,0,0,.91.36,14,14,0,0,0,9.24-2.91c3.58-3,5.31-7.68,6.83-12.11.69-2,1.37-4,2-6,.51-1.5,1-3,1.5-4.51,1-3,2-6,2.89-9.07.48-1.5.91-3,1.37-4.55q1.75-6.09,3.31-12.23c.24-1,.49-2.06.73-3.07.71-3.09,1.37-6.18,2-9.28-.08,0-1.09.38-2.08.79a.7.7,0,0,0-.18.08h0a1.54,1.54,0,0,0-.32.14,1.7,1.7,0,0,0-.34.14l-.32.14c-.28.14-.51.26-.67.36l-.12.08c-1.66,1.52-2.77,4.41-3.94,6.33a3.79,3.79,0,0,1-1.35,1.54,1.35,1.35,0,0,1-1.8-.44c-.22-.51,0-1.17-.3-1.62a1.08,1.08,0,0,0-1.52-.08,3.3,3.3,0,0,0-.85,1.46c-1,2.63-1.92,5.27-2.87,7.92a7.35,7.35,0,0,1-1.15,2.3A2.5,2.5,0,0,1,198.19,175Z"/><path class="cls-2" d="M63.84,147.36s0,.1,0,.14v0c0,.12,0,.22,0,.34.08.57.18,1.13.26,1.7.14.91.3,1.8.46,2.69s.32,1.8.49,2.69.38,2,.59,3q.5,2.52,1.07,5a.18.18,0,0,1,0,.1c.42,1.78.83,3.58,1.29,5.36.59,2.38,1.23,4.75,1.88,7.11q1.57,5.61,3.33,11.18c.55,1.78,1.13,3.56,1.7,5.34.53,1.6,1.07,3.21,1.6,4.79.75,2.26,1.52,4.49,2.3,6.75a60.09,60.09,0,0,0,2.81,6.71c1.39,2.83,3.09,6.35,6.16,7.56a2.82,2.82,0,0,0,1,.26,1.07,1.07,0,0,0,.49-.12.88.88,0,0,0,.22-.16.71.71,0,0,0,.14-.2c.26-.57-.3-1.15-.67-1.64a4.89,4.89,0,0,1-.42-.75,1.14,1.14,0,0,1,0-1.13c.26-.34.87-.24,1.56.63s1.19,2.69,2.16,3.29a8.6,8.6,0,0,0,3,.57c1.43.16,2.91.1,4.34.16a3.66,3.66,0,0,0,1.15-.1,1.2,1.2,0,0,0,.85-.71,1.64,1.64,0,0,0-.46-1.5c-.87-1.13-1.15-2.51-1.8-3.76A14.78,14.78,0,0,1,98,208.67c-.1-.46-.12-1.29.59-1.21s2.06,3.4,2.4,4a22.57,22.57,0,0,0,3.46,4.93c2.93,3,6.22,3.27,10.15,3.54.51,0,1,.06,1.53.06a84.9,84.9,0,0,0-.25-14.52s0-.09.07-.13l.06,0c-7-6.29-13-13.12-17-22.1A75,75,0,0,1,96,175c-1.49-2.34-2.19-4.25-2.08-3.61.16.83,4.16,14.79,3.63,15.45-.89,1.09-2.63.44-3.8-.36-6.39-4.37-10.93-11-13.88-18.23a6.42,6.42,0,0,1-1.07,0c-2.61-.24-4.59-2.55-5.48-5s-1-5.15-1.43-7.72c-.91-4.95-3.56-7-8.1-8.55a2.19,2.19,0,0,1,0,.38S63.84,147.35,63.84,147.36Z"/><path class="cls-3" d="M211.35,77.57a80.61,80.61,0,0,0-18.88-25.22C178.63,40,158.32,36.81,140.43,37c-10.39.14-20.88,1.31-30.7,4.77-16.94,6-30,19.82-37.69,35.77C62.65,97,60.61,119.45,63,141c.22,2,.51,4,.81,6,4.53,1.58,7.19,3.6,8.1,8.55.48,2.57.55,5.25,1.43,7.72s2.87,4.79,5.48,5a6.42,6.42,0,0,0,1.07,0c2.95,7.21,7.48,13.86,13.88,18.23,1.17.79,2.91,1.45,3.8.36a3,3,0,0,0,.26-2.43c-.2-1.14-.18-2.3-.38-3.43-.15-.86-.37-1.74-.53-2.61-.24-1.27-.92-4.63-1.24-5.87,0,0,1.13,1.5,1.33,1.74a3.4,3.4,0,0,0,1.48.91,1,1,0,0,0,1-.14.66.66,0,0,0,.12-.2c.12-.36-.16-.83-.42-1.19-2.18-2.91-3-6.22-3.92-9.66a83,83,0,0,1-1.76-11.24c-.55-5.4-1-10.81-1.29-16.21-.24-4-.42-7.94-.51-11.9-.12-4.36-.49-9,.12-13.26.51-3.52.93-7.56-1-10.77a6.16,6.16,0,0,0-2.32-2.32A69,69,0,0,1,90.28,86c6.4-26,27.71-37.57,53.73-37.57h.1c30.86,0,55,16.19,55.68,53.49a2.67,2.67,0,0,0-.53.14l-.23.1c-3.5,1.24-4.89,4.5-4.62,7.92a123.12,123.12,0,0,1,.34,14.55c-.12,2.93-.38,5.82-.73,8.73-.1.91-.2,1.84-.32,2.75-.51,3.46-.75,7.6-2.3,10.75-.61,1.27-1.37,2.43-1.92,3.7a1.89,1.89,0,0,0-.2,1.48.9.9,0,0,0,.65.61c.51.12,1.17-.24,1.68-.28,1.15-.06,1,1.21,1.07,2.1a31,31,0,0,1-.48,6.89,30.45,30.45,0,0,1-1.78,6c-.65,1.6-1.25,3.62-2.49,4.85-.51.51-1.11,1-.67,1.8a1.56,1.56,0,0,0,1.74.55c1.25-.28-1.55,3.34-1,3.89.21.2.94.07,1.37-.29,2.23-1.82,5.86-4.24,7.44-3.66a8.74,8.74,0,0,0,1.35.55,2.5,2.5,0,0,0,2.3-.93,7.35,7.35,0,0,0,1.15-2.3c1-2.65,1.92-5.29,2.87-7.92a3.3,3.3,0,0,1,.85-1.46,1.08,1.08,0,0,1,1.52.08c.32.46.08,1.11.3,1.62a1.35,1.35,0,0,0,1.8.44,3.79,3.79,0,0,0,1.35-1.54c1.17-1.92,2.28-4.81,3.94-6.33l.12-.08c.16-.1.4-.22.67-.36l.32-.14a1.7,1.7,0,0,1,.34-.14,1.54,1.54,0,0,1,.32-.14h0v0l.18-.06c1-.42,2-.79,2.08-.79.87-4.65,1.62-9.32,2.14-14C222.77,119.45,220.74,97,211.35,77.57Z"/><path class="cls-2" d="M195.78,68q-.88-1.71-1.9-3.36c-14-22.54-47.4-24.18-70.62-18.11-11.1,2.9-24,9.79-29.22,20.34-6.1,12.34-9.8,24.84-8.56,38.78.19,2.18.95,4.21,3,5.32,2.27,1.24,6.19.43,8.75.41,1.25,0,3.06.44,4-.46,1.31-1.29.94-3.74.9-5.38-.14-5.86-.49-13.05,3.74-17.75,1.29.7.93,1.75.6,2.88a21.87,21.87,0,0,0-.82,4.66,71.77,71.77,0,0,0-.06,13.9c.45,3.42,4.77,2.19,7.15,2.2l9.57,0c6.38,0,12.75-.06,19.12-.23,2.92-.08,5.84,0,8.76-.11,1.68,0,5.94.67,6.78-1.42a7.43,7.43,0,0,0,.24-2.44,6.64,6.64,0,0,1,1.37-3.71l.86,5.16c.4,2.42,2,2.13,3.94,2,3-.19,6-.2,9-.28,2.31-.06,4.63,0,6.94,0s3.43.06,3.66-2.51a34.88,34.88,0,0,0-.55-10,1.31,1.31,0,0,1,.14-1.19.88.88,0,0,1,1.23.18,2.54,2.54,0,0,1,.42,1.32l1.06,8.5c.74,5.92,9,3.68,13.1,3.11,3.57-.5,4.64-.94,4.67-4.78C203.09,92.65,201.57,79.27,195.78,68Z"/><g class="cls-4"><path class="cls-5" d="M92.86,99.93a37.62,37.62,0,0,1,.79-15,41.58,41.58,0,0,1,17.26-24.56,37.53,37.53,0,0,1,13.9-5.82,60.24,60.24,0,0,0-12.52,7.69A51.23,51.23,0,0,0,95.86,85.54,60,60,0,0,0,92.86,99.93Z"/></g><g class="cls-4"><path class="cls-5" d="M164.33,62.51a17.71,17.71,0,0,1,5.91,4.68,22.88,22.88,0,0,1,5.37,14.08,17.64,17.64,0,0,1-1.3,7.43,64.63,64.63,0,0,0-1-7.17,44.52,44.52,0,0,0-4.95-13A63.66,63.66,0,0,0,164.33,62.51Z"/></g><g class="cls-4"><path class="cls-5" d="M173.88,55.36a23.89,23.89,0,0,1,11.28,7.25A34.37,34.37,0,0,1,192,74.39a47.65,47.65,0,0,1,2.41,13.3,64.5,64.5,0,0,1-.81,13.33c-.52-4.42-.87-8.81-1.5-13.11a68.11,68.11,0,0,0-2.91-12.56,41.74,41.74,0,0,0-5.84-11.28A33,33,0,0,0,173.88,55.36Z"/></g><g class="cls-4"><path class="cls-5" d="M165.84,83.42a16.21,16.21,0,0,1,2.75,5.11,22.13,22.13,0,0,1,.76,11.49,16.11,16.11,0,0,1-2.06,5.43c-.16-2-.19-3.8-.25-5.63l-.27-5.41c-.11-1.79-.28-3.58-.43-5.4S165.95,85.39,165.84,83.42Z"/></g><g class="cls-4"><path class="cls-5" d="M129,105a21.13,21.13,0,0,1-2.11-6.74,28,28,0,0,1,1.46-14,21,21,0,0,1,3.47-6.15l-1.23,6.76c-.36,2.21-.68,4.4-.91,6.61s-.38,4.41-.48,6.65Z"/></g></g></g></g></g></svg>