<svg xmlns="http://www.w3.org/2000/svg" viewBox="0 0 288 288"><defs><style>.cls-1{fill:#ffac33;}.cls-2{fill:#bd5247;}</style></defs><title>clothes_01Монтажная область 36 копия</title><g id="clothes"><g id="clothes01"><path class="cls-1" d="M270.62,287.92H17.38l.4-2.44c1.14-6.82,2.92-14.48,9.79-19.17a67.48,67.48,0,0,1,18.4-9c6.78-2,13.82-3.75,20.64-5.47s13.65-3.47,20.43-5.41a16.46,16.46,0,0,0,1.23,1.2c11.59,10.23,28.7,20.27,46.9,27.55a24.32,24.32,0,0,0,17.68,0c18.18-7.28,35.29-17.32,46.86-27.55a16.66,16.66,0,0,0,1.25-1.2c6.78,1.94,13.67,3.68,20.43,5.41s13.86,3.51,20.64,5.47a67.49,67.49,0,0,1,18.4,9c6.87,4.67,8.65,12.36,9.79,19.17Z"/><path class="cls-2" d="M201,246.39a16.66,16.66,0,0,1-1.25,1.2c-11.57,10.23-28.67,20.27-46.86,27.55a24.32,24.32,0,0,1-17.68,0c-18.21-7.28-35.31-17.32-46.9-27.55a16.46,16.46,0,0,1-1.23-1.2l2-.56a10.4,10.4,0,0,1,9.24,1.71c11.87,9.06,26.52,16.63,39.3,21.75a17.37,17.37,0,0,0,12.94,0c12.86-5.15,27.64-12.79,39.53-21.93a9.78,9.78,0,0,1,8.72-1.62Z"/></g></g></svg>