<svg xmlns="http://www.w3.org/2000/svg" viewBox="0 0 288 288"><defs><style>.cls-1{fill:#ff6759;}.cls-2{fill:#ffac33;}.cls-3{fill:#ebd09e;}</style></defs><title>clothes_03Монтажная область 36 копия</title><g id="clothes"><g id="clothes03"><path class="cls-1" d="M270.1,285.69c-1.18-7.11-2.91-14.43-9.74-19.1a67.59,67.59,0,0,0-18.36-9c-6.77-1.95-13.82-3.74-20.64-5.47-11.51-2.92-23.42-5.95-34.52-9.86a16.58,16.58,0,0,1-1.71-.71,3.21,3.21,0,0,0-4.17,1.24c-6.69,11.16-20.71,18.86-37,18.86-16.53,0-30.75-8-37.3-19.43a2.45,2.45,0,0,0-3.25-1,16,16,0,0,1-2.28,1c-11.1,3.91-23,6.93-34.52,9.86-6.82,1.73-13.87,3.52-20.64,5.47a67.57,67.57,0,0,0-18.36,9c-6.83,4.67-8.56,12-9.74,19.1L17.53,288h253Z"/><path class="cls-2" d="M98.88,243c.28,15.54,20.37,28.09,45.13,28.09s44.86-12.55,45.13-28.09c-.76-.26-1.54-.49-2.3-.76a16.32,16.32,0,0,1-2.85-1.32,1.7,1.7,0,0,0-2.36.69c-6.39,11.78-20.81,20-37.63,20s-31.26-8.25-37.64-20.05a1.67,1.67,0,0,0-2.33-.67,16.1,16.1,0,0,1-2.86,1.34C100.42,242.52,99.64,242.75,98.88,243Z"/><path class="cls-3" d="M74.19,263.54c-.55-3.7-.21-8.21-1.26-11.74-1.16-3.91-3.38-3.67-6.7-2.87-3,.72-7.52,1.81-9.86,4.21-3.19,3.26-.93,6.25.09,10C58.4,270.28,59,279.81,58.67,288H76.8C77.41,280.22,75.3,271,74.19,263.54Z"/><path class="cls-3" d="M227.36,260.07c0-3.43.46-7.58-2-9.37a20.09,20.09,0,0,0-7.09-2.38c-8.8-1.14-9.45,7.2-9.46,14,0,5.45.34,10.89.34,16.38,0,2.71-.31,6.05-.29,9.26h21.06c-.19-3.41-1.08-7.31-1.19-9.27C228.33,272.46,227.36,266.39,227.36,260.07Z"/></g></g></svg>