<svg xmlns="http://www.w3.org/2000/svg" viewBox="0 0 288 288"><defs><style>.cls-1{isolation:isolate;}.cls-2{fill:#618a3d;}.cls-3{fill:#425e2a;}.cls-4{opacity:0.8;mix-blend-mode:overlay;}.cls-5{fill:#1d2119;}.cls-5,.cls-6{mix-blend-mode:soft-light;}.cls-7{fill:#415e29;}.cls-8{fill:none;}</style></defs><title>clothes_02Монтажная область 36 копия</title><g class="cls-1"><g id="clothes"><g id="clothes02"><path class="cls-2" d="M101.44,238.43s-5.37,3.28-25.26,10.93-42.49,12.76-50.93,18.79c-5.56,4-7.61,14-8.36,19.84H143C136.32,272.25,101.44,238.43,101.44,238.43Z"/><path class="cls-2" d="M186.08,239.24s5.17,5.08,25.74,10.67c27.77,7.55,42,13,50.46,19.05,5.56,4,7.61,13.19,8.36,19H145.25C151.89,272.25,186.08,239.24,186.08,239.24Z"/><path class="cls-3" d="M180.16,240.44c3.48-.67,7-1.84,6.83-3.85a9.87,9.87,0,0,0-2.17-4.85,75.06,75.06,0,0,0-10.79-.88A22.57,22.57,0,0,0,180.16,240.44Z"/><path class="cls-3" d="M107.85,240.44a22.42,22.42,0,0,0,6.13-9.58,75.1,75.1,0,0,0-10.81.88,9.87,9.87,0,0,0-2.17,4.85C100.89,238.6,104.37,239.77,107.85,240.44Z"/><g class="cls-4"><path class="cls-5" d="M196,275.86c3.68-1.64,7.14-4.32,8.49-8.09,2.21-6.14-1.47-12.42-1.77-18.56a8.41,8.41,0,0,1,.55-1.88,95,95,0,0,1-10.48-4.1,6.72,6.72,0,0,1-.35.6l-9.93,12c-8.25,9.94-16.58,20-22.12,31.65-.09.18-.17.37-.25.56h9.56a46,46,0,0,1,14.83-8.4C188.3,278.3,192.29,277.5,196,275.86Z"/><path class="cls-5" d="M105.6,255.79l-9.93-12a21.81,21.81,0,0,1-1-2c-2.48,1.12-5.79,2.54-10.05,4.27a17.85,17.85,0,0,1,.8,3.16c-.3,6.14-4,12.42-1.77,18.56,1.35,3.77,4.81,6.45,8.49,8.09s7.67,2.44,11.49,3.74c5,1.7,9.66,5.12,13.78,8.4H127.6C122.06,276.46,113.79,265.65,105.6,255.79Z"/></g><path class="cls-2" d="M199.73,265.12a140.94,140.94,0,0,1-2.47-15.45c-.08-.72-.15-1.45-.22-2.17-.31-3.14-.53-6.2-.57-8.76-.06-4.08-5.86-6.05-11.64-7a75.06,75.06,0,0,0-10.79-.88,27.79,27.79,0,0,0,1.71,3.9,26.87,26.87,0,0,1,10.91,2.91c-.93,1.36-3.71,2.22-6.51,2.76-.72.14-1.45.26-2.14.36a38.32,38.32,0,0,0-5.35,3.61c-.42.36-.84.74-1.24,1.14a59.68,59.68,0,0,0-6.13,7.85c-3,4.24-5.75,8.63-8.39,13.08-3.76,6.34-9.62,12.15-12.91,18.75-.35.7-1.38,2.06-1.72,2.76h23.64c.63-.73,1.25-1.42,1.87-2.1C186.15,266,201,270.05,199.73,265.12Z"/><path class="cls-2" d="M143.38,285c-3.29-6.6-8.53-12.2-12.29-18.54-2.64-4.46-5.41-8.85-8.39-13.08a59.69,59.69,0,0,0-6.13-7.85c-.4-.4-.81-.78-1.24-1.14A38.32,38.32,0,0,0,110,240.8c-.69-.1-1.41-.22-2.13-.36-2.8-.54-5.59-1.4-6.52-2.76a26.82,26.82,0,0,1,11-2.91,27.66,27.66,0,0,0,1.66-3.9,75.1,75.1,0,0,0-10.81.88c-5.77.95-11.57,2.92-11.64,7,0,2.56-.26,5.62-.57,8.76-.07.72-.14,1.44-.22,2.17a141,141,0,0,1-2.47,15.45c-1.23,4.93,13.58.86,31.94,20.78.62.67,1.24,1.37,1.87,2.1h23.16C144.91,287.3,143.73,285.72,143.38,285Z"/><g class="cls-6"><path class="cls-7" d="M165.63,252.92h56.87c-3.33-1-6.87-2-10.69-3-3.25-.88-6.07-1.75-8.59-2.59-1.35-.45-2.59-.89-3.75-1.32H171A60,60,0,0,0,165.63,252.92Z"/><path class="cls-7" d="M122.3,252.83l-1.2-1.7h0A48.13,48.13,0,0,0,117,246H84.68l-.09,0c-2.47,1-5.23,2.1-8.4,3.32s-6.56,2.42-9.88,3.55h56.06Z"/><path class="cls-7" d="M156,268.07h-.1c-1.52,2.34-3.27,4.62-5,6.91H267.05c-.28-.56-.58-1.1-.89-1.62l-.13-.21a17.82,17.82,0,0,0-1-1.52l0-.06a14.51,14.51,0,0,0-1.08-1.22l-.3-.29a11.84,11.84,0,0,0-1.29-1.09c-.42-.3-.91-.6-1.4-.9Z"/><path class="cls-7" d="M132.09,268.07H25.39l-.14.09a16.34,16.34,0,0,0-5,6.82H136.92C135.26,272.7,133.6,270.42,132.09,268.07Z"/></g><g class="cls-6"><polygon class="cls-8" points="145.24 287.99 145.25 288 145.25 287.99 145.24 287.99"/><path class="cls-2" d="M182.46,231.41c.78.09,1.57.2,2.36.33C184,231.61,183.24,231.5,182.46,231.41Z"/><path class="cls-2" d="M184.83,231.74c.56.09,1.13.2,1.69.31C186,231.93,185.39,231.83,184.83,231.74Z"/><path class="cls-2" d="M179.75,231.13c.7.06,1.44.13,2.19.22C181.19,231.26,180.45,231.18,179.75,231.13Z"/><path class="cls-2" d="M103.17,231.74c.86-.14,1.72-.26,2.57-.35C104.9,231.48,104,231.59,103.17,231.74Z"/><path class="cls-2" d="M106.16,231.33c.82-.09,1.61-.17,2.37-.23C107.78,231.16,107,231.24,106.16,231.33Z"/><path class="cls-7" d="M25.25,268.16a11.07,11.07,0,0,0-1.33,1.15V288h6.8V265.15A33.53,33.53,0,0,0,25.25,268.16Z"/><path class="cls-7" d="M49.88,258.25V288h6.8V256.08Z"/><path class="cls-7" d="M76.18,249.37l-.33.12V288h6.8V246.83C80.69,247.61,78.55,248.45,76.18,249.37Z"/><path class="cls-7" d="M101.81,238.18V288h6.8V240.58C105.95,240.12,103.15,239.37,101.81,238.18Z"/><path class="cls-7" d="M105.74,231.38l.42-.05Z"/><path class="cls-7" d="M108.62,231.1h0Z"/><path class="cls-7" d="M101.81,237.44a29,29,0,0,1,6.8-2.29V231.1h-.09c-.75.06-1.55.13-2.37.23l-.42.05c-.84.1-1.7.21-2.57.35l-1.36.25Z"/><path class="cls-7" d="M131.09,266.48c-1.08-1.81-2.19-3.6-3.31-5.39V288h6.8V271.75C133.35,270,132.16,268.28,131.09,266.48Z"/><path class="cls-7" d="M156.91,266.48c-.95,1.59-2,3.16-3.16,4.7V288h6.8V260.54Q158.69,263.49,156.91,266.48Z"/><path class="cls-7" d="M180.16,240.43h0l-.13,0,.13,0Z"/><path class="cls-7" d="M180.15,240.43h0l-.13,0-.31.06V288h6.8V237.83C185.49,239.1,182.83,239.91,180.15,240.43Z"/><path class="cls-7" d="M179.71,231.12h0Z"/><path class="cls-7" d="M181.94,231.34l.52.06Z"/><polygon class="cls-7" points="186.52 232.05 186.51 232.05 186.52 232.05 186.52 232.05"/><path class="cls-7" d="M186.52,237.6V232h0c-.56-.11-1.12-.22-1.69-.31-.79-.13-1.58-.24-2.36-.33l-.52-.06c-.75-.09-1.49-.16-2.19-.22h0v4.1A29.41,29.41,0,0,1,186.52,237.6Z"/><path class="cls-7" d="M211.82,249.92c-2.24-.61-4.27-1.21-6.14-1.8V288h6.8V250.1Z"/><path class="cls-7" d="M231.65,255.68V288h6.8V257.91Q235.27,256.82,231.65,255.68Z"/><path class="cls-7" d="M262.28,269a50.62,50.62,0,0,0-4.66-2.93v22h6.8V270.95A12.59,12.59,0,0,0,262.28,269Z"/></g></g></g></g></svg>