<svg xmlns="http://www.w3.org/2000/svg" viewBox="0 0 288 288"><defs><style>.cls-1{fill:#ff6759;}</style></defs><title>mouth05Монтажная область 46</title><g id="mouth"><g id="mouth05"><path class="cls-1" d="M128.2,187.56c1.26.1,2.47.6,3.62.71a13.31,13.31,0,0,0,3.51-.16l3.61-.68a16.68,16.68,0,0,1,3.9-.21c2.59.2,5,.85,7.33,1.08a9.23,9.23,0,0,0,3.45-.16c1.14-.28,2.3-.84,3.54-1.1-1.06.67-2,1.43-3.19,2a8.83,8.83,0,0,1-3.85.79c-2.6.07-5.06-.5-7.41-.64s-4.62.34-7.23.44a11.36,11.36,0,0,1-3.88-.44A34.86,34.86,0,0,1,128.2,187.56Z"/><path class="cls-1" d="M139.74,194.49a3.67,3.67,0,0,1,2.94-1.24,4,4,0,0,1,2.94,1.24A17.59,17.59,0,0,0,139.74,194.49Z"/><path class="cls-1" d="M145.65,183.36a2.84,2.84,0,0,1-1.25,1.2,4.09,4.09,0,0,1-1.71.33,3.59,3.59,0,0,1-1.72-.38,3.82,3.82,0,0,1-1.26-1.16c.57.11,1.07.34,1.54.43a7.83,7.83,0,0,0,1.45.11,11.77,11.77,0,0,0,1.48-.06A8.49,8.49,0,0,0,145.65,183.36Z"/></g></g></svg>