<svg xmlns="http://www.w3.org/2000/svg" viewBox="0 0 288 288"><defs><style>.cls-1{fill:#542e23;}.cls-2{fill:#c94e2b;}.cls-3{fill:#f8f9f3;}.cls-4{fill:#ffa8a1;}</style></defs><title>mouth04Монтажная область 46</title><g id="mouth"><g id="mouth04"><g id="mouth01_fem" data-name="mouth01 fem"><path class="cls-1" d="M161.17,182.24a22.11,22.11,0,0,1-18.48,9.67,21.84,21.84,0,0,1-18.48-9.67,98.84,98.84,0,0,0,18.43,1.66h.11A98.38,98.38,0,0,0,161.17,182.24Z"/><path class="cls-2" d="M142.68,183.91h0a93.15,93.15,0,0,0,19.13-1.84,35.72,35.72,0,0,1-5-.12c-1.75-.28-2.87-.52-4.6-.86a16,16,0,0,0-6,.37c-.52.12-1,.24-1.56.34a12.75,12.75,0,0,1-1.52.24,6.72,6.72,0,0,1-1.56-.07l-.93-.17-1.47-.33a18.24,18.24,0,0,0-6-.37c-1.76.22-2.77.62-4.54.8a44.51,44.51,0,0,1-5.08.19A93.15,93.15,0,0,0,142.68,183.91Z"/><path class="cls-2" d="M124.15,182.13a22.42,22.42,0,0,0,37.06,0,14.45,14.45,0,0,1-6,9.93,21.7,21.7,0,0,1-25.11,0A14.48,14.48,0,0,1,124.15,182.13Z"/><path class="cls-3" d="M142.69,188.42c8.26,0,15-2.52,16-5.77a102.49,102.49,0,0,1-16,1.24h-.11a103,103,0,0,1-16-1.25C127.69,185.9,134.43,188.42,142.69,188.42Z"/></g><path class="cls-4" d="M127.27,188.43a10.63,10.63,0,0,0,.7.81,18.61,18.61,0,0,0,4.71,3.92,10.31,10.31,0,0,0,1.34.63,8.36,8.36,0,0,0,1.5.42c1.19.21,1.49-.75.59-1.37a11.82,11.82,0,0,0-2.7-1,14.82,14.82,0,0,1-2.76-1.37,17.66,17.66,0,0,1-1.66-1.21,16.75,16.75,0,0,1-1.26-1.14c-.14-.14-.42-.44-.67-.35S127,188.12,127.27,188.43Z"/><path class="cls-4" d="M136.39,181.62a4.45,4.45,0,0,0-1.91-.33,6.37,6.37,0,0,0-1.82.06c-.38.1-1.93.44-1.39,1a.94.94,0,0,0,.39.21,9.59,9.59,0,0,0,4.12.18C136.51,182.63,137.48,182.19,136.39,181.62Z"/></g></g></svg>