<svg xmlns="http://www.w3.org/2000/svg" viewBox="0 0 288 288"><defs><style>.cls-1{fill:#c97e4f;}</style></defs><title>nose_03Монтажная область 36 копия</title><g id="nose"><path id="nose03" class="cls-1" d="M140.8,126.54a39.71,39.71,0,0,1,1.55,16.9,31.86,31.86,0,0,1-.74,4.28,22.81,22.81,0,0,1-1.41,4.3,10.91,10.91,0,0,1-3.33,3.49c-1.19.87-2.32,1.63-3.31,2.45a9.22,9.22,0,0,0-3.53,6.21,14.14,14.14,0,0,0-.14,1.86,4.27,4.27,0,0,0,.34,1.57,7.8,7.8,0,0,0,2.13,2.92c1.82,1.82,4.62,2.08,7.31,1.88s5.53-1.17,7.11-3.57a6.91,6.91,0,0,1-2.86,3.14,12.57,12.57,0,0,1-4.07,1.58,13.56,13.56,0,0,1-4.44.24,9.86,9.86,0,0,1-7.53-5.14,6.88,6.88,0,0,1-.71-2.47,15.16,15.16,0,0,1,0-2.34,11.82,11.82,0,0,1,1.36-4.52,13,13,0,0,1,3-3.62c2.31-1.94,5-3.17,6-5A23.07,23.07,0,0,0,139,147c.39-1.29.68-2.62,1-4A59.56,59.56,0,0,0,140.8,126.54Z"/></g></svg>