<svg xmlns="http://www.w3.org/2000/svg" viewBox="0 0 288 288"><defs><style>.cls-1{fill:#bf6f39;}</style></defs><title>nose_01Монтажная область 36 копия</title><g id="nose"><path id="nose01" class="cls-1" d="M140,124.53c-.32,4.58-.46,9.14-.65,13.7s-.44,9.12-.73,13.68c-.19,2.28-.24,4.5-.31,6.75,0,1.12,0,2.24,0,3.35s-.08,2.34,0,3.35a4.26,4.26,0,0,0,.75,2.48,3.12,3.12,0,0,0,1,.71,7.51,7.51,0,0,0,1.52.42,36.36,36.36,0,0,0,7,.07,20.86,20.86,0,0,1-7.19,1.62,9.66,9.66,0,0,1-2-.21,5,5,0,0,1-2-1,6.09,6.09,0,0,1-1.82-3.77,63.59,63.59,0,0,1,0-14c.43-4.55.95-9.11,1.6-13.65A93.21,93.21,0,0,1,140,124.53Z"/></g></svg>