<svg xmlns="http://www.w3.org/2000/svg" viewBox="0 0 288 288"><defs><style>.cls-1{fill:#c97e4f;}</style></defs><title>nose_02Монтажная область 36 копия</title><g id="nose"><path id="nose02" class="cls-1" d="M141.6,126.54a90.81,90.81,0,0,1-2.4,14.7c-1.1,4.81-2.36,9.53-3.36,14.28-.26,1.18-.5,2.37-.72,3.56a12.65,12.65,0,0,0-.21,3.28,10.73,10.73,0,0,0,2.09,6,7.31,7.31,0,0,0,5.27,2.53,47.4,47.4,0,0,0,6.42-.57,27.29,27.29,0,0,1-6.39,2,8.08,8.08,0,0,1-6.69-2.31,12.39,12.39,0,0,1-3.14-7.33,14,14,0,0,1,.14-4.11c.2-1.24.43-2.47.68-3.7,1-4.89,2.44-9.62,3.92-14.28S140.21,131.28,141.6,126.54Z"/></g></svg>