<svg xmlns="http://www.w3.org/2000/svg"><symbol viewBox="0 0 18 18" id="icon-day-forward"><title>day-forward</title> <path fill-rule="evenodd" clip-rule="evenodd" d="M2 9C2 5.134 5.13403 2 9 2C10.3328 2 11.5781 2.37195 12.6384 3.01846L11.4142 4.24265L17.071 5.65686L15.6569 0L14.0841 1.57275C12.6378 0.581055 10.8864 0 9 0C4.02942 0 0 4.02945 0 9C0 13.9706 4.02942 18 9 18C11.5737 18 13.8965 16.9183 15.5355 15.1876L14.0834 13.8124C12.8063 15.1609 11.002 16 9 16C5.13403 16 2 12.866 2 9Z" fill="black" fill-opacity="0.6"/> <path d="M4.31641 7H0.347656V6.14062L2.17578 4.21875C2.6263 3.70573 2.85156 3.29818 2.85156 2.99609C2.85156 2.7513 2.79818 2.5651 2.69141 2.4375C2.58464 2.3099 2.42969 2.24609 2.22656 2.24609C2.02604 2.24609 1.86328 2.33203 1.73828 2.50391C1.61328 2.67318 1.55078 2.88542 1.55078 3.14062H0.230469C0.230469 2.79167 0.317708 2.47005 0.492188 2.17578C0.666667 1.87891 0.908854 1.64714 1.21875 1.48047C1.52865 1.3138 1.875 1.23047 2.25781 1.23047C2.8724 1.23047 3.34505 1.3724 3.67578 1.65625C4.00911 1.9401 4.17578 2.34766 4.17578 2.87891C4.17578 3.10286 4.13411 3.32161 4.05078 3.53516C3.96745 3.74609 3.83724 3.96875 3.66016 4.20312C3.48568 4.4349 3.20312 4.74609 2.8125 5.13672L2.07812 5.98438H4.31641V7ZM8.45703 4.77734H9.03516V5.79297H8.45703V7H7.14062V5.79297H4.94141L4.86328 4.98828L7.14062 1.32422V1.3125H8.45703V4.77734ZM6.11719 4.77734H7.14062V3.02734L7.05859 3.16016L6.11719 4.77734Z" transform="translate(4.5 4.5)" fill="black" fill-opacity="0.6"/> </symbol><symbol id="icon-fast-speed"><title>fast-speed</title> <path fill="#000" fill-rule="evenodd" d="M16 9.5V12l10-6-10-6v2.5L21.9 6 16 9.5z" clip-rule="evenodd"/> <path fill="#000" d="M10 6L0 0v12l10-6z"/> <path fill="#000" fill-rule="evenodd" d="M8 9.5V12l10-6L8 0v2.5L13.9 6 8 9.5z" clip-rule="evenodd"/> </symbol><symbol id="icon-logo"><title>logo</title> <path fill="#36B2B2" d="M22 9.19v.1a5.15 5.15 0 0 1-5.1 5.05c-.86 0-1.66-.21-2.37-.6a8.68 8.68 0 0 0 1.56-2.55c.25.1.52.16.8.16 1.15 0 2.1-.95 2.12-2.11a2.15 2.15 0 0 0-2.12-2.12c-.2 0-.41.03-.6.09h-4.07a5.13 5.13 0 0 1 4.67-3.08A5.15 5.15 0 0 1 22 9.19H22zm-6.48 1.4c.02-.04.14-.48.2-.91L16 7.96H7.72v2.99H12a5 5 0 0 1-9.01-2.97 5 5 0 0 1 8.13-3.88l1.16.94 1.88-2.32L13 1.78a7.99 7.99 0 1 0 2.5 8.9l.02-.09z"/> </symbol><symbol viewBox="0 0 10 12" id="icon-pause"><title>pause</title> <rect width="4" height="12" fill="black" fill-opacity="0.6"/> <rect width="4" height="12" transform="translate(6)" fill="black" fill-opacity="0.6"/> </symbol><symbol viewBox="0 0 10 12" id="icon-play"><title>play</title> <path d="M10 6L0 0V12L10 6Z" fill="black" fill-opacity="0.6"/> </symbol><symbol viewBox="0 0 18 12" id="icon-slow-speed"><title>slow-speed</title> <path fill-rule="evenodd" clip-rule="evenodd" d="M0 2.39999L6 6L0 9.60001V12L10 6L0 0V2.39999Z" transform="translate(8)" fill="white"/> <path d="M10 6L0 0V12L10 6Z" fill="white"/> </symbol></svg>