<svg xmlns="http://www.w3.org/2000/svg" viewBox="0 0 288 288"><defs><style>.cls-1{fill:#542e23;}.cls-2{fill:#c97e4f;}.cls-3{fill:#fff;}.cls-4{fill:#b8634d;}</style></defs><title>mouth_01Монтажная область 36 копия</title><g id="mouth"><g id="mouth01"><path class="cls-1" d="M142.47,192.78c-4.06,0-17.3-.84-17.3-11.72a3.82,3.82,0,0,1,0-.51l0-.27.53,0,.12-.51c.47.09,11.13,1.2,12.26,1.27,1.53.1,3.07.17,4.6.2h1.13a63.87,63.87,0,0,0,7-.37l.81-.08c4.54-.44,7.11-.75,7.66-.92a.52.52,0,0,1,.31-.12h0a.53.53,0,0,1,.53.49l0,.27a3.82,3.82,0,0,1,0,.51c0,6.15-4.15,10-12.34,11.29A34.71,34.71,0,0,1,142.47,192.78Z"/><path class="cls-2" d="M125.78,180.32c0,.05,11.4,1.22,12.34,1.29,1.54.11,3.08.18,4.62.2h1.18a63.08,63.08,0,0,0,7-.37c.67-.08,8.76-.8,8.75-1.12,0,.25.08.49.08.74,0,7.07-5.75,9.77-11.89,10.77a34.07,34.07,0,0,1-5.41.42c-7.73,0-16.78-2.54-16.77-11.19,0-.25.06-.49.08-.74m33.93-1.05h-.05a1.06,1.06,0,0,0-.52.16c-.5.13-2.26.38-7.52.89l-.78.08a62.38,62.38,0,0,1-6.91.37h-1.16c-1.46,0-3-.09-4.57-.2-.87-.06-11.5-1.15-12.2-1.27l-.18,1h0l-1.06-.08c0,.08,0,.15,0,.23a4.19,4.19,0,0,0-.05.58,10.59,10.59,0,0,0,6,9.77c3.85,2,8.53,2.48,11.79,2.48a35.27,35.27,0,0,0,5.58-.44c8.48-1.38,12.78-5.36,12.78-11.81a4.2,4.2,0,0,0-.05-.58c0-.08,0-.15,0-.23a1.06,1.06,0,0,0-1.06-1Z"/><path class="cls-3" d="M151,181.44a64.58,64.58,0,0,1-8.21.37c-1.54,0-3.09-.09-4.62-.2-.94-.06-12.35-1.23-12.34-1.29,0,.25-.08.49-.08.74a10.16,10.16,0,0,0,.64,3.66,86.57,86.57,0,0,0,32.82,0,10.36,10.36,0,0,0,.62-3.66c0-.25-.06-.49-.08-.74C159.71,180.65,151.63,181.37,151,181.44Z"/><path class="cls-4" d="M142.74,187.52c-4.74,0-8.87,1-11.09,2.59,4.82,2.36,11.56,2.48,16.23,1.72a22.61,22.61,0,0,0,5.92-1.73C151.59,188.56,147.47,187.52,142.74,187.52Z"/></g></g></svg>