<svg xmlns="http://www.w3.org/2000/svg" viewBox="0 0 288 288"><defs><style>.cls-1{fill:#783d37;}.cls-2{fill:#c97e4f;}</style></defs><title>mouth_03Монтажная область 36 копия</title><g id="mouth"><g id="mouth03"><path class="cls-1" d="M157.81,187.36a19.44,19.44,0,0,1-7.65,4,23.89,23.89,0,0,1-8.72.66,23.51,23.51,0,0,1-8.37-2.54,18.62,18.62,0,0,1-6.54-5.58A29.32,29.32,0,0,0,141.65,190,30.48,30.48,0,0,0,157.81,187.36Z"/><path class="cls-2" d="M123.88,184.88a2.36,2.36,0,0,1,.34-3.06,2.39,2.39,0,0,1,3.09-.26,3.74,3.74,0,0,0-2.4,1A3.66,3.66,0,0,0,123.88,184.88Z"/></g></g></svg>