<svg xmlns="http://www.w3.org/2000/svg" viewBox="0 0 288 288"><defs><style>.cls-1{fill:#542e23;}.cls-2{fill:#b6634d;}.cls-3{fill:#fff;}.cls-4{fill:#bc4033;}</style></defs><title>mouth07Монтажная область 46</title><g id="mouth"><g id="mouth07"><path class="cls-1" d="M159.08,182.68a33.42,33.42,0,0,1-3,6.6,13,13,0,0,1-5.5,5.07c-2.63,1.19-5.62,1.17-8.53,1.13a23.44,23.44,0,0,1-5-.45A7.39,7.39,0,0,1,133,192.5c-1.23-1.62-1.46-4.78-1.54-7a41.5,41.5,0,0,0,12.35,1.8A28.08,28.08,0,0,0,159.08,182.68Z"/><path class="cls-2" d="M139.87,192.62a17,17,0,0,0-4.71,1.66,9.28,9.28,0,0,0,2,.76,23.44,23.44,0,0,0,5,.45c2.91,0,5.89.06,8.53-1.13a10.77,10.77,0,0,0,2.28-1.44,39.23,39.23,0,0,0-5-.5A34,34,0,0,0,139.87,192.62Z"/><path class="cls-3" d="M143.76,187.25A28.29,28.29,0,0,1,133.55,186s-.1,2,.83,2.58a9.65,9.65,0,0,0,4,1.08c4.66.47,9.68.91,13.95-1,1.63-.73,4.27-2.33,5-4.9C152.9,186.81,149.17,187.15,143.76,187.25Z"/><path class="cls-4" d="M128.31,184.3c1.08.26,2.14.58,3.2.88h0a48.52,48.52,0,0,0,14.88,1.2,35.68,35.68,0,0,0,7.28-1.47,23.75,23.75,0,0,0,6.71-3.33,17.44,17.44,0,0,1-6.34,4.31,25.55,25.55,0,0,1-7.51,1.92,33.78,33.78,0,0,1-15.19-2.08h0C130.31,185.26,129.3,184.81,128.31,184.3Z"/><path class="cls-4" d="M159.24,180.13a6.4,6.4,0,0,0,1.18,1.39,6.17,6.17,0,0,0,1.62.84,2.81,2.81,0,0,1-1,0,2.45,2.45,0,0,1-.93-.44,2.65,2.65,0,0,1-.63-.81A2.52,2.52,0,0,1,159.24,180.13Z"/></g></g></svg>