<svg xmlns="http://www.w3.org/2000/svg" viewBox="0 0 288 288"><defs><style>.cls-1{fill:#ff6759;}.cls-2{fill:#bc4033;}.cls-3{fill:#ffa8a1;}</style></defs><title>mouth06Монтажная область 46</title><g id="mouth"><g id="mouth06"><path class="cls-1" d="M158.2,185c-2.36-.52-4.38-2.26-6.61-3.13a7.87,7.87,0,0,0-1-.29l-.2-.06a5.86,5.86,0,0,0-1.2-.13,4.61,4.61,0,0,0-.91.09,12.11,12.11,0,0,0-3.19,1.39,6.26,6.26,0,0,1-2.44.8c-2.32-.17-4-2.29-6.51-2.27a5.87,5.87,0,0,0-1.19.13l-.21.06a7.66,7.66,0,0,0-1,.3c-2.19.85-4.19,2.56-6.51,3.09l-.16,0a7,7,0,0,0,1.1,1.25,28.16,28.16,0,0,0,7,5.8,15.59,15.59,0,0,0,7.46,1.81c6.13,0,10.43-3.45,14.49-7.61l.45-.47c.28-.29.5-.54.6-.67s.07-.11.05-.11Z"/><path class="cls-2" d="M125.85,184.38a31,31,0,0,0,8.3,2c2.83.35,5.68.59,8.54.66a33.5,33.5,0,0,0,8.47-.6c2.81-.49,5.59-1.18,8.37-1.95a46.51,46.51,0,0,1-8.21,2.7,30.94,30.94,0,0,1-8.65.84,67.23,67.23,0,0,1-8.62-.9A24,24,0,0,1,125.85,184.38Z"/><path class="cls-3" d="M136.35,182.7a.94.94,0,0,1,.74.63.93.93,0,0,1-.32.87,2.42,2.42,0,0,1-.86.45c-.81.28-3.72,1.51-3.39-.15C132.8,183.12,135.2,182.46,136.35,182.7Z"/><path class="cls-3" d="M141.36,190a3.72,3.72,0,0,1,1.28.18,1.13,1.13,0,0,1,.75,1c0,1.15-1.65,1.09-2.43,1.1a13.54,13.54,0,0,1-7.2-2.47,10.25,10.25,0,0,1-3.07-2.93c.13.22.51.26.72.35a5.26,5.26,0,0,1,.78.43,13.19,13.19,0,0,0,1.81.94A21.08,21.08,0,0,0,141.36,190Z"/></g></g></svg>