<svg xmlns="http://www.w3.org/2000/svg" viewBox="0 0 288 288"><defs><style>.cls-1{fill:#fff;}.cls-2{fill:#c2927d;}.cls-3{fill:#303030;}.cls-4{fill:#2480a1;}.cls-5{fill:#080e0f;}</style></defs><title>eyes06Монтажная область 46</title><g id="eyes"><g id="eyes06"><path class="cls-1" d="M157.07,135.44l0-.09a10.26,10.26,0,0,1,7.33-6.72,13.51,13.51,0,0,1,11.15,1.8,11.76,11.76,0,0,1,5,10,11.45,11.45,0,0,1-3.88,8c-2.21,1.82-6.42,2-9.18,2-2.23-.06-6.21-.29-8-1.8-1.55-1.31-2.3-4.3-2.65-6.2A15.56,15.56,0,0,1,157.07,135.44Z"/><path class="cls-2" d="M159.43,148.46l.11.12c1.8,1.51,5.77,1.74,8,1.8,2.76.07,7-.16,9.18-2a9.75,9.75,0,0,0,1.76-1.93C173.85,150.12,165.45,150.21,159.43,148.46Z"/><ellipse class="cls-3" cx="168.51" cy="139.97" rx="5.56" ry="6.23"/><ellipse class="cls-1" cx="165.75" cy="138.55" rx="1.47" ry="1.64"/><path class="cls-4" d="M179,135c.13.11.41.12.52.25a12,12,0,0,0-4-4.86,13.51,13.51,0,0,0-11.15-1.8,10.26,10.26,0,0,0-7.33,6.72l0,.09a13.16,13.16,0,0,0-.42,2.62A14.9,14.9,0,0,1,179,135Z"/><path class="cls-5" d="M182.3,135.19a7.94,7.94,0,0,1-3.6-.93,6.1,6.1,0,0,0,2.83,0,4,4,0,0,0,3.17-2.82,6.47,6.47,0,0,1-3.38,1.86,12.7,12.7,0,0,1-3.64.31c-.21-.18-.42-.37-.64-.54a14.54,14.54,0,0,0-3-1.63,14.28,14.28,0,0,0-6.75-1,13.21,13.21,0,0,0-6.4,2.43,12.9,12.9,0,0,0-4.26,5.16,15.43,15.43,0,0,1,17-5.47,19.16,19.16,0,0,1,3,1.16,13.87,13.87,0,0,1,1.43.77,9.71,9.71,0,0,0,1.13.68,4.6,4.6,0,0,0,.65.4,6,6,0,0,0,2.39.59,7.21,7.21,0,0,0,2.42-.3,5,5,0,0,0,2.11-1.16A14.88,14.88,0,0,1,182.3,135.19Z"/><path class="cls-1" d="M128.29,135.44l0-.09a10.26,10.26,0,0,0-7.33-6.72,13.51,13.51,0,0,0-11.15,1.8,11.76,11.76,0,0,0-5,10,11.45,11.45,0,0,0,3.88,8c2.21,1.82,6.42,2,9.18,2,2.23-.06,6.21-.29,8-1.8,1.55-1.31,2.3-4.3,2.65-6.2A15.56,15.56,0,0,0,128.29,135.44Z"/><path class="cls-2" d="M125.93,148.46l-.11.12c-1.8,1.51-5.77,1.74-8,1.8-2.76.07-7-.16-9.18-2a9.75,9.75,0,0,1-1.76-1.93C111.51,150.12,119.91,150.21,125.93,148.46Z"/><ellipse class="cls-3" cx="116.85" cy="139.97" rx="5.56" ry="6.23"/><ellipse class="cls-1" cx="114.08" cy="138.55" rx="1.47" ry="1.64"/><path class="cls-4" d="M106.33,135c-.13.11-.41.12-.52.25a12,12,0,0,1,4-4.86,13.51,13.51,0,0,1,11.15-1.8,10.26,10.26,0,0,1,7.33,6.72l0,.09a13.16,13.16,0,0,1,.42,2.62,14.9,14.9,0,0,0-22.38-3Z"/><path class="cls-5" d="M103.05,135.19a7.94,7.94,0,0,0,3.6-.93,6.1,6.1,0,0,1-2.83,0,4,4,0,0,1-3.17-2.82,6.47,6.47,0,0,0,3.38,1.86,12.7,12.7,0,0,0,3.64.31c.21-.18.42-.37.64-.54a14.54,14.54,0,0,1,3-1.63,14.28,14.28,0,0,1,6.75-1,13.21,13.21,0,0,1,6.4,2.43,12.9,12.9,0,0,1,4.26,5.16,15.43,15.43,0,0,0-17-5.47,19.16,19.16,0,0,0-3,1.16,13.87,13.87,0,0,0-1.43.77,9.71,9.71,0,0,1-1.13.68,4.6,4.6,0,0,1-.65.4,6,6,0,0,1-2.39.59,7.21,7.21,0,0,1-2.42-.3,5,5,0,0,1-2.11-1.16A14.88,14.88,0,0,0,103.05,135.19Z"/></g></g></svg>