<svg xmlns="http://www.w3.org/2000/svg" viewBox="0 0 288 288"><defs><style>.cls-1{fill:#fff;}.cls-2{fill:#303030;}.cls-3{fill:#804d88;}.cls-4{fill:#c2927d;}.cls-5{fill:#080e0f;}</style></defs><title>eyes05Монтажная область 46</title><g id="eyes"><g id="eyes05"><path class="cls-1" d="M128.14,133.86l0-.09a10.37,10.37,0,0,0-7.4-6.79,13.65,13.65,0,0,0-11.26,1.82,11.88,11.88,0,0,0-5.09,10.08,11.57,11.57,0,0,0,3.92,8.07c2.23,1.83,6.49,2.07,9.27,2,2.25-.06,6.27-.29,8.09-1.82,1.57-1.32,2.33-4.35,2.68-6.26A15.72,15.72,0,0,0,128.14,133.86Z"/><ellipse class="cls-2" cx="112.78" cy="140.55" rx="5.62" ry="6.29"/><ellipse class="cls-1" cx="109.93" cy="139.12" rx="1.48" ry="1.66"/><path class="cls-3" d="M128.55,139.23a14.81,14.81,0,0,0-.41-5.37l0-.09a10.37,10.37,0,0,0-7.4-6.79,13.65,13.65,0,0,0-11.26,1.82,12,12,0,0,0-5.06,8.78C112.44,134.58,120.5,136.17,128.55,139.23Z"/><path class="cls-4" d="M125.76,147l-.11.12c-1.81,1.53-5.83,1.76-8.08,1.82-2.79.07-7-.16-9.27-2a9.85,9.85,0,0,1-1.77-2C111.19,148.69,119.68,148.78,125.76,147Z"/><path class="cls-5" d="M116.88,135.36a24.22,24.22,0,0,0-10.07.26l-.15,0c-.58.17-1.16.36-1.74.55a5.57,5.57,0,0,1-.59.16,2,2,0,0,1-.58,0l-.57-.06c-.37,0-.73-.11-1.09-.19a6.54,6.54,0,0,1-3.42-1.88,4.06,4.06,0,0,0,3.2,2.85,5.52,5.52,0,0,0,2.4.12,6.11,6.11,0,0,1-3.18.77,15,15,0,0,1-4.52-.48,5.1,5.1,0,0,0,2.13,1.17,7.29,7.29,0,0,0,2.44.3,6.06,6.06,0,0,0,2.41-.59,9.66,9.66,0,0,1,1.27-.62c.5-.17,1-.37,1.48-.53s1.24-.37,1.87-.51a24,24,0,0,1,3.85-.55,26.58,26.58,0,0,1,3.92,0l.65.06a53.87,53.87,0,0,1,11.94,2.93,8.48,8.48,0,0,1-1-.56q-.54-.28-1.09-.53A36,36,0,0,0,116.88,135.36Z"/><path class="cls-1" d="M157.22,133.86l0-.09a10.37,10.37,0,0,1,7.4-6.79,13.65,13.65,0,0,1,11.26,1.82A11.88,11.88,0,0,1,181,138.88a11.57,11.57,0,0,1-3.92,8.07c-2.23,1.83-6.49,2.07-9.27,2-2.25-.06-6.27-.29-8.09-1.82-1.57-1.32-2.33-4.35-2.68-6.26A15.72,15.72,0,0,1,157.22,133.86Z"/><ellipse class="cls-2" cx="164.81" cy="140.55" rx="5.62" ry="6.29"/><ellipse class="cls-1" cx="161.66" cy="139.12" rx="1.48" ry="1.66"/><path class="cls-3" d="M156.81,139.23a14.81,14.81,0,0,1,.41-5.37l0-.09a10.37,10.37,0,0,1,7.4-6.79,13.65,13.65,0,0,1,11.26,1.82,12,12,0,0,1,5.06,8.78C172.92,134.58,164.86,136.17,156.81,139.23Z"/><path class="cls-4" d="M159.6,147l.11.12c1.81,1.53,5.83,1.76,8.08,1.82,2.79.07,7-.16,9.27-2a9.85,9.85,0,0,0,1.77-2C174.17,148.69,165.68,148.78,159.6,147Z"/><path class="cls-5" d="M168.66,135.31a25.13,25.13,0,0,1,10.81.6l1,.3a5.57,5.57,0,0,0,.59.16,2,2,0,0,0,.58,0l.57-.06c.37,0,.73-.11,1.09-.19a6.54,6.54,0,0,0,3.42-1.88,4.06,4.06,0,0,1-3.2,2.85,5.52,5.52,0,0,1-2.4.12,6.11,6.11,0,0,0,3.18.77,15,15,0,0,0,4.52-.48,5.1,5.1,0,0,1-2.13,1.17,7.29,7.29,0,0,1-2.44.3,6.06,6.06,0,0,1-2.41-.59,9.66,9.66,0,0,0-1.27-.62c-.5-.17-1-.37-1.48-.53s-1.24-.37-1.87-.51a24,24,0,0,0-3.85-.55,26.58,26.58,0,0,0-3.92,0l-.65.06a53.87,53.87,0,0,0-11.94,2.93,7.64,7.64,0,0,0,1.06-.64q.56-.31,1.13-.59a23.48,23.48,0,0,1,2.33-1,35,35,0,0,1,4.85-1.3Q167.43,135.48,168.66,135.31Z"/></g></g></svg>