<svg xmlns="http://www.w3.org/2000/svg" viewBox="0 0 288 288"><defs><style>.cls-1{fill:#fff;}.cls-2{fill:#303030;}.cls-3{fill:#ec9269;}.cls-4{fill:#201600;}</style></defs><title>eyes04Монтажная область 46</title><g id="eyes"><g id="eyes04"><g id="eyes01_fem" data-name="eyes01 fem"><path class="cls-1" d="M154.41,139.71c-.9,1.38-1.21,2.76.85,3.94,2.93,1.68,5.94,3.39,9.42,4a15.29,15.29,0,0,0,9.59-1.61,14.6,14.6,0,0,0,6.48-7,2.68,2.68,0,0,0-.78-3.73c-3.67-2.51-7.14-4.52-13.19-4.24S157,135.8,154.41,139.71Z"/><circle class="cls-2" cx="166.79" cy="138.65" r="5.92"/><circle class="cls-1" cx="163.95" cy="137.08" r="1.97"/><path class="cls-3" d="M180.41,136.29l.46.06a2.82,2.82,0,0,0-.89-1c-3.67-2.51-7.14-4.52-13.19-4.24-4.63.22-8,2.94-10.49,6,0,.07-.07.14-.09.21A25.61,25.61,0,0,1,180.41,136.29Z"/><path class="cls-4" d="M189.47,135.85a10.13,10.13,0,0,1-8.62,1.36c-1.55-.39-2.72-1.08-4.09-1.38l-2-.56q-1-.22-2-.35a28.93,28.93,0,0,0-8.31.1,38.06,38.06,0,0,0-8.2,2.31,30,30,0,0,1,3.73-2.31,22.88,22.88,0,0,1,4.16-1.51A23.27,23.27,0,0,1,173,133a28.53,28.53,0,0,1,8.33,2.77A11.51,11.51,0,0,0,189.47,135.85Z"/><path class="cls-4" d="M179.89,136a9.15,9.15,0,0,0,3.07-.79,5.62,5.62,0,0,0,1.26-.83,16.59,16.59,0,0,0,1.18-1.17,3.62,3.62,0,0,1-2,2.89A3.74,3.74,0,0,1,179.89,136Z"/><path class="cls-1" d="M130.95,139.71c.9,1.38,1.21,2.76-.85,3.94-2.93,1.68-5.94,3.39-9.42,4a15.29,15.29,0,0,1-9.59-1.61,14.6,14.6,0,0,1-6.48-7,2.68,2.68,0,0,1,.78-3.73c3.67-2.51,7.14-4.52,13.19-4.24S128.38,135.8,130.95,139.71Z"/><circle class="cls-2" cx="118.57" cy="138.65" r="5.92"/><circle class="cls-1" cx="115.94" cy="137.08" r="1.97"/><path class="cls-3" d="M104.95,136.29l-.46.06a2.82,2.82,0,0,1,.89-1c3.67-2.51,7.14-4.52,13.19-4.24,4.63.22,8,2.94,10.49,6,0,.07.07.14.09.21A25.61,25.61,0,0,0,104.95,136.29Z"/><path class="cls-4" d="M95.89,135.85a11.51,11.51,0,0,0,8.16-.1,28.53,28.53,0,0,1,8.33-2.77,23.27,23.27,0,0,1,8.88.54,22.88,22.88,0,0,1,4.16,1.51,30,30,0,0,1,3.73,2.31,38.06,38.06,0,0,0-8.2-2.31,28.93,28.93,0,0,0-8.31-.1q-1,.13-2,.35l-2,.56c-1.37.3-2.54,1-4.09,1.38A10.13,10.13,0,0,1,95.89,135.85Z"/><path class="cls-4" d="M105.47,136a3.74,3.74,0,0,1-3.51.09,3.62,3.62,0,0,1-2-2.89,16.59,16.59,0,0,0,1.18,1.17,5.62,5.62,0,0,0,1.26.83A9.15,9.15,0,0,0,105.47,136Z"/></g></g></g></svg>