<svg xmlns="http://www.w3.org/2000/svg" viewBox="0 0 288 288"><defs><style>.cls-1{fill:#30323d;}</style></defs><title>eyebrows07_blackМонтажная область 46</title><g id="eyebrows"><g id="eyebrows07"><g id="eyebrows07_black" data-name="eyebrows07 black"><path class="cls-1" d="M153.24,129.71a2.92,2.92,0,0,0,.56.39,4.66,4.66,0,0,0,3.14.22,25.81,25.81,0,0,0,4.28-1.4c1.77-.7,3.83-1.63,5.66-2.21,6.73-2.13,7.62-2,11.19-1.62,3,.36,4,1.19,6.91,2.33.51.2.78-.18.23-.57-6.15-4.34-5.9-5.28-15.18-5-5.37.13-17.83,2.29-17.6,6.33A2.34,2.34,0,0,0,153.24,129.71Z"/><path class="cls-1" d="M132.12,129.71a2.92,2.92,0,0,1-.56.39,4.66,4.66,0,0,1-3.14.22,25.81,25.81,0,0,1-4.28-1.4c-1.77-.7-3.83-1.63-5.66-2.21-6.73-2.13-7.62-2-11.19-1.62-3,.36-4,1.19-6.91,2.33-.51.2-.78-.18-.23-.57,6.15-4.34,5.9-5.28,15.18-5,5.37.13,17.83,2.29,17.6,6.33A2.34,2.34,0,0,1,132.12,129.71Z"/></g></g></g></svg>