<svg xmlns="http://www.w3.org/2000/svg" viewBox="0 0 288 288"><defs><style>.cls-1{fill:#cc9c3e;}</style></defs><title>eyebrows04_blondeМонтажная область 46</title><g id="eyebrows"><g id="eyebrows04"><g id="eyebrows04_blonde" data-name="eyebrows04 blonde"><path class="cls-1" d="M130.39,128c-1,.35-2.3-.26-3.3-.57q-2-.64-4-1.18a81.11,81.11,0,0,0-9.2-2.08,30.2,30.2,0,0,0-9.46,0,44.64,44.64,0,0,0-7.26,2l-.66.24c-.65.24-.66.06-.18-.38s.84-.73,1.27-1.08a29.43,29.43,0,0,1,18.69-6.71A26.78,26.78,0,0,1,126,120.1a8.87,8.87,0,0,1,4.21,3.51C130.9,124.79,132,127.5,130.39,128Z"/><path class="cls-1" d="M155,128c1,.35,2.3-.26,3.3-.57q2-.64,4-1.18a81.11,81.11,0,0,1,9.2-2.08,30.2,30.2,0,0,1,9.46,0,44.64,44.64,0,0,1,7.26,2l.66.24c.65.24.66.06.18-.38s-.84-.73-1.27-1.08a29.43,29.43,0,0,0-18.69-6.71,26.78,26.78,0,0,0-9.71,1.74,8.87,8.87,0,0,0-4.21,3.51C154.46,124.79,153.41,127.5,155,128Z"/></g></g></g></svg>