<svg xmlns="http://www.w3.org/2000/svg" viewBox="0 0 288 288"><defs><style>.cls-1{fill:#dea77f;}.cls-2{fill:#bd7f51;}.cls-3{fill:#b36835;}</style></defs><title>body_dark_skinМонтажная область 36 копия</title><g id="body"><g id="dark_skin" data-name="dark skin"><g id="body-2" data-name="body"><path class="cls-1" d="M259.22,268.11a65.81,65.81,0,0,0-17.78-8.74C223.3,254.15,204,250.28,186.16,244c-16.53-5.83-15-30.1-13.95-39.68a10.32,10.32,0,0,1,.15-1.63c-2.79,2.7-5.75,5.28-8.83,7.82-5.15,4.25-9.31,7.36-16.17,8.38a31.78,31.78,0,0,1-9.24,0c-6.86-1-11-4.13-16.17-8.38-2.06-1.7-4.06-3.41-6-5.16,0,0,0,.09-.07.13,1,10.52,1.86,32.9-14.05,38.52C84,250.28,64.7,254.15,46.56,259.37a65.8,65.8,0,0,0-17.78,8.74c-6.1,4.17-7.76,13-8.9,19.89H268.12C267,281.12,265.32,272.28,259.22,268.11Z"/><path class="cls-2" d="M174.35,231.73c-.09-.24-.18-.49-.27-.74q-.37-1-.67-2.1c0-.16-.1-.31-.14-.47-.23-.84-.42-1.7-.59-2.56-.05-.26-.1-.51-.14-.77q-.19-1-.33-2.09c0-.21-.06-.42-.09-.63-.11-.86-.19-1.73-.26-2.59,0-.24,0-.48,0-.72q-.07-1-.1-2c0-.23,0-.45,0-.68,0-.83,0-1.65,0-2.45,0-.19,0-.38,0-.57q0-1,0-1.92c0-.21,0-.43,0-.64,0-.75.07-1.47.12-2.16l0-.32c0-.61.09-1.19.14-1.75l0-.51c.06-.6.11-1.17.17-1.69a11.39,11.39,0,0,1,.15-1.63c-2.79,2.7-5.75,5.28-8.83,7.82-5.15,4.25-9.31,7.36-16.17,8.38a31.78,31.78,0,0,1-9.24,0c-6.86-1-11-4.13-16.17-8.38-2.06-1.7-4.06-3.41-6-5.16,0,0,0,.09-.07.13.06.59.11,1.22.16,1.88,0,.33,0,.69.07,1s0,.63.06,1,.05,1,.07,1.48c0,.21,0,.42,0,.63,0,.6,0,1.2,0,1.82,0,.1,0,.19,0,.29a65,65,0,0,1-.51,9.29h0c9.14,10.52,30.83,29,59.56,11.23h0C175,233.35,174.67,232.55,174.35,231.73Z"/></g><g id="ears"><ellipse class="cls-2" cx="197.65" cy="139.91" rx="10.85" ry="13.16"/><path class="cls-1" d="M204.12,129.36a17.35,17.35,0,0,1,.85,5.36c0,8.23-5.6,14.89-12.51,14.89a10.61,10.61,0,0,1-2.38-.28,9.94,9.94,0,0,0,7.57,3.73c6,0,10.85-5.89,10.85-13.16A14.19,14.19,0,0,0,204.12,129.36Z"/><path class="cls-3" d="M204.39,134.67a22.88,22.88,0,0,0-3.92,5.74,19.54,19.54,0,0,0-1.19,3.19c-.33,1.11-.55,2.26-.83,3.47a9.59,9.59,0,0,1-.39-3.69,10.51,10.51,0,0,1,1-3.65A9.6,9.6,0,0,1,204.39,134.67Z"/><path class="cls-3" d="M200,139.5a5.56,5.56,0,0,1,3.68,2.32,5,5,0,0,1,.85,2.13,3.36,3.36,0,0,1-.47,2.21,11.16,11.16,0,0,0-1.68-3.44C201.71,141.7,200.87,140.75,200,139.5Z"/><ellipse class="cls-1" cx="87.13" cy="139.91" rx="10.85" ry="13.16"/><path class="cls-3" d="M82.3,134.67a9.61,9.61,0,0,1,5.36,5.07,10.51,10.51,0,0,1,1,3.65,9.6,9.6,0,0,1-.39,3.69c-.28-1.21-.51-2.36-.83-3.47a19.54,19.54,0,0,0-1.19-3.19A22.88,22.88,0,0,0,82.3,134.67Z"/><path class="cls-3" d="M86.65,139.5c-.83,1.25-1.67,2.2-2.38,3.23a11.16,11.16,0,0,0-1.68,3.44,3.36,3.36,0,0,1-.47-2.21,5,5,0,0,1,.85-2.13A5.56,5.56,0,0,1,86.65,139.5Z"/></g><path id="face" class="cls-1" d="M142.74,40.05c34.65,0,60.52,25.72,57.17,64.65,0,.44-.1.88-.14,1.32,0,.21,0,.42,0,.63-1.14,13.22-2.74,26.4-4.55,39.54-1.64,11.93-3.8,26-8.71,37.11-5.05,11.46-13.5,19.42-22.95,27.22-5.15,4.25-9.31,7.36-16.17,8.38a31.53,31.53,0,0,1-4.62.34h0a31.53,31.53,0,0,1-4.62-.34c-6.86-1-11-4.13-16.17-8.38-9.45-7.79-17.89-15.76-22.95-27.22-4.91-11.14-7.07-25.18-8.71-37.11-1.81-13.14-3.42-26.32-4.55-39.54,0-.21,0-.42,0-.63,0-.44-.1-.88-.14-1.32C82.22,65.77,108.09,40.05,142.74,40.05Z"/><g id="face_shadow" data-name="face shadow"><path class="cls-2" d="M195.19,146.2c1.25-9.08,2.39-18.17,3.36-27.28q.63-6.89,1.21-13.78c0-.21,0-.42,0-.63,0-.44.1-.88.14-1.32.17-2,.25-4,.27-5.94,0-.11,0-.22,0-.34q0-2.59-.26-5.09c0-.16,0-.33,0-.49-.16-1.69-.39-3.35-.66-5l-.11-.63a60.51,60.51,0,0,0-2.56-9.63l-.08-.23q-.82-2.27-1.82-4.41l-.17-.37a53.72,53.72,0,0,0-4.78-8.21l-.06-.09q-1.36-1.9-2.87-3.66l-.18-.2a52,52,0,0,0-6.74-6.5l0,0Q178,50.94,176,49.64l-.15-.1a55.34,55.34,0,0,0-12.93-6.28l-.12,0a60.64,60.64,0,0,0-9.73-2.36c17.38,19.58,29,54.69,29,94.75,0,26.79-5.2,51.33-13.84,70.53,1.22-1,3.58-3.66,3.76-3.81,5.75-5.56,10.43-11.3,13.83-19C190.74,172.16,193.54,158.13,195.19,146.2Z"/><path class="cls-2" d="M130.11,129.08c0,4.68-5.75,2.07-13.21,2.07s-15,4.06-15-2.07c0-5.79,7.23-5.79,14.69-5.79S130.11,122.79,130.11,129.08Z"/><path class="cls-2" d="M156.69,129.08c0,4.68,5.76,2.07,13.25,2.07s15,4.06,15-2.07c0-5.79-7.25-5.79-14.74-5.79S156.69,122.79,156.69,129.08Z"/></g></g></g></svg>