<svg xmlns="http://www.w3.org/2000/svg" viewBox="0 0 288 288"><defs><style>.cls-1{fill:#f5d4c0;}.cls-2{fill:#c4947d;}.cls-3{fill:#a66f5a;}</style></defs><title>body_light_skinМонтажная область 36 копия</title><g id="body"><g id="light_skin" data-name="light skin"><g id="body-2" data-name="body"><path class="cls-1" d="M259.22,268.11a65.81,65.81,0,0,0-17.78-8.74C223.3,254.15,204,250.28,186.16,244c-16.53-5.83-15-30.1-13.95-39.68a10.32,10.32,0,0,1,.15-1.63c-2.79,2.7-5.75,5.28-8.83,7.82-5.15,4.25-9.31,7.36-16.17,8.38a31.78,31.78,0,0,1-9.24,0c-6.86-1-11-4.13-16.17-8.38-2.06-1.7-4.06-3.41-6-5.16,0,0,0,.09-.07.13,1,10.52,1.86,32.9-14.05,38.52C84,250.28,64.7,254.15,46.56,259.37a65.8,65.8,0,0,0-17.78,8.74c-6.1,4.17-7.76,13-8.9,19.89H268.12C267,281.12,265.32,272.28,259.22,268.11Z"/><path class="cls-2" d="M174.35,231.73c-.09-.24-.18-.49-.27-.74q-.37-1-.67-2.1c0-.16-.1-.31-.14-.47-.23-.84-.42-1.7-.59-2.56-.05-.26-.1-.51-.14-.77q-.19-1-.33-2.09c0-.21-.06-.42-.09-.63-.11-.86-.19-1.73-.26-2.59,0-.24,0-.48,0-.72q-.07-1-.1-2c0-.23,0-.45,0-.68,0-.83,0-1.65,0-2.45,0-.19,0-.38,0-.57q0-1,0-1.92c0-.21,0-.43,0-.64,0-.75.07-1.47.12-2.16l0-.32c0-.61.09-1.19.14-1.75l0-.51c.06-.6.11-1.17.17-1.69a11.39,11.39,0,0,1,.15-1.63c-2.79,2.7-5.75,5.28-8.83,7.82-5.15,4.25-9.31,7.36-16.17,8.38a31.78,31.78,0,0,1-9.24,0c-6.86-1-11-4.13-16.17-8.38-2.06-1.7-4.06-3.41-6-5.16,0,0,0,.09-.07.13.06.59.11,1.22.16,1.88,0,.33,0,.69.07,1s0,.63.06,1,.05,1,.07,1.48c0,.21,0,.42,0,.63,0,.6,0,1.2,0,1.82,0,.1,0,.19,0,.29a65,65,0,0,1-.51,9.29h0c9.14,10.52,30.83,29,59.56,11.23h0C175,233.35,174.67,232.55,174.35,231.73Z"/></g><g id="ears"><ellipse class="cls-2" cx="197.65" cy="139.91" rx="10.85" ry="13.16"/><path class="cls-1" d="M204.12,129.36a17.35,17.35,0,0,1,.85,5.36c0,8.23-5.6,14.89-12.51,14.89a10.61,10.61,0,0,1-2.38-.28,9.94,9.94,0,0,0,7.57,3.73c6,0,10.85-5.89,10.85-13.16A14.19,14.19,0,0,0,204.12,129.36Z"/><path class="cls-3" d="M204.39,134.67a22.88,22.88,0,0,0-3.92,5.74,19.54,19.54,0,0,0-1.19,3.19c-.33,1.11-.55,2.26-.83,3.47a9.59,9.59,0,0,1-.39-3.69,10.51,10.51,0,0,1,1-3.65A9.6,9.6,0,0,1,204.39,134.67Z"/><path class="cls-3" d="M200,139.5a5.56,5.56,0,0,1,3.68,2.32,5,5,0,0,1,.85,2.13,3.36,3.36,0,0,1-.47,2.21,11.16,11.16,0,0,0-1.68-3.44C201.71,141.7,200.87,140.75,200,139.5Z"/><ellipse class="cls-1" cx="87.13" cy="139.91" rx="10.85" ry="13.16"/><path class="cls-3" d="M82.3,134.67a9.61,9.61,0,0,1,5.36,5.07,10.51,10.51,0,0,1,1,3.65,9.6,9.6,0,0,1-.39,3.69c-.28-1.21-.51-2.36-.83-3.47a19.54,19.54,0,0,0-1.19-3.19A22.88,22.88,0,0,0,82.3,134.67Z"/><path class="cls-3" d="M86.65,139.5c-.83,1.25-1.67,2.2-2.38,3.23a11.16,11.16,0,0,0-1.68,3.44,3.36,3.36,0,0,1-.47-2.21,5,5,0,0,1,.85-2.13A5.56,5.56,0,0,1,86.65,139.5Z"/></g><path id="face" class="cls-1" d="M85.66,106c.19,2.57.51,5.14.76,7.66q.79,8,1.77,16.07t2.08,16l.06.4c1.64,11.93,3.8,26,8.71,37.11,5.06,11.46,13.5,19.43,22.95,27.22,5.17,4.25,9.31,7.38,16.17,8.38a31.56,31.56,0,0,0,9.24,0c6.86-1,11-4.13,16.17-8.38,9.45-7.8,17.9-15.76,23-27.22,4.91-11.11,7.07-25.18,8.71-37.11,1.47-10.65,2.8-21.33,3.85-32a109.27,109.27,0,0,0,.77-13.65,46.46,46.46,0,0,0-2.41-13.17,51.31,51.31,0,0,0-10.09-17.92,52.42,52.42,0,0,0-16.1-12.36,61.53,61.53,0,0,0-20.69-6,70.94,70.94,0,0,0-7.83-.43c-30,0-53.38,18.28-57,47.14A41.56,41.56,0,0,0,85.66,106Z"/><g id="face_shadow" data-name="face shadow"><path class="cls-2" d="M130.11,129.08c0,4.68-5.75,2.07-13.21,2.07s-15,4.06-15-2.07c0-5.79,7.23-5.79,14.69-5.79S130.11,122.79,130.11,129.08Z"/><path class="cls-2" d="M156.69,129.08c0,4.68,5.76,2.07,13.25,2.07s15,4.06,15-2.07c0-5.79-7.25-5.79-14.74-5.79S156.69,122.79,156.69,129.08Z"/><path class="cls-2" d="M196.77,134.41q.4-3.17.78-6.35.19-1.62.38-3.23.35-3.08.68-6.16c.11-1,.22-2.06.32-3.09.2-2,.39-4,.57-6.07a82,82,0,0,0,.34-9,40.87,40.87,0,0,0-.33-4.16c-.09-.56-.16-1.14-.26-1.69l-.08-.43q-.17-.92-.37-1.83l-.07-.3a55.11,55.11,0,0,0-1.57-5.55l-.06-.19L197,86q-.26-.75-.55-1.48l-.18-.47h0q-.48-1.22-1-2.39l-.14-.3q-.48-1-1-2c-.17-.32-.33-.64-.51-1l-.51-.91c-.23-.41-.48-.81-.72-1.21l-.43-.71-.19-.29-.21-.32q-.78-1.19-1.62-2.33l-.52-.7-.65-.83-.27-.34-.49-.59-.64-.75-.59-.66c-.3-.33-.6-.67-.91-1l-.71-.72q-.75-.75-1.53-1.47l-.3-.27-1-.88-.4-.35-.47-.39c-.45-.37-.89-.73-1.35-1.09l-.64-.48-.92-.67-.67-.48-.55-.37-1.19-.78-.39-.24-.69-.42L174,58.53l-.26-.15-1-.56-1.15-.61-1.1-.54-1.19-.56L168.9,56l-.87-.37-1.24-.51-.17-.07-1-.39-1.43-.51L163,53.74l-1.41-.44-1-.29-1.46-.38-1-.25-1.47-.32-1.07-.22-1.48-.26L153,51.41l-1.56-.2-1-.12c-1.13-.12-2.27-.21-3.41-.28l-.83,0c-1.16-.06-2.32-.09-3.48-.09q-1.48,0-2.94.06l-.44,0c-.82,0-1.65.09-2.46.15h-.06c2.64-.19,7.29,2.82,9.58,4a70.55,70.55,0,0,1,9.32,5.74,58.27,58.27,0,0,1,16.48,18.24c4.4,7.76,5.8,15.91,7.24,24.58a196.6,196.6,0,0,1,2.6,32.19c0,26.79-5.2,51.33-13.84,70.53,1.22-1,3.58-3.66,3.76-3.81,5.75-5.56,10.43-11.3,13.83-19a116.92,116.92,0,0,0,6.84-22.47c-.35,2.41-.75,4.8-1.24,7.15.86-3.65,1.57-7.36,2.18-11l0-.25q.2-1.2.39-2.39l.07-.44q.17-1.08.33-2.15l.08-.56q.15-1,.29-2l.08-.57c.12-.83.23-1.65.34-2.46q.62-4.5,1.2-9C196.54,136.26,196.65,135.34,196.77,134.41Z"/></g></g></g></svg>