<svg xmlns="http://www.w3.org/2000/svg" xmlns:xlink="http://www.w3.org/1999/xlink" width="50" height="50"><symbol id="a" viewBox="-9 -9 18 18"><path fill="#F2A654" d="M-1 1c0-.55-.45-1-1-1h-4c-.55 0-1 .45-1 1v4c0 .55.45 1 1 1h4c.55 0 1-.45 1-1V1z"/><path fill="#46BE8A" d="M6-6c0-.55-.45-1-1-1H1c-.55 0-1 .45-1 1v4c0 .55.45 1 1 1h4c.55 0 1-.45 1-1v-4z"/><path fill="#48B0F7" d="M-1-8c0-.55-.45-1-1-1h-6c-.55 0-1 .45-1 1v6c0 .55.45 1 1 1h6c.55 0 1-.45 1-1v-6z"/><path fill="#F96868" d="M9 1c0-.55-.45-1-1-1H1C.45 0 0 .45 0 1v7c0 .55.45 1 1 1h7c.55 0 1-.45 1-1V1z"/></symbol><use xlink:href="#a" width="18" height="18" x="-9" y="-9" transform="matrix(1 0 0 -1 25 25)" overflow="visible"/></svg>