<svg xmlns="http://www.w3.org/2000/svg" xmlns:xlink="http://www.w3.org/1999/xlink" width="50" height="50"><symbol id="d" viewBox="-7 -8.688 14 17.375"><path fill-rule="evenodd" clip-rule="evenodd" fill="#1F6D99" d="M7-3.688c0-1.38-3.134-2.5-7-2.5s-7 1.12-7 2.5 3.134 2.5 7 2.5 7-1.119 7-2.5z"/><linearGradient id="a" gradientUnits="userSpaceOnUse" x1="-7" y1="-6.188" x2="7" y2="-6.188"><stop offset="0" stop-color="#48b0f7"/><stop offset="1" stop-color="#2479b3"/></linearGradient><path fill-rule="evenodd" clip-rule="evenodd" fill="url(#a)" d="M-7-6.188c0-1.38 3.084-2.5 7-2.5s7 1.12 7 2.5v2.5c0-1.38-3.084-2.5-7-2.5s-7 1.12-7 2.5v-2.5z"/><g><path fill-rule="evenodd" clip-rule="evenodd" fill="#1F6D99" d="M7 1.313c0-1.381-3.134-2.5-7-2.5s-7 1.119-7 2.5 3.134 2.5 7 2.5 7-1.12 7-2.5z"/><linearGradient id="b" gradientUnits="userSpaceOnUse" x1="-7" y1="-1.188" x2="7" y2="-1.188"><stop offset="0" stop-color="#48b0f7"/><stop offset="1" stop-color="#2479b3"/></linearGradient><path fill-rule="evenodd" clip-rule="evenodd" fill="url(#b)" d="M-7-1.188c0-1.38 3.084-2.5 7-2.5s7 1.12 7 2.5v2.5c0-1.38-3.084-2.5-7-2.5s-7 1.12-7 2.5v-2.5z"/></g><g><path fill-rule="evenodd" clip-rule="evenodd" fill="#66C8FF" d="M7 6.188c0-1.381-3.134-2.5-7-2.5s-7 1.119-7 2.5 3.134 2.5 7 2.5 7-1.12 7-2.5z"/><linearGradient id="c" gradientUnits="userSpaceOnUse" x1="-7" y1="3.688" x2="7" y2="3.688"><stop offset="0" stop-color="#48b0f7"/><stop offset="1" stop-color="#2479b3"/></linearGradient><path fill-rule="evenodd" clip-rule="evenodd" fill="url(#c)" d="M-7 3.688c0-1.381 3.084-2.5 7-2.5s7 1.119 7 2.5v2.5c0-1.381-3.084-2.5-7-2.5s-7 1.119-7 2.5v-2.5z"/></g></symbol><use xlink:href="#d" width="14" height="17.375" x="-7" y="-8.688" transform="matrix(1 0 0 -1 25 25)" overflow="visible"/></svg>