<svg xmlns="http://www.w3.org/2000/svg" width="50" height="50"><radialGradient id="a" cx="-350" cy="47.141" r="30.176" gradientTransform="matrix(.6 0 0 .08 235 43.229)" gradientUnits="userSpaceOnUse"><stop offset="0" stop-color="#231f20"/><stop offset=".8" stop-color="#fff"/></radialGradient><path opacity=".5" fill-rule="evenodd" clip-rule="evenodd" fill="url(#a)" d="M25 45c15 0 18 .895 18 2s-3 2-18 2-18-.895-18-2 3-2 18-2z"/><path fill-rule="evenodd" clip-rule="evenodd" fill="#EBF0F5" d="M38 4.688A3.688 3.688 0 0 0 34.312 1H15.688A3.688 3.688 0 0 0 12 4.688v38.624A3.688 3.688 0 0 0 15.688 47h18.624A3.688 3.688 0 0 0 38 43.312V4.688zM36 41H14V7h22v34z"/><path fill="#AFB4B9" d="M35.5 7.5v33h-21v-33h21M36 7H14v34h22V7z"/><path fill-rule="evenodd" clip-rule="evenodd" fill="#666" d="M21.5 3.5a.5.5 0 1 1 0 1 .5.5 0 0 1 0-1zM23.907 3.5h4.058c.224 0 .405.276.405.5 0 .224-.18.5-.405.5h-4.058c-.224 0-.405-.276-.405-.5 0-.224.181-.5.405-.5z"/><path fill-rule="evenodd" clip-rule="evenodd" fill="#AFB4B9" d="M25 42a2 2 0 1 1 0 4 2 2 0 0 1 0-4z"/><linearGradient id="b" gradientUnits="userSpaceOnUse" x1="16" y1="24" x2="32.115" y2="24"><stop offset="0" stop-color="#fff" stop-opacity="0"/><stop offset="1" stop-color="#fff" stop-opacity=".4"/></linearGradient><path fill-rule="evenodd" clip-rule="evenodd" fill="url(#b)" d="M16 47V1h16.115l-13.52 46H16z"/></svg>