<svg xmlns="http://www.w3.org/2000/svg" viewBox="0 0 288 288"><defs><style>.cls-1{fill:#fff;}.cls-2{fill:#303030;}.cls-3{fill:#80bb52;}.cls-4{fill:#080e0f;}.cls-5{fill:#c2927d;}</style></defs><title>eyes07Монтажная область 46</title><g id="eyes"><g id="eyes07"><path class="cls-1" d="M156,138.4l0-.07c1-2.67,3.93-4.55,7.22-5.26a16.25,16.25,0,0,1,11,1.41c3.14,1.74,5.15,4.77,5,7.81a8.44,8.44,0,0,1-3.83,6.26c-2.18,1.42-6.33,1.61-9,1.55-2.2,0-6.12-.23-7.89-1.41-1.53-1-2.27-3.37-2.61-4.85A9.77,9.77,0,0,1,156,138.4Z"/><ellipse class="cls-2" cx="167.31" cy="140.69" rx="5.48" ry="6.14"/><ellipse class="cls-1" cx="164.09" cy="140.69" rx="1.45" ry="1.62"/><path class="cls-3" d="M174.27,134.48a16.25,16.25,0,0,0-11-1.41c-3.29.71-6.25,2.6-7.22,5.26l0,.07a8,8,0,0,0-.22.87,51.33,51.33,0,0,1,20,1.8,21.86,21.86,0,0,1,3.44,1.28s0,0,0-.05C179.42,139.25,177.41,136.22,174.27,134.48Z"/><path class="cls-4" d="M183,143.42a7.83,7.83,0,0,1-3.55-.91,6,6,0,0,0,2.79,0,4,4,0,0,0,3.12-2.78A6.38,6.38,0,0,1,182,141.6a8,8,0,0,1-2.06.25,4.21,4.21,0,0,1-1.9-.62,24.83,24.83,0,0,0-10.25-2.63,46.67,46.67,0,0,0-12,.56.1.1,0,0,0,0,.19l1.73,0c1.2,0,2.41,0,3.61.11l.23,0c3,.2,5.92.56,8.86,1.05a47.53,47.53,0,0,1,5.46,1.11,19.79,19.79,0,0,1,1.88.67,10.6,10.6,0,0,1,1.8.83,10.22,10.22,0,0,0,1.72.92,6.09,6.09,0,0,0,1.84.35,7.11,7.11,0,0,0,2.38-.3A5,5,0,0,0,187.4,143,14.66,14.66,0,0,1,183,143.42Z"/><path class="cls-5" d="M175,147.95a27.29,27.29,0,0,1-5.48.8c-4.07.27-8.27.27-12.08-1.19l-.09,0a4.35,4.35,0,0,0,1.13,1.17c1.77,1.18,5.69,1.37,7.89,1.41,2.72.06,6.87-.13,9-1.55a8.63,8.63,0,0,0,1.53-1.28A20.31,20.31,0,0,1,175,147.95Z"/><path class="cls-1" d="M129.33,138.4l0-.07c-1-2.67-3.93-4.55-7.22-5.26a16.25,16.25,0,0,0-11,1.41c-3.14,1.74-5.15,4.77-5,7.81a8.44,8.44,0,0,0,3.83,6.26c2.18,1.42,6.33,1.61,9,1.55,2.2,0,6.12-.23,7.89-1.41,1.53-1,2.27-3.37,2.61-4.85A9.77,9.77,0,0,0,129.33,138.4Z"/><ellipse class="cls-2" cx="118.05" cy="140.69" rx="5.48" ry="6.14"/><ellipse class="cls-1" cx="115.02" cy="140.69" rx="1.45" ry="1.62"/><path class="cls-3" d="M111.09,134.48a16.25,16.25,0,0,1,11-1.41c3.29.71,6.25,2.6,7.22,5.26l0,.07a8,8,0,0,1,.22.87,51.33,51.33,0,0,0-20,1.8,21.86,21.86,0,0,0-3.44,1.28s0,0,0-.05C105.94,139.25,107.95,136.22,111.09,134.48Z"/><path class="cls-4" d="M102.37,143.42a7.83,7.83,0,0,0,3.55-.91,6,6,0,0,1-2.79,0,4,4,0,0,1-3.12-2.78,6.38,6.38,0,0,0,3.34,1.83,8,8,0,0,0,2.06.25,4.21,4.21,0,0,0,1.9-.62,24.83,24.83,0,0,1,10.25-2.63,46.67,46.67,0,0,1,12,.56.1.1,0,0,1,0,.19l-1.73,0c-1.2,0-2.41,0-3.61.11l-.23,0c-3,.2-5.92.56-8.86,1.05a47.53,47.53,0,0,0-5.46,1.11,19.79,19.79,0,0,0-1.88.67,10.6,10.6,0,0,0-1.8.83,10.22,10.22,0,0,1-1.72.92,6.09,6.09,0,0,1-1.84.35,7.11,7.11,0,0,1-2.38-.3A5,5,0,0,1,98,143,14.66,14.66,0,0,0,102.37,143.42Z"/><path class="cls-5" d="M110.38,147.95a27.29,27.29,0,0,0,5.48.8c4.07.27,8.27.27,12.08-1.19l.09,0a4.35,4.35,0,0,1-1.13,1.17c-1.77,1.18-5.69,1.37-7.89,1.41-2.72.06-6.87-.13-9-1.55a8.63,8.63,0,0,1-1.53-1.28A20.31,20.31,0,0,0,110.38,147.95Z"/></g></g></svg>