<svg xmlns="http://www.w3.org/2000/svg" viewBox="0 0 288 288"><defs><style>.cls-1{fill:#bd6f39;}</style></defs><title>nose06Монтажная область 46</title><g id="nose"><path id="nose06" class="cls-1" d="M140,139.23A50.63,50.63,0,0,1,141.2,151a21.52,21.52,0,0,1-3.58,11.57,15.69,15.69,0,0,1-2.1,2.34,13.81,13.81,0,0,1-1.25,1c-.44.32-.91.58-1.09.74a1.74,1.74,0,0,0-.36.8,2.35,2.35,0,0,0,.06,1.07,5.92,5.92,0,0,0,1.26,2.21,9.53,9.53,0,0,0,10.18,3.05,9.32,9.32,0,0,1-5.89.93A10.1,10.1,0,0,1,133,171.8,6.85,6.85,0,0,1,131.2,169a3.78,3.78,0,0,1,.65-3.68,11.93,11.93,0,0,1,1.31-1,11.89,11.89,0,0,0,1.06-.85,14,14,0,0,0,1.79-2.06,22.61,22.61,0,0,0,3.66-10.54A110,110,0,0,0,140,139.23Z"/></g></svg>