<svg xmlns="http://www.w3.org/2000/svg" viewBox="0 0 288 288"><defs><style>.cls-1{fill:#bd6f39;}</style></defs><title>nose04Монтажная область 46</title><g id="nose"><path id="nose04" class="cls-1" d="M142.43,172.91a9.16,9.16,0,0,1-5.78.43,8.93,8.93,0,0,1-5-3.38,7.51,7.51,0,0,1-1.37-6.1,8.75,8.75,0,0,1,3.59-5.12,13,13,0,0,1,2.69-1.49,5.32,5.32,0,0,0,2.07-1.13,5.77,5.77,0,0,0,.64-2.28c.14-.91.23-1.84.3-2.78.26-3.76.42-7.57.41-11.38a67.53,67.53,0,0,1,1,11.43c0,1,0,1.93-.11,2.91a6.58,6.58,0,0,1-.85,3.16A6.33,6.33,0,0,1,137.3,159a11,11,0,0,0-2.27,1.31,7.27,7.27,0,0,0-2.89,4,6,6,0,0,0,.84,4.76A9.11,9.11,0,0,0,142.43,172.91Z"/></g></svg>