<svg xmlns="http://www.w3.org/2000/svg" viewBox="0 0 288 288"><defs><style>.cls-1{fill:#d4c0d0;}.cls-2{fill:#bca6b8;}</style></defs><title>accessories07Монтажная область 46</title><g id="accessories"><g id="access07"><path class="cls-1" d="M87.14,175c0,1.95.3,3.89.19,5.84-.06.93,1.54.89,1.42,0-.26-1.94-.06-3.89-.25-5.84a.68.68,0,0,0-1.36,0Z"/><path class="cls-1" d="M86,152.91c.5,7.34,1.11,14.7,1.46,22.05,0,.93.56.94.54,0-.2-7.35,0-14.7-.07-22.05,0-1.25-2-1.24-1.94,0Z"/><path class="cls-1" d="M90.13,178.88c1,.06.92-1.66-.17-1.51a14.64,14.64,0,0,1-3.59.1c-1.55-.23-1.7,1.81-.12,1.59A38.82,38.82,0,0,1,90.13,178.88Z"/><circle class="cls-2" cx="87.03" cy="150.59" r="2.17"/><path class="cls-1" d="M198.22,175c0,1.95-.3,3.89-.19,5.84.06.93-1.54.89-1.42,0,.26-1.94.06-3.89.25-5.84a.68.68,0,0,1,1.36,0Z"/><path class="cls-1" d="M199.33,152.91c-.5,7.34-1.11,14.7-1.46,22.05,0,.93-.56.94-.54,0,.2-7.35,0-14.7.07-22.05,0-1.25,2-1.24,1.94,0Z"/><path class="cls-1" d="M195.23,178.88c-1,.06-.92-1.66.17-1.51a14.64,14.64,0,0,0,3.59.1c1.55-.23,1.7,1.81.12,1.59A38.82,38.82,0,0,0,195.23,178.88Z"/><circle class="cls-2" cx="198.33" cy="150.59" r="2.17"/></g></g></svg>