<svg xmlns="http://www.w3.org/2000/svg" viewBox="0 0 288 288"><defs><style>.cls-1{fill:#30323d;}.cls-2{fill:none;}.cls-3{fill:#dadad8;}.cls-4{fill:#2480a1;}.cls-5{fill:#8cf;}</style></defs><title>accessories06Монтажная область 46</title><g id="accessories"><g id="access06"><path class="cls-1" d="M172.75,222.5a.69.69,0,0,0-.24,0,6.1,6.1,0,0,0-1.26.68,16.2,16.2,0,0,1-1.54.73,72.51,72.51,0,0,1-25.61,4.24,72.47,72.47,0,0,1-25.65-4.25c-.59-.22-1.16-.47-1.74-.7-.38-.15-1.2-.77-1.55-.56a.56.56,0,0,0-.28.35,14.49,14.49,0,0,1-2,5.23,2.3,2.3,0,0,0-.37,1c0,1.28,2.53,1.86,3.46,2.28a49.93,49.93,0,0,0,5.17,2,68.59,68.59,0,0,0,12.2,2.65,86.77,86.77,0,0,0,21.27,0,69.15,69.15,0,0,0,12.3-2.61,50.51,50.51,0,0,0,5.22-2c.89-.39,3.51-.94,3.46-2.19,0-.46-.37-.81-.58-1.22a15.87,15.87,0,0,1-1.09-3.55C173.72,224.08,173.51,222.61,172.75,222.5Z"/><path class="cls-2" d="M146.34,239.13a7.76,7.76,0,0,0,.33-2.39c-.86,0-1.71.07-2.57.07h-.36a7.42,7.42,0,0,0,0,1.24C143.9,239.32,145.4,241.07,146.34,239.13Z"/><path class="cls-3" d="M148.16,236.7l-1.49,0a7.76,7.76,0,0,1-.33,2.39c-.94,1.94-2.44.19-2.59-1.09a7.42,7.42,0,0,1,0-1.24,5.9,5.9,0,0,1,.37-1.89c.27-.68-.89-1.17-1.19-.5a7.53,7.53,0,0,0-.53,2.35c-.16,2.2.48,4.67,2.89,4.64a2.86,2.86,0,0,0,2.56-2.18A8.3,8.3,0,0,0,148.16,236.7Z"/><path class="cls-4" d="M143.13,243.74a3.61,3.61,0,0,0,.18,3.29,2.21,2.21,0,0,0,3,.69c1-.73,1-2.22.67-3.42a14.3,14.3,0,0,0-1.23-3.28C145.08,239.76,143.38,243.1,143.13,243.74Z"/><path class="cls-5" d="M143.52,245.49a1.73,1.73,0,0,0,.33,1.25.73.73,0,0,0,.44.25.45.45,0,0,0,.44-.21.81.81,0,0,0,0-.63,4.56,4.56,0,0,1-.22-1.68c0-.3.38-1.32.09-1.44C144,242.78,143.54,245.13,143.52,245.49Z"/></g></g></svg>