<svg xmlns="http://www.w3.org/2000/svg" viewBox="0 0 288 288"><defs><style>.cls-1{fill:#d4c0d0;}.cls-2{fill:#fff;}</style></defs><title>accessories05Монтажная область 46</title><g id="accessories"><g id="access05"><circle class="cls-1" cx="179.5" cy="240.68" r="3.22"/><circle class="cls-2" cx="179.76" cy="242.36" r="1.08"/><circle class="cls-1" cx="176.28" cy="243.07" r="3.22"/><circle class="cls-2" cx="176.47" cy="244.55" r="1.09"/><circle class="cls-1" cx="172.47" cy="245.2" r="3.22"/><circle class="cls-2" cx="172.6" cy="246.48" r="1.11"/><circle class="cls-1" cx="168.15" cy="247.04" r="3.22"/><circle class="cls-2" cx="168.21" cy="248.13" r="1.13"/><circle class="cls-1" cx="163.36" cy="248.58" r="3.22"/><circle class="cls-2" cx="163.36" cy="249.46" r="1.15"/><circle class="cls-1" cx="158.17" cy="249.76" r="3.22"/><circle class="cls-2" cx="158.1" cy="250.44" r="1.16"/><circle class="cls-1" cx="152.63" cy="250.57" r="3.22"/><circle class="cls-2" cx="152.5" cy="251.04" r="1.18"/><circle class="cls-1" cx="146.8" cy="250.96" r="3.22"/><circle class="cls-2" cx="146.61" cy="251.24" r="1.2"/><circle class="cls-1" cx="140.8" cy="250.93" r="3.22"/><circle class="cls-2" cx="140.53" cy="251" r="1.21"/><circle class="cls-1" cx="108.5" cy="240.1" r="3.22"/><circle class="cls-2" cx="107.78" cy="238.76" r="1.34"/><circle class="cls-1" cx="111.6" cy="242.56" r="3.22"/><circle class="cls-2" cx="110.95" cy="241.42" r="1.32"/><circle class="cls-1" cx="115.31" cy="244.76" r="3.22"/><circle class="cls-2" cx="114.72" cy="243.83" r="1.3"/><circle class="cls-1" cx="119.57" cy="246.69" r="3.22"/><circle class="cls-2" cx="119.04" cy="245.96" r="1.28"/><circle class="cls-1" cx="124.3" cy="248.3" r="3.22"/><circle class="cls-2" cx="123.84" cy="247.77" r="1.27"/><circle class="cls-1" cx="129.46" cy="249.56" r="3.22"/><circle class="cls-2" cx="129.06" cy="249.23" r="1.25"/><circle class="cls-1" cx="134.98" cy="250.45" r="3.22"/><circle class="cls-2" cx="134.65" cy="250.32" r="1.23"/></g></g></svg>